<?xml version="1.0" encoding="UTF-8" standalone="no"?>
<!-- Created with Inkscape (http://www.inkscape.org/) -->

<svg
   xmlns:dc="http://purl.org/dc/elements/1.1/"
   xmlns:cc="http://creativecommons.org/ns#"
   xmlns:rdf="http://www.w3.org/1999/02/22-rdf-syntax-ns#"
   xmlns:svg="http://www.w3.org/2000/svg"
   xmlns="http://www.w3.org/2000/svg"
   xmlns:sodipodi="http://sodipodi.sourceforge.net/DTD/sodipodi-0.dtd"
   xmlns:inkscape="http://www.inkscape.org/namespaces/inkscape"
   id="svg5125"
   version="1.1"
   inkscape:version="0.91 r13725"
   width="678.57825"
   height="818.77612"
   viewBox="0 0 678.57825 818.77612"
   sodipodi:docname="bitten_apple.jpg.svg">
  <metadata
     id="metadata5131">
    <rdf:RDF>
      <cc:Work
         rdf:about="">
        <dc:format>image/svg+xml</dc:format>
        <dc:type
           rdf:resource="http://purl.org/dc/dcmitype/StillImage" />
        <dc:title></dc:title>
      </cc:Work>
    </rdf:RDF>
  </metadata>
  <defs
     id="defs5129" />
  <sodipodi:namedview
     pagecolor="#ffffff"
     bordercolor="#666666"
     borderopacity="1"
     objecttolerance="10"
     gridtolerance="10"
     guidetolerance="10"
     inkscape:pageopacity="0"
     inkscape:pageshadow="2"
     inkscape:window-width="1360"
     inkscape:window-height="733"
     id="namedview5127"
     showgrid="false"
     fit-margin-top="0"
     fit-margin-left="0"
     fit-margin-right="0"
     fit-margin-bottom="0"
     inkscape:zoom="0.51231964"
     inkscape:cx="364.2653"
     inkscape:cy="379.56969"
     inkscape:window-x="0"
     inkscape:window-y="35"
     inkscape:window-maximized="0"
     inkscape:current-layer="layer2" />
  <g
     inkscape:groupmode="layer"
     id="layer1"
     inkscape:label="2"
     style="display:inline"
     transform="translate(-234.32128,-262.99431)" />
  <g
     inkscape:groupmode="layer"
     id="layer2"
     inkscape:label="3"
     style="display:inline"
     transform="translate(-234.32128,-262.99431)">
    <g
       id="g6090">
      <g
         transform="translate(0,19.51906)"
         id="g5135"
         style="display:inline">
        <path
           inkscape:connector-curvature="0"
           id="path5271"
           d="m 394.98086,760.28156 c 0.0272,-4.05351 4.76071,-5.44667 17.44091,-5.13332"
           style="fill:#d6ad6f" />
        <path
           inkscape:connector-curvature="0"
           id="path5292"
           d="m 412.42177,755.14824 c 16.43083,0.40605 23.48265,-4.77348 28.7339,-21.10489 3.14389,-9.7775 2.97917,-14.54135 -0.28535,-8.25267 -2.34972,4.52643 -12.72435,11.87875 -15.34351,10.87367 -2.2843,-0.87656 -2.25279,-2.21322 0.0983,-4.16435 2.3407,-1.9426 2.39569,-3.62865 0.14651,-4.49175 -0.95066,-0.3648 -4.32813,1.16913 -7.5055,3.40874 -4.41647,3.11302 -6.12202,3.727 -7.24197,2.60705 -1.7909,-1.79084 1.94557,-6.52404 5.15013,-6.52404 1.99156,0 6.32577,-5.91324 6.32577,-8.63036 0,-2.66454 -4.82545,-1.32301 -7.25933,2.01816 -2.17132,2.98075 -2.83598,3.22006 -5.53186,1.99174 -1.86465,-0.84959 -3.75292,-0.95995 -4.82392,-0.28194 -0.96794,0.61276 -3.0036,1.12274 -4.52369,1.13326 -1.5201,0.01 -3.95835,1.28476 -5.41835,2.83164 l -2.65455,2.8125 -3.52704,-4.1875 C 385.47941,721.2911 384.71066,721 377.70289,721 c -5.5195,0 -7.7223,-0.49761 -8.24618,-1.8628 -1.1562,-3.01301 0.52358,-4.34016 4.41229,-3.48606 2.81201,0.61762 3.631,0.35218 3.631,-1.17682 0,-1.50111 -1.32338,-1.97432 -5.52136,-1.97432 -3.03677,0 -8.15008,-1.12679 -11.36293,-2.50399 -3.21286,-1.37719 -6.2129,-2.27447 -6.66675,-1.99397 -0.45386,0.2805 -2.48525,-0.81368 -4.5142,-2.43152 -3.50721,-2.79655 -3.58417,-3.05732 -1.56187,-5.29193 2.83425,-3.13183 2.79906,-5.8285 -0.0604,-4.62658 -3.97085,1.66909 -7.8125,2.15796 -7.8125,0.9942 0,-0.62987 2.80164,-4.49232 6.22588,-8.58322 C 352.84539,680.15471 360,667.05562 360,662.8445 c 0,-1.39611 -0.84375,-3.23864 -1.875,-4.0945 -2.72139,-2.25855 -2.32816,-4.09812 1.70126,-7.95855 2.82178,-2.70342 4.28819,-3.24761 6.95067,-2.57937 2.55145,0.64037 3.9775,0.19954 5.84742,-1.80758 1.36018,-1.45998 3.85737,-2.6545 5.54935,-2.6545 2.40984,0 3.0763,-0.64688 3.0763,-2.98589 0,-2.39553 0.82546,-3.14073 4.17509,-3.76913 7.52556,-1.4118 11.93432,-8.76915 9.80944,-16.36998 -0.8125,-2.90631 -0.0529,-6.76622 3.37612,-17.15644 4.26148,-12.9125 4.36055,-13.62633 2.68928,-19.375 -2.64079,-9.0835 -1.48485,-18.33693 3.71708,-29.75591 l 2.60159,-5.71082 -3.1843,-3.78432 c -1.75136,-2.08137 -3.1843,-4.50906 -3.1843,-5.39485 0,-0.88579 -1.08733,-2.99282 -2.41627,-4.68231 -1.96151,-2.49364 -2.34824,-4.70013 -2.05481,-11.72344 0.20053,-4.79929 -0.2542,-9.66297 -1.02122,-10.9229 -1.11028,-1.82379 -0.89015,-2.64091 1.1173,-4.14742 2.36036,-1.77138 2.37783,-1.96682 0.3125,-3.49918 -3.12892,-2.3215 -2.71856,-3.72386 1.5625,-5.33979 2.72391,-1.02816 3.75,-2.23183 3.75,-4.39905 0,-1.64096 0.62599,-3.60956 1.39109,-4.37466 1.9448,-1.9448 0.26633,-4.10891 -3.1868,-4.10891 -4.05415,0 -5.23922,-2.01833 -6.19859,-10.55708 -0.45926,-4.08765 -2.17174,-10.5564 -3.8055,-14.375 -1.63375,-3.81861 -3.26926,-7.88433 -3.63446,-9.03495 -0.3652,-1.15061 -3.80362,-4.41138 -7.64093,-7.24617 -3.8373,-2.83478 -7.66831,-6.28214 -8.51336,-7.6608 -1.92391,-3.13876 -13.15234,-11.72855 -16.87644,-12.91054 -1.53175,-0.48616 -2.78501,-1.33993 -2.78501,-1.89729 0,-1.90816 -14.36999,-6.19547 -25.98683,-7.75322 -13.51196,-1.81188 -21.20876,-0.46028 -26.28477,4.61574 -1.68811,1.68812 -3.62494,3.06931 -4.30403,3.06931 -0.6791,0 -5.68037,2.00726 -11.11393,4.46059 -8.87882,4.0089 -10.31183,4.31782 -14.15125,3.0507 -2.87121,-0.94759 -5.56123,-3.33249 -8.2036,-7.2731 -3.9024,-5.81968 -11.24394,-21.5573 -8.80466,-37.95916 l 640.35453,29.21668 c 15.36547,10.74698 21.57262,59.24947 19.87099,60.30113 -1.12171,0.69325 -4.27746,14.12663 -5.66115,24.0983 -0.8056,5.8056 -8.64619,24.71145 -11.68149,28.16735 -1.05671,1.20313 -2.56741,2.1875 -3.35711,2.1875 -0.78971,0 -4.41629,1.48523 -8.05905,3.30049 -4.89231,2.43794 -7.70407,4.96966 -10.75904,9.6875 -2.2747,3.51286 -7.5088,9.6928 -11.63133,13.73321 l -7.49553,7.3462 -8.089,-1.60783 c -6.66057,-1.32392 -8.45314,-2.22427 -10.15106,-5.09864 -1.13414,-1.91995 -3.74035,-4.68585 -5.79158,-6.14645 -2.05122,-1.4606 -3.35567,-3.2605 -2.89878,-3.99979 0.58643,-0.94886 -2.0743,-1.03405 -9.0478,-0.28967 -16.00628,1.70855 -41.84055,0.70433 -46.53667,-1.80895 -2.21162,-1.18363 -4.91182,-1.17588 -12.45775,0.0358 -11.87581,1.90687 -14.08788,3.24918 -10.34677,6.27855 2.16907,1.75642 3.37574,1.91486 6.44214,0.84591 2.07522,-0.72343 4.0659,-1.02256 4.42371,-0.66475 0.35782,0.35781 -1.0707,1.02862 -3.17448,1.4907 -2.10377,0.46206 -4.13266,1.33785 -4.50862,1.94619 -0.82324,1.33201 -7.00303,-0.82874 -8.4059,-2.93912 -1.23711,-1.861 -4.68919,2.2834 -4.68919,5.62962 0,1.42775 -0.92139,2.26108 -2.5,2.26108 -1.8872,0 -2.50681,0.8426 -2.5278,3.4375 -0.0153,1.89063 -1.12777,4.84375 -2.4722,6.5625 -4.63647,5.9274 -2.56514,8.51659 2.5,3.125 3.66568,-3.90193 4.24824,-3.89422 6.05911,0.0803 1.27789,2.80464 1.1858,3.16153 -0.73686,2.85559 -3.73259,-0.59391 -10.36915,3.11227 -11.15797,6.23118 -0.40577,1.60435 -0.4075,5.70544 -0.004,9.11352 0.67846,5.72862 0.50431,6.28383 -2.30628,7.35242 -2.06781,0.78617 -4.21336,3.74328 -6.7083,9.24577 -2.01747,4.44945 -5.40461,10.61379 -7.52697,13.69853 -2.12235,3.08473 -4.44969,7.1627 -5.17187,9.06215 -0.72216,1.89945 -2.40631,4.61388 -3.74255,6.03208 -1.33623,1.41819 -3.74997,4.05957 -5.36386,5.86972 -2.36581,2.65352 -4.48736,3.45705 -10.94996,4.14722 -13.52636,1.44455 -19.11633,3.86366 -25.77986,11.15653 -3.81434,4.17458 -6.7372,8.90393 -8.05719,13.03696 -2.07908,6.50982 -1.85978,11.4931 0.50576,11.4931 0.74528,0 0.98169,1.76292 0.57363,4.27749 -0.46523,2.86683 -0.16469,4.48066 0.91128,4.89356 0.88299,0.33882 1.99355,3.5418 2.46792,7.11772 0.66637,5.0234 0.42198,6.98838 -1.07485,8.64237 -2.62818,2.90411 -2.4347,5.40687 0.56268,7.27877 3.45245,2.15609 3.23624,4.55714 -0.3125,3.47034 -1.54687,-0.47374 -3.51562,-0.91434 -4.375,-0.97913 -0.85937,-0.0648 -1.5625,-1.29691 -1.5625,-2.73805 0,-1.51413 -1.18727,-3.14716 -2.8125,-3.86842 -2.00583,-0.89019 -2.7489,-2.20153 -2.59077,-4.57206 0.18009,-2.69969 -0.6415,-3.7285 -4.375,-5.47847 -2.5282,-1.18501 -5.04655,-2.91722 -5.59634,-3.84935 -3.08119,-5.22393 -14.6529,2.76053 -17.00555,11.73382 -2.92101,11.14106 -2.95945,11.57141 -1.0334,11.57141 1.0216,0 2.57749,-0.86759 3.45753,-1.92798 1.1101,-1.33757 1.99908,-1.52897 2.90306,-0.625 1.7617,1.7617 3.29439,1.6427 3.34247,-0.25952 0.0404,-1.59556 5.5346,-8.4375 6.77554,-8.4375 0.37674,0 0.68496,1.37305 0.68496,3.05122 0,1.67818 0.5625,3.39888 1.25,3.82378 2.03307,1.2565 1.43574,2.78485 -1.37577,3.52007 -1.55279,0.40607 -2.26731,1.26665 -1.74856,2.10602 0.48247,0.78063 1.67022,1.11503 2.63945,0.74311 2.41167,-0.92545 9.23488,0.54532 9.23488,1.99062 0,0.64478 -1.21333,0.99634 -2.69631,0.78125 -4.21726,-0.61167 -5.5567,5.0536 -2.86266,12.10784 1.18174,3.09435 2.71331,5.62609 3.4035,5.62609 0.69017,0 1.95016,0.95087 2.79997,2.11305 1.3902,1.90121 1.74863,1.71946 3.5753,-1.81293 1.11662,-2.15928 2.0302,-5.57253 2.0302,-7.585 0,-4.12616 1.60702,-5.87963 6.51823,-7.11227 1.85857,-0.46648 4.03367,-1.6367 4.83356,-2.60049 2.17679,-2.62289 4.32746,-2.12427 5.92078,1.37264 2.79081,6.12517 5.1884,3.07392 6.37468,-8.11268 0.55002,-5.18661 1.262,-6.96438 2.91525,-7.27915 1.51388,-0.28823 2.1875,0.3816 2.1875,2.17518 0,1.82045 0.80158,2.59165 2.69374,2.59165 2.44694,0 2.52183,-0.20041 0.81736,-2.1875 -2.50123,-2.91598 -1.61291,-13.31091 1.05018,-12.28899 2.59766,0.99681 3.45694,-2.48605 1.35406,-5.48832 -1.57844,-2.25354 -1.57379,-3.2911 0.0367,-8.18298 1.03109,-3.13197 2.62514,-5.60221 3.61513,-5.60221 3.2219,0 7.77608,-3.88786 11.0018,-9.39213 3.75651,-6.41001 3.808,-7.12956 1.10813,-15.4892 -2.26073,-6.99996 -1.87307,-8.57153 3.90045,-15.81222 2.45024,-3.07289 3.16869,-3.3657 4.8449,-1.97456 1.08243,0.89833 2.55074,1.27321 3.26292,0.83307 0.71216,-0.44015 2.25342,-0.26382 3.42502,0.39184 1.61446,0.9035 2.97868,0.39126 5.6349,-2.11579 1.92742,-1.81939 3.50455,-4.19271 3.50455,-5.27409 0,-3.58758 14.70291,-13.66697 19.93618,-13.66697 1.1351,0 2.67418,-0.61036 3.4202,-1.35638 0.97516,-0.97516 2.41266,-0.81013 5.11472,0.58715 3.75196,1.94022 3.75502,1.95088 1.79815,6.26824 -1.07812,2.3786 -2.98832,4.59358 -4.24489,4.92218 -1.48303,0.38782 -2.01665,1.29595 -1.52078,2.58813 0.42015,1.09488 0.3285,2.97505 -0.20365,4.17818 -0.53215,1.20312 -1.07933,10.0625 -1.21595,19.6875 -0.28983,20.41893 1.66701,32.85764 5.97443,37.97672 3.19754,3.80006 5.89044,12.41197 9.16139,29.29816 2.89699,14.9556 1.80976,30.32207 -2.68845,37.9977 l -3.16601,5.40238 2.44512,3.41252 c 1.34481,1.87688 3.95548,4.81877 5.80148,6.53752 1.846,1.71875 4.13191,4.97616 5.07981,7.23869 0.9479,2.26253 5.64885,8.16878 10.44655,13.125 4.79769,4.95622 10.0199,10.92728 11.60489,13.26902 3.14186,4.64193 4.88992,5.85373 9.9819,6.91971 4.84415,1.0141 7.76594,4.22478 5.89555,6.47845 -1.83301,2.20864 1.77377,6.71913 5.3729,6.71913 1.29582,0 4.56124,1.125 7.25646,2.5 2.69522,1.375 5.73794,2.5 6.76159,2.5 1.02365,0 3.36282,1.96875 5.19816,4.375 2.82119,3.69878 4.10036,4.375 8.27589,4.375 3.44315,0 6.58961,1.1357 10.38936,3.75 2.99774,2.0625 7.07916,3.75 9.06983,3.75 3.30442,0 9.05517,4.26541 9.05517,6.71636 0,0.51163 -1.66681,3.00663 -3.70402,5.54444 -2.51153,3.12868 -4.30227,7.46209 -5.56224,13.46008 -3.02415,14.3962 -10.59161,40.62107 -13.9044,48.18543 -1.69364,3.86722 -3.07934,9.00742 -3.07934,11.42267 0,16.36343 -20.36996,59.0657 -37.01622,77.59846 -7.48064,8.3284 -20.20693,17.8935 -27.00825,20.2994 -14.44033,5.1082 -44.94936,11.7732 -53.89163,11.7732 -10.92371,0 -12.35521,-0.5362 -37.19848,-13.9346 -20.98615,-11.3182 -26.09188,-13.1796 -40.86301,-14.8974 -18.6056,-2.1638 -30.71746,2.1763 -47.14741,16.8947 -18.60818,16.6697 -22.2649,19.1048 -37.5,24.9719 -5.75159,2.2149 -10.12261,2.9054 -18.75,2.9619 -9.90016,0.065 -12.82858,-0.4844 -24.40639,-4.5763 l 3e-4,-10e-5 c -7.23601,-2.5574 -17.50163,-7.0169 -22.8125,-9.91 -5.31086,-2.8931 -14.01548,-7.6391 -19.34361,-10.5466 -8.02364,-4.3784 -11.29769,-5.4286 -19.0625,-6.1144"
           style="fill:#d6ad6f" />
        <path
           inkscape:connector-curvature="0"
           id="path5265"
           d="m 809.6875,904.7026 c 1.87217,-1.50819 2.06166,-5.49656 0.3125,-6.5776 -2.10413,-1.30043 -1.39154,-4.04641 1.2278,-4.73138 2.13611,-0.55861 2.30648,-1.13892 1.23543,-4.20828 -0.6833,-1.95819 -2.60008,-5.24784 -4.2595,-7.31034 -2.42385,-3.0126 -3.33044,-3.44275 -4.61043,-2.1875 -2.38276,2.3367 -8.37653,1.89045 -14.51389,-1.08059 -6.33465,-3.06656 -7.48546,-2.56207 -5.43697,2.38342 0.93298,2.25243 3.50876,4.55664 6.97757,6.24192 4.54898,2.21006 5.64195,3.43536 6.32843,7.0946 0.60221,3.21005 1.47728,4.42315 3.19067,4.42315 2.52528,0 3.36146,4.23406 1.11089,5.625 -0.6875,0.4249 -1.25,1.34654 -1.25,2.04809 0,1.49425 7.30805,0.19635 9.6875,-1.72049 z"
           style="fill:#d6ad6f" />
        <path
           inkscape:connector-curvature="0"
           id="path5263"
           d="M 620.99166,819.94915 C 622.60077,817.37256 622.09001,815 619.92623,815 c -0.64693,0 -1.17623,1.0125 -1.17623,2.25 0,1.2375 -0.675,2.925 -1.5,3.75 -1.16666,1.16666 -1.0946,1.5 0.32431,1.5 1.00338,0 2.54119,-1.14788 3.41735,-2.55085 z"
           style="fill:#d6ad6f" />
        <path
           inkscape:connector-curvature="0"
           id="path5261"
           d="m 740.08137,817.91096 c 1.5435,-4.0597 1.11798,-6.88755 -1.15004,-7.64277 -1.17115,-0.38998 -1.46535,0.15652 -0.95363,1.77142 0.40704,1.28446 -0.0631,3.88227 -1.04469,5.77289 -1.55662,2.99813 -1.55061,3.4375 0.047,3.4375 1.0075,0 2.40309,-1.50256 3.10132,-3.33904 z"
           style="fill:#d6ad6f" />
        <path
           inkscape:connector-curvature="0"
           id="path5259"
           d="m 735.625,806.25 c -0.4249,-0.6875 -2.28623,-1.21046 -4.13628,-1.16214 -3.00352,0.0785 -3.09601,0.20289 -0.86372,1.16214 3.47278,1.4923 5.9223,1.4923 5,0 z"
           style="fill:#d6ad6f" />
        <path
           inkscape:connector-curvature="0"
           id="path5257"
           d="m 601.25,805 c 0,-0.6875 -0.5625,-1.25 -1.25,-1.25 -0.6875,0 -1.25,0.5625 -1.25,1.25 0,0.6875 0.5625,1.25 1.25,1.25 0.6875,0 1.25,-0.5625 1.25,-1.25 z"
           style="fill:#d6ad6f" />
        <path
           inkscape:connector-curvature="0"
           id="path5255"
           d="m 299.63006,792.08894 c -0.35057,-0.91359 -2.67805,-4.85109 -5.17215,-8.75 -4.21241,-6.58508 -6.95791,-8.87264 -6.95791,-5.79739 0,2.54754 6.26544,13.59387 8.42296,14.85019 3.05256,1.7775 4.46123,1.66243 3.7071,-0.3028 z"
           style="fill:#d6ad6f" />
        <path
           inkscape:connector-curvature="0"
           id="path5253"
           d="m 607.25,778.5 c 2.12545,-2.12545 1.8701,-3.11164 -1,-3.86219 -1.375,-0.35957 -2.5,-0.18992 -2.5,0.37698 0,0.56691 -0.34143,1.9205 -0.75874,3.00797 -0.90707,2.36383 2.04172,2.69426 4.25874,0.47724 z"
           style="fill:#d6ad6f" />
        <path
           inkscape:connector-curvature="0"
           id="path5251"
           d="m 614.30412,768.47186 c 1.07023,-1.52796 1.96377,-4.19984 1.98563,-5.9375 0.0219,-1.73765 0.86563,-4.25125 1.875,-5.58577 2.59566,-3.43177 2.30691,-5.11329 -1.53832,-8.95853 -2.46139,-2.46139 -3.50567,-2.89925 -3.86205,-1.61932 -0.26865,0.96485 -1.28179,3.52677 -2.25142,5.69317 -0.96962,2.1664 -1.76296,6.13203 -1.76296,8.8125 0,2.68048 -0.62599,5.49958 -1.39109,6.26468 -0.76508,0.76508 -1.01315,2.00258 -0.55122,2.75 1.40962,2.28082 5.43915,1.51796 7.49643,-1.41923 z"
           style="fill:#d6ad6f" />
        <path
           inkscape:connector-curvature="0"
           id="path5249"
           d="m 634.72498,762.1875 c 0.70459,-0.85938 1.4766,-2.96875 1.71556,-4.6875 0.33231,-2.3903 -0.17902,-3.21265 -2.17493,-3.49783 -3.93401,-0.56207 -6.21823,2.83647 -4.47618,6.65984 1.56105,3.42613 3.01002,3.87398 4.93555,1.52549 z"
           style="fill:#d6ad6f" />
        <path
           inkscape:connector-curvature="0"
           id="path5247"
           d="m 620,744.47864 c 0,-2.78507 4.78401,-13.22864 6.05979,-13.22864 0.63175,0 1.44282,1.125 1.8024,2.5 1.061,4.0573 3.38781,2.8562 3.38781,-1.74879 0,-3.71251 -0.65255,-4.58892 -5.16995,-6.94352 -6.84089,-3.56568 -9.1126,-2.66333 -8.01565,3.18388 0.60411,3.22022 0.24024,5.37695 -1.30508,7.73539 -1.47316,2.24834 -1.69222,3.4204 -0.70102,3.7508 0.79294,0.26431 1.4417,1.83995 1.4417,3.5014 0,1.66146 0.5625,3.02084 1.25,3.02084 0.6875,0 1.25,-0.79711 1.25,-1.77136 z"
           style="fill:#d6ad6f" />
        <path
           inkscape:connector-curvature="0"
           id="path5245"
           d="m 430.22947,705.34564 c 0.32047,-2.75824 1.30999,-3.65963 5.21375,-4.74932 10.3048,-2.87645 15.66871,-12.41518 19.31393,-34.34632 1.86242,-11.20514 2.18443,-16.98498 1.46024,-26.21094 -0.51099,-6.50977 -0.62129,-12.63799 -0.24513,-13.61826 0.37616,-0.98028 -0.28704,-2.49231 -1.47377,-3.36008 -3.10368,-2.26946 -3.44203,-12.20942 -0.43599,-12.80826 1.66341,-0.33137 2.19661,0.40975 2.22551,3.09339 0.0309,2.86331 0.26505,3.14027 1.24142,1.46799 0.82888,-1.41972 0.62495,-3.17028 -0.65532,-5.625 -1.02228,-1.96012 -1.86217,-4.13165 -1.86641,-4.82565 -0.004,-0.694 -1.14565,-1.97249 -2.53649,-2.84108 -3.07035,-1.91746 -6.90872,-0.26355 -8.10013,3.49028 -0.43904,1.38326 -2.44589,3.36706 -4.45967,4.40842 -2.96425,1.53288 -3.66141,2.70626 -3.66141,6.16251 0,2.34803 0.5732,4.62339 1.27378,5.05637 2.33496,1.4431 7.47622,12.97553 7.47622,16.77006 0,2.05857 -1.01285,4.74915 -2.25077,5.97905 -3.66797,3.64422 -5.99427,8.10577 -7.60054,14.5769 -2.1817,8.78934 -6.51505,16.6485 -13.67959,24.8099 -3.45246,3.93282 -6.64442,8.30759 -7.09324,9.7217 -1.19082,3.75194 2.97089,10.0277 8.77942,13.23914 6.50035,3.59392 6.61196,3.58776 7.0742,-0.3908 z"
           style="fill:#d6ad6f" />
        <path
           inkscape:connector-curvature="0"
           id="path5243"
           d="m 439.64285,682.12226 c -0.34354,-0.89525 0.68051,-5.50592 2.27566,-10.24594 1.59517,-4.74001 2.85472,-10.22118 2.79902,-12.18038 -0.0557,-1.9592 0.52912,-4.19259 1.29962,-4.96309 2.16795,-2.16795 3.34455,2.30535 1.60852,6.1155 -0.79912,1.7539 -1.09772,4.30821 -0.66352,5.67622 0.8371,2.63749 -1.52555,13.0349 -3.55917,15.66293 -1.55693,2.012 -2.97244,1.98745 -3.76013,-0.0652 z"
           style="fill:#d6ad6f" />
        <path
           inkscape:connector-curvature="0"
           id="path5241"
           d="m 645.625,695 c 0.4249,-0.6875 0.21004,-1.25 -0.47746,-1.25 -0.6875,0 -1.59764,0.5625 -2.02254,1.25 -0.4249,0.6875 -0.21004,1.25 0.47746,1.25 0.6875,0 1.59764,-0.5625 2.02254,-1.25 z"
           style="fill:#d6ad6f" />
        <path
           inkscape:connector-curvature="0"
           id="path5239"
           d="m 713.04523,677.10975 c 1.32548,-3.75025 0.46723,-5.26574 -2.36632,-4.1784 -2.38045,0.91346 -2.74113,8.79667 -0.36641,8.00817 0.85937,-0.28535 2.0891,-2.00874 2.73273,-3.82977 z"
           style="fill:#d6ad6f" />
        <path
           inkscape:connector-curvature="0"
           id="path5237"
           d="m 721.58496,666.25 c 1.17732,-1.375 2.91397,-2.5 3.85923,-2.5 0.94526,0 3.12826,-1.10879 4.8511,-2.46398 3.11717,-2.45197 3.14331,-2.45197 5.36231,0 2.2818,2.52135 5.5924,3.33251 5.5924,1.37023 0,-4.84584 -1.83385,-8.78176 -4.39065,-9.42349 -1.57779,-0.396 -5.73535,-2.98595 -9.23902,-5.75545 -6.13474,-4.84922 -8.22537,-5.44359 -4.66322,-1.32574 0.93892,1.08539 2.07463,3.5203 2.52382,5.41093 0.68277,2.8738 0.40796,3.4375 -1.67587,3.4375 -2.09891,0 -2.37495,0.58806 -1.74785,3.72355 0.63833,3.19163 0.27674,3.90146 -2.53125,4.96905 -3.2479,1.23485 -4.04807,2.61861 -2.44262,4.22406 1.32874,1.32874 2.21915,0.99908 4.50162,-1.66666 z"
           style="fill:#d6ad6f" />
        <path
           inkscape:connector-curvature="0"
           id="path5235"
           d="m 718.75,657.42622 c 0,-0.64692 -0.84375,-1.17622 -1.875,-1.17622 -1.93301,0 -2.48338,1.47495 -1.07565,2.88269 0.99866,0.99866 2.95065,-0.13024 2.95065,-1.70647 z"
           style="fill:#d6ad6f" />
        <path
           inkscape:connector-curvature="0"
           id="path5233"
           d="m 433.75575,632.48925 c 1.02379,-1.91295 0.73664,-4.54918 -1.20602,-11.07226 C 431.14737,616.70815 430,611.2729 430,609.33866 c 0,-1.93425 -0.80839,-4.41006 -1.79641,-5.50182 -2.89993,-3.20438 -1.13389,-12.48512 2.64951,-13.92357 2.53431,-0.96353 2.78977,-1.52778 1.65322,-3.65146 -0.73936,-1.3815 -2.26893,-2.51181 -3.39906,-2.51181 -1.13012,0 -3.92246,-0.67536 -6.2052,-1.50081 -6.04198,-2.18482 -7.69796,-0.103 -4.79096,6.02309 1.72398,3.633 1.90184,5.16994 0.80205,6.93098 -0.77724,1.24455 -1.41315,3.18308 -1.41315,4.30784 0,1.69047 0.3303,1.77089 1.90521,0.46382 2.58637,-2.14648 3.57537,-0.80797 2.51538,3.40437 -1.74824,6.94737 -1.5861,26.54199 0.2412,29.15082 2.39204,3.41512 9.75827,3.38915 11.59396,-0.0409 z"
           style="fill:#d6ad6f" />
        <path
           inkscape:connector-curvature="0"
           id="path5231"
           d="m 454.89861,589.75524 c -0.79855,-1.92789 -2.00635,-3.50524 -2.684,-3.50524 -0.70169,0 -0.82346,0.94169 -0.28287,2.1875 0.52207,1.20312 1.22228,4.15261 1.55603,6.55443 0.58129,4.18318 0.65428,4.23862 1.73479,1.31772 0.73251,-1.98015 0.61894,-4.2781 -0.32395,-6.55441 z"
           style="fill:#d6ad6f" />
        <path
           inkscape:connector-curvature="0"
           id="path5229"
           d="m 443.75,571.94877 c 0,-1.87646 -2.24418,-3.87127 -3.23759,-2.87785 -0.87185,0.87184 0.85421,4.67908 2.12133,4.67908 0.61394,0 1.11626,-0.81055 1.11626,-1.80123 z"
           style="fill:#d6ad6f" />
        <path
           inkscape:connector-curvature="0"
           id="path5227"
           d="m 433.58504,557.3902 c -1.60094,-4.78763 -3.18357,-6.95835 -4.2764,-5.8655 -0.40318,0.40317 0.47044,3.09205 1.94136,5.9753 3.11441,6.10475 4.39301,6.04462 2.33504,-0.10975 z"
           style="fill:#d6ad6f" />
        <path
           inkscape:connector-curvature="0"
           id="path5225"
           d="m 421.37086,541.44059 c 0.74363,-2.13318 3.0967,-4.53379 5.87248,-5.99115 4.17568,-2.19234 4.66821,-2.98749 5.00291,-8.07698 0.28595,-4.34826 -0.51341,-7.35137 -3.47931,-13.07135 C 424.37549,505.83182 413.00252,492.5 410.16909,492.5 c -1.61568,0 -1.59339,0.23165 0.15038,1.5625 1.92175,1.46667 4.37518,7.15384 7.37949,17.10599 0.71287,2.36142 2.17935,5.64148 3.25887,7.28904 1.6975,2.59069 1.74673,3.86872 0.36435,9.45651 -0.87912,3.55352 -2.39673,7.73232 -3.37246,9.2862 -1.32437,2.10911 -1.43663,3.4557 -0.44291,5.3125 1.77507,3.31673 2.39394,3.14501 3.86405,-1.07215 z"
           style="fill:#d6ad6f" />
        <path
           inkscape:connector-curvature="0"
           id="path5223"
           d="m 536.70925,394.72385 c 5.40884,0.17194 11.81724,-0.23491 14.2409,-0.90411 2.97631,-0.8218 5.21094,-0.7863 6.8845,0.10937 1.70639,0.91323 3.30486,0.92742 5.1341,0.0456 1.46094,-0.70429 6.78402,-1.57689 11.82909,-1.93913 7.75765,-0.55699 9.62871,-1.15051 12.12781,-3.84707 3.56241,-3.84392 5.06669,-4.01479 5.94012,-0.67477 0.62223,2.3794 1.32922,2.46968 13.23188,1.68965 8.40878,-0.55106 13.11894,-0.37223 14.21786,0.53979 0.96845,0.80374 2.35209,0.92581 3.36914,0.29724 0.94919,-0.58664 3.59131,-0.76388 5.87136,-0.39388 2.59205,0.42064 5.20862,-0.0237 6.98228,-1.18578 2.98423,-1.95516 6.67028,-0.91275 8.85103,2.50306 0.55788,0.87384 1.54127,1.26313 2.18532,0.86509 0.64403,-0.39804 2.39781,0.13561 3.89729,1.18587 2.56671,1.7978 2.85847,1.69227 4.98382,-1.80257 1.24163,-2.0417 3.10953,-3.71218 4.15088,-3.71218 1.0948,0 1.89337,-1.11589 1.89337,-2.64572 0,-2.15793 0.58432,-2.53402 3.16926,-2.03988 3.74146,0.71523 5.7775,-2.10238 4.82325,-6.67481 -2.0838,-9.98495 -3.53356,-12.60128 -8.64132,-15.59463 -2.85772,-1.67478 -5.56829,-3.04502 -6.02352,-3.04502 -1.55893,0 -0.82904,3.44274 1.06274,5.01279 1.43789,1.19333 1.55087,1.97805 0.47195,3.27806 -2.20489,2.65673 -4.79824,2.04217 -8.61236,-2.04085 -3.94694,-4.22521 -5,-4.60926 -5,-1.82346 0,1.59401 -1.24056,1.80445 -7.1875,1.21926 -10.66493,-1.04946 -15.3125,-2.04733 -15.3125,-3.28767 0,-1.57623 -7.16802,-1.37376 -10.27734,0.29029 -2.15075,1.15106 -2.96544,0.9558 -4.60532,-1.1037 -3.08505,-3.87443 -6.31443,-4.98227 -15.11734,-5.18601 -4.46875,-0.10337 -12.625,-0.75671 -18.125,-1.45176 -33.53971,-4.23848 -55.68785,-3.82884 -67.5,1.24847 -6.01969,2.58749 -12.841,5.08024 -16.25,5.93833 -1.375,0.3461 -4.1875,1.37102 -6.25,2.2776 -10.62226,4.66904 -14.4228,5.87779 -16.26196,5.17203 -1.11178,-0.42663 -3.64534,0.0641 -5.63015,1.09047 -1.9848,1.02638 -4.72255,1.86615 -6.08388,1.86615 -1.61512,0 -2.61392,0.97724 -2.87457,2.8125 -0.26024,1.83235 -1.40505,2.95504 -3.285,3.22151 -3.34337,0.4739 -3.33905,4.17568 0.005,4.66487 1.16592,0.17053 3.87965,2.31435 6.0305,4.76403 3.05327,3.47749 4.78872,4.42095 7.91581,4.3034 2.20285,-0.0827 5.36849,0.57905 7.03475,1.4708 2.20964,1.18257 3.15851,1.23457 3.50599,0.19214 0.63682,-1.91047 5.62442,-1.82281 7.58101,0.13325 1.07284,1.07255 6.23366,1.56908 16.45846,1.58346 10.29095,0.0145 15.38259,0.50802 16.47108,1.5965 1.11044,1.11044 3.24445,1.2941 7.22904,0.62215 3.10942,-0.52436 10.07891,-0.8127 15.48775,-0.64076 z"
           style="fill:#d6ad6f" />
        <path
           inkscape:connector-curvature="0"
           id="path5221"
           d="m 638.4375,322.88834 c -1.45483,-0.38018 -2.1875,-1.79696 -2.1875,-4.22999 0,-2.41854 -0.63544,-3.65835 -1.875,-3.65835 -1.03125,0 -1.875,0.94009 -1.875,2.08907 0,2.80684 3.65927,6.6957 6.13124,6.51593 1.62015,-0.11787 1.58385,-0.25213 -0.19374,-0.71666 z"
           style="fill:#d6ad6f" />
        <path
           inkscape:connector-curvature="0"
           id="path5219"
           d="m 627.5,318.67622 c 0,-2.04287 -0.89045,-2.42622 -5.63559,-2.42622 -5.27848,0 -5.53894,0.15477 -4.11021,2.44253 1.39339,2.23117 6.53025,3.88789 8.8083,2.84083 0.51563,-0.237 0.9375,-1.52271 0.9375,-2.85714 z"
           style="fill:#d6ad6f" />
        <path
           inkscape:connector-curvature="0"
           id="path5217"
           d="m 531.23086,318.4375 c -0.01,-0.85938 -0.54961,-2.40155 -1.19795,-3.42705 -0.91645,-1.44956 -1.51245,-1.53091 -2.67789,-0.36548 -1.16542,1.16543 -1.14295,1.92818 0.101,3.42705 1.93147,2.32727 3.80108,2.50828 3.77483,0.36548 z"
           style="fill:#d6ad6f" />
        <path
           inkscape:connector-curvature="0"
           id="path5215"
           d="m 609.375,317.70834 c 0,-2.26083 -2.44662,-1.84809 -2.93188,0.4946 -0.26998,1.30338 0.1986,1.87482 1.25,1.52435 0.92503,-0.30834 1.68188,-1.21688 1.68188,-2.01895 z"
           style="fill:#d6ad6f" />
        <path
           inkscape:connector-curvature="0"
           id="path5213"
           d="m 649.5,315.5 c -0.55464,-1.44536 -1.24863,-1.75138 -2.08196,-0.91804 -0.6875,0.6875 -0.87561,2.22561 -0.41804,3.41804 0.55464,1.44536 1.24863,1.75138 2.08196,0.91804 0.6875,-0.6875 0.87561,-2.22561 0.41804,-3.41804 z"
           style="fill:#d6ad6f" />
        <path
           inkscape:connector-curvature="0"
           id="path5211"
           d="m 552.5,317.60224 c 0,-2.78727 -1.69268,-5.10224 -3.73068,-5.10224 -2.70584,0 -5.53311,3.1574 -4.42816,4.94525 0.99323,1.60706 8.15884,1.74495 8.15884,0.15699 z"
           style="fill:#d6ad6f" />
        <path
           inkscape:connector-curvature="0"
           id="path5209"
           d="m 571.25,316.875 c 0,-1.03125 -0.5293,-1.875 -1.17623,-1.875 -1.57622,0 -2.70512,1.95199 -1.70646,2.95065 1.40774,1.40773 2.88269,0.85736 2.88269,-1.07565 z"
           style="fill:#d6ad6f" />
        <path
           inkscape:connector-curvature="0"
           id="path5207"
           d="m 592.1875,317.1875 c -0.28646,-0.85938 -1.83334,-1.5625 -3.4375,-1.5625 -1.60416,0 -3.15104,0.70312 -3.4375,1.5625 -0.34356,1.0307 0.82639,1.5625 3.4375,1.5625 2.61111,0 3.78106,-0.5318 3.4375,-1.5625 z"
           style="fill:#d6ad6f" />
        <path
           inkscape:connector-curvature="0"
           id="path5205"
           d="m 560,314.9055 c 0,-0.59237 -0.84375,-0.75326 -1.875,-0.35754 -1.03125,0.39574 -1.875,1.20418 -1.875,1.79654 0,0.59237 0.84375,0.75326 1.875,0.35754 1.03125,-0.39574 1.875,-1.20418 1.875,-1.79654 z"
           style="fill:#d6ad6f" />
        <path
           inkscape:connector-curvature="0"
           id="path5203"
           d="m 659.375,315 c 0.4249,-0.6875 -0.35246,-1.25 -1.72746,-1.25 -1.375,0 -2.84764,0.5625 -3.27254,1.25 -0.4249,0.6875 0.35246,1.25 1.72746,1.25 1.375,0 2.84764,-0.5625 3.27254,-1.25 z"
           style="fill:#d6ad6f" />
        <path
           inkscape:connector-curvature="0"
           id="path5201"
           d="m 353.75,761.5 c 0,-1.2375 -0.64386,-2.89386 -1.4308,-3.6808 -1.07441,-1.07441 -0.52953,-1.61608 2.1875,-2.17457 1.99006,-0.40908 5.21498,-1.56763 7.16646,-2.57458 1.9515,-1.00694 4.04435,-1.52415 4.6508,-1.14934 0.60644,0.3748 2.7787,-0.18529 4.82725,-1.24462 3.92253,-2.02842 11.34879,-2.63128 11.34879,-0.9213 0,2.54666 -8.9511,9.25511 -15.34999,11.50413 C 358.10947,764.43641 353.75,764.51485 353.75,761.5 Z"
           style="fill:#d6ad6f" />
        <path
           inkscape:connector-curvature="0"
           id="path5199"
           d="M 331.25,742.51123 C 319.89519,741.55884 315,740.38189 315,738.60421 c 0,-0.60731 0.45258,-1.10421 1.00572,-1.10421 0.55315,0 3.19665,-2.0068 5.87444,-4.45956 3.64564,-3.33928 4.45181,-4.71724 3.20914,-5.48525 -0.91277,-0.56413 -1.27308,-1.65106 -0.80067,-2.41544 1.38093,-2.2344 3.21137,-1.60159 3.21137,1.11025 0,3.17988 3.03087,3.21912 6.1701,0.0799 2.06419,-2.06419 2.89991,-2.20207 5.68267,-0.9375 2.8251,1.2838 3.16304,2.02952 2.5202,5.56142 -0.89153,4.8983 1.22283,6.20455 6.86139,4.23894 3.25671,-1.1353 3.76564,-1.01591 3.76564,0.88335 0,6.37554 -4.76309,7.81794 -21.25,6.43511 z"
           style="fill:#d6ad6f" />
        <path
           inkscape:connector-curvature="0"
           id="path5197"
           d="m 346.25,716.25 c 0,-4.1611 0.55084,-4.39595 4.7923,-2.04314 l 2.9173,1.61828 -3.18581,2.08742 C 346.51666,720.70194 346.25,720.60394 346.25,716.25 Z"
           style="fill:#d6ad6f" />
        <path
           inkscape:connector-curvature="0"
           id="path5195"
           d="m 666.875,716.25 c 0.4249,-0.6875 1.0206,-1.25 1.32378,-1.25 0.30317,0 0.55122,0.5625 0.55122,1.25 0,0.6875 -0.5957,1.25 -1.32378,1.25 -0.72807,0 -0.97612,-0.5625 -0.55122,-1.25 z"
           style="fill:#d6ad6f" />
        <path
           inkscape:connector-curvature="0"
           id="path5193"
           d="m 662.5,673.38029 c 0,-2.84593 1.35908,-5.88029 2.63374,-5.88029 1.8232,0 1.26873,4.56735 -0.75874,6.25 -1.52868,1.26869 -1.875,1.2004 -1.875,-0.36971 z"
           style="fill:#d6ad6f" />
        <path
           inkscape:connector-curvature="0"
           id="path5191"
           d="m 716.8236,629.91684 c -0.45316,-0.73324 -0.52379,-1.63331 -0.15694,-2.00018 0.8954,-0.89538 3.33334,0.68229 3.33334,2.15712 0,1.59746 -2.15801,1.49083 -3.1764,-0.15694 z"
           style="fill:#d6ad6f" />
        <path
           inkscape:connector-curvature="0"
           id="path5189"
           d="m 766.875,572.5 c 0.4249,-0.6875 1.0206,-1.25 1.32378,-1.25 0.30317,0 0.55122,0.5625 0.55122,1.25 0,0.6875 -0.5957,1.25 -1.32378,1.25 -0.72807,0 -0.97612,-0.5625 -0.55122,-1.25 z"
           style="fill:#d6ad6f" />
        <path
           inkscape:connector-curvature="0"
           id="path5187"
           d="m 772.1875,569.06749 c -2.47986,-0.56773 -3.02175,-4.07772 -0.625,-4.04835 0.85937,0.01 2.40155,0.54961 3.42705,1.19795 2.33772,1.47796 0.2922,3.55879 -2.80205,2.8504 z"
           style="fill:#d6ad6f" />
        <path
           inkscape:connector-curvature="0"
           id="path5185"
           d="m 743.75,563.125 c 0,-4.18005 0.48424,-5.625 1.8851,-5.625 1.43237,0 1.83399,1.35089 1.67232,5.625 -0.14212,3.75768 -0.76792,5.625 -1.88508,5.625 -1.1487,0 -1.67234,-1.7613 -1.67234,-5.625 z"
           style="fill:#d6ad6f" />
        <path
           inkscape:connector-curvature="0"
           id="path5183"
           d="m 779.6875,563.2785 c -4.08789,-3.26724 -4.34039,-4.5285 -0.90656,-4.5285 1.58497,0 2.99965,1.2328 3.78497,3.29836 1.64856,4.33605 1.23094,4.51453 -2.87841,1.23014 z"
           style="fill:#d6ad6f" />
        <path
           inkscape:connector-curvature="0"
           id="path5141"
           d="m 771.25,551.25 c 0,-0.6875 1.26562,-1.24139 2.8125,-1.23086 2.2743,0.0155 2.4537,0.25102 0.9375,1.23086 -2.42345,1.56615 -3.75,1.56615 -3.75,0 z"
           style="fill:#d6ad6f" />
      </g>
      <path
         sodipodi:nodetypes="csscssscsssscssssssssssssssccssssscsssssssssssssssscsssssssscssscsssssssscssssssssssssssssssssssssssssscssssscssscssscssssssscsssssssssssscssssssssssssccssscssssssscscscssssssscscssssssssssssssssssssssssssssssssscsscsssssssssssssssssssssssssssssssssssssssssssssssssssscssssssssssssscscsssssssscsscssscsccssssssssssssssssssssssssssssssssssssssssssssssssssssssssssssssssssssssssssssssssssssssssssssscsssssssssssssssssssssssssscssccsssssssssscssssssscssccsssssssscsscsscsssssscsssssssscsccssssssssssscssssssssssssssssscssccsscsssscsssssssssssssssscssssssssssssssssssssscscccsssssssssssssssssscssssssssssscssccssssssssssssssscscscccsscssscssssssssssssssssssssssssssssssssssccccsccsssssssssssssssssssssssssssssssssscsssssssccssssscsssssccccsssssssssssssscsccssssssssscccccccsccsscssssccssssscsssssssssccsccssscsssssccssss"
         inkscape:connector-curvature="0"
         id="path5139"
         d="m 532.5,1058.8792 c -1.03125,-0.5746 -4.16559,-1.3919 -6.9652,-1.8162 -7.28927,-1.1047 -20.51316,-6.8296 -34.66074,-15.0054 -21.11353,-12.2014 -23.13769,-13.0189 -32.12406,-12.9742 -9.49328,0.047 -25.42368,-5.419 -45,-15.4409 -12.66762,-6.485 -27.94663,-17.91534 -27.15672,-20.31608 1.22232,-3.71503 9.27545,-2.05415 18.86203,3.89015 2.65668,1.6473 7.01605,3.76623 9.6875,4.70883 7.09302,2.5025 6.38354,0.1912 -3.31331,-10.79417 -10.11275,-11.45657 -14.43892,-18.56777 -13.49405,-22.18098 0.49603,-1.89681 0.13793,-2.70025 -1.20354,-2.70025 -3.23618,0 -8.17738,-7.15762 -9.07545,-13.14631 -0.46471,-3.09894 -1.34252,-5.94197 -1.9507,-6.31783 C 384.5459,945.82181 384.72436,940 386.31379,940 c 0.72257,0 2.13637,1.96875 3.14177,4.375 1.21937,2.91836 2.65476,4.375 4.31121,4.375 2.88241,0 3.41279,-3.92241 0.82124,-6.07321 -0.97467,-0.80891 -1.43626,-2.91731 -1.11617,-5.09826 0.36947,-2.51737 -0.30515,-4.80077 -2.08802,-7.0673 -3.2774,-4.16655 -3.30223,-5.76885 -0.13382,-8.63623 1.38402,-1.25253 2.5,-3.84996 2.5,-5.81874 0,-4.01131 0.29726,-4.17245 3.73576,-2.02506 4.19801,2.6217 5.41985,-0.19669 3.15214,-7.27099 -1.08168,-3.37437 -2.51146,-7.11195 -3.17729,-8.30575 -1.78819,-3.2061 -1.48114,-4.6989 0.97689,-4.74941 1.70889,-0.0351 1.40962,-0.6813 -1.36778,-2.95337 -3.03271,-2.48093 -3.35423,-3.3011 -2.1875,-5.58004 0.75228,-1.4694 1.85154,-3.66291 2.44279,-4.87449 1.26125,-2.58444 -0.0679,-6.74742 -3.57951,-11.21179 -1.37253,-1.74487 -2.4955,-4.17856 -2.4955,-5.40818 0,-1.22963 -1.91158,-4.73998 -4.24794,-7.80079 -10.30836,-13.50469 -13.49337,-23.13691 -9.34465,-28.26036 2.96626,-3.6632 2.0085,-5.08239 -1.36785,-2.02683 -2.18944,1.98141 -2.94929,2.04885 -6.57016,0.58316 -5.41014,-2.18995 -14.62666,-10.03612 -14.67841,-12.49595 -0.0225,-1.07172 -0.86685,-3.04047 -1.87624,-4.375 -2.50676,-3.31423 -2.37431,-7.72726 0.27275,-9.0877 1.20312,-0.61833 4.63341,-1.43577 7.62286,-1.81651 6.39685,-0.81472 9.15938,-3.13959 18.64014,-15.687 3.80869,-5.04064 8.38626,-9.72041 10.1724,-10.3995 5.00701,-1.90366 7.6271,-4.86507 7.6271,-8.6207 0,-4.07484 1.78974,-4.94 10.21926,-4.94 5.21354,0 6.37449,0.41951 6.91855,2.5 0.99275,3.79626 4.11629,3.0426 12.41423,-2.99536 8.95313,-6.51473 14.90716,-13.39732 16.84405,-19.47099 0.77326,-2.42475 1.90046,-4.94302 2.50491,-5.59615 0.60445,-0.65312 1.099,-4.34071 1.099,-8.19465 0,-5.53282 -0.66634,-7.91301 -3.16695,-11.3125 -1.74183,-2.36794 -4.41075,-4.61126 -5.93094,-4.98516 -3.58374,-0.88143 -4.52121,-4.94519 -1.14082,-4.94519 3.047,0 12.19122,-9.0029 15.17031,-14.93585 5.70443,-11.3606 8.01601,-30.558 9.03855,-75.06415 0.0695,-3.02286 -2.11944,-18.91405 -3.40562,-24.72456 -0.34692,-1.56726 -2.07573,-4.09852 -3.84178,-5.625 -3.76489,-3.25416 -6.72275,-8.51847 -6.72275,-11.96489 0,-1.46199 -1.75219,-3.47242 -4.37516,-5.02003 -2.58315,-1.52408 -5.21405,-4.51858 -6.42326,-7.31096 -1.12645,-2.60126 -2.63299,-6.00511 -3.34787,-7.56411 -0.72006,-1.57032 -3.0122,-3.27829 -5.13923,-3.82946 -5.99269,-1.55287 -5.30139,-6.23078 1.47302,-9.96777 l 5.3125,-2.93053 0,-7.51574 c 0,-6.24926 -0.7273,-8.81379 -4.31609,-15.21885 -2.37385,-4.2367 -6.87142,-10.5156 -9.9946,-13.9531 -3.12318,-3.4375 -5.68095,-6.60481 -5.68391,-7.03846 -0.005,-0.77774 -11.24374,-6.52668 -15.13062,-7.73998 -1.31223,-0.40961 -2.26492,-2.70487 -2.76974,-6.67297 -1.13891,-8.95219 -1.64925,-10.85098 -4.50504,-16.76178 -1.43,-2.95976 -2.6,-6.04362 -2.6,-6.85302 0,-2.64999 -5.14001,-8.0794 -9.99219,-10.5548 -2.61573,-1.33445 -5.92848,-4.27189 -7.36168,-6.52763 -1.43319,-2.25575 -5.66959,-6.35136 -9.41423,-9.10136 -3.74464,-2.75 -6.98809,-6.125 -7.20767,-7.5 -0.2776,-1.7384 -1.42002,-2.53806 -3.75005,-2.62495 -1.84297,-0.0687 -4.93672,-0.72309 -6.875,-1.45415 -4.40315,-1.66071 -16.00649,-3.73586 -26.64918,-4.76597 -12.06529,-1.1678 -21.9897,1.79453 -31.775,9.4845 -9.90891,7.78711 -12.8651,8.94288 -17.65401,6.90213 -8.258,-3.51903 -11.19723,-10.20972 -9.28339,-21.13211 1.97221,-11.2556 2.10638,-11.50573 6.97198,-12.99902 4.36506,-1.33968 4.45242,-1.30029 3.70661,1.67127 -0.56949,2.26901 -0.25795,3.0433 1.22445,3.0433 1.38,0 1.86681,-0.92685 1.59127,-3.02956 -0.24933,-1.90268 0.74519,-4.24539 2.67372,-6.2982 3.0389,-3.23477 3.04355,-3.27575 0.44876,-3.9543 -5.38058,-1.40705 -6.41791,-22.6022 -1.20411,-24.60293 3.18721,-1.22305 4.74737,0.95239 3.33922,4.65609 -1.39716,3.67484 -0.67527,6.26937 1.38934,4.99337 0.69085,-0.42697 2.90416,-0.89041 4.91846,-1.02986 2.09416,-0.14499 5.39983,-1.87995 7.72003,-4.05185 2.23172,-2.08906 6.12236,-5.32372 8.64586,-7.18815 3.96011,-2.9258 4.93444,-3.1736 7.11757,-1.81021 2.11495,1.32081 2.9154,1.2303 4.88524,-0.55239 1.29573,-1.1726 3.03234,-2.13201 3.85916,-2.13201 0.82682,0 1.82722,-0.84411 2.22312,-1.8758 0.3959,-1.03169 3.33136,-3.11235 6.52326,-4.6237 8.15556,-3.8616 8.65896,-3.97352 5.53855,-1.23149 -2.61179,2.2951 -2.64483,2.53833 -0.59645,4.39209 2.36364,2.13906 4.34042,1.44249 5.60081,-1.9736 0.4439,-1.20313 1.62249,-2.1875 2.61909,-2.1875 0.9966,0 2.7785,-0.37089 3.95979,-0.82419 1.51957,-0.58311 1.96071,-0.3089 1.50818,0.9375 -0.35178,0.96893 0.75167,3.25634 2.45213,5.08315 l 3.09174,3.32145 5.18981,-2.3565 c 2.8544,-1.29607 6.37694,-2.36886 7.82787,-2.38396 1.45094,-0.0151 4.7103,-1.4337 7.24302,-3.15245 6.15997,-4.18026 8.9845,-3.98596 11.45315,0.78787 1.97623,3.82162 2.18306,3.8964 8.86843,3.2064 3.76475,-0.38855 7.59527,-1.32912 8.51224,-2.09015 0.91699,-0.76102 6.48911,-1.72396 12.3825,-2.13987 9.41334,-0.6643 10.8157,-0.49444 11.54191,1.39804 0.45465,1.18482 2.15619,2.65971 3.78116,3.27752 1.62499,0.61783 2.93582,1.84036 2.91294,2.71675 -0.0651,2.49488 -4.08197,6.70101 -8.66067,9.06875 -3.89714,2.01529 -4.25612,2.01984 -5.34855,0.0678 -1.08254,-1.93437 -1.30134,-1.9206 -2.89535,0.18221 -0.94839,1.25109 -1.74221,3.13373 -1.76409,4.18364 -0.0633,3.03504 -7.11979,10.04878 -9.27721,9.22089 -1.51825,-0.58261 -1.60541,-1.19065 -0.43853,-3.05913 1.99243,-3.19038 0.21505,-4.571 -2.60227,-2.02136 -1.26148,1.14163 -3.1935,2.07568 -4.29338,2.07568 -2.12542,0 -5.92836,3.20741 -5.92836,5 0,0.58928 0.89839,1.96981 1.99641,3.06783 1.26077,1.26078 1.6495,2.79063 1.05498,4.15179 -1.11938,2.56278 -1.5472,10.39093 -0.66334,12.13738 0.34294,0.6776 0.47021,3.01142 0.28284,5.18626 -0.42911,4.98067 0.76339,5.70327 6.50441,3.9413 4.08379,-1.25335 4.90491,-1.11013 7.47431,1.3037 1.58759,1.49145 3.54863,2.71174 4.35787,2.71174 0.80923,0 2.17391,1.125 3.03261,2.5 0.8587,1.375 2.88166,2.5 4.49546,2.5 2.73069,0 2.8756,-0.34679 2.08945,-5 -0.69329,-4.10357 -0.48584,-5 1.15709,-5 2.44911,0 7.05172,2.50897 8.93516,4.87073 0.7657,0.96015 3.30819,1.92673 5.64996,2.14793 2.34179,0.22121 6.86971,0.75312 10.06208,1.18204 3.63555,0.48846 6.8699,0.20955 8.65622,-0.74647 3.38718,-1.81276 23.29369,-1.81808 25.47613,-0.006 0.99724,0.82764 2.30099,0.65897 3.97622,-0.51441 1.61977,-1.13452 3.1218,-1.3476 4.28981,-0.60854 2.7251,1.72432 4.92233,1.39828 4.92233,-0.7304 0,-2.23942 4.88429,-4.34406 10.08137,-4.34406 2.83529,0 3.66863,0.56788 3.66863,2.5 0,2.8702 1.90464,3.35449 2.90811,0.73944 0.4502,-1.17319 3.74624,-2.0483 9.87944,-2.62303 7.43121,-0.69636 10.15561,-0.43818 14.14565,1.34048 2.71799,1.21161 8.59805,2.60601 13.0668,3.09866 4.46875,0.49265 9.39062,1.3098 10.9375,1.81588 2.28405,0.74726 2.8125,0.45177 2.8125,-1.57258 0,-3.55867 3.1353,-5.72415 6.91444,-4.77565 2.0105,0.5046 4.49621,0.0349 6.69805,-1.26581 3.26183,-1.92681 3.72003,-1.92475 6.70358,0.0301 2.11083,1.38308 3.48008,1.64908 4.01695,0.7804 1.07265,-1.73558 6.00888,-1.67808 9.94614,0.11588 2.29368,1.04507 3.59606,1.06092 4.80393,0.0585 0.91142,-0.75641 2.7562,-1.3207 4.09952,-1.25399 1.34331,0.0668 4.60144,-0.31277 7.24029,-0.84331 4.54885,-0.91454 4.77795,-0.81033 4.41356,2.00771 -0.67832,5.24599 1.11359,6.39393 5.23005,3.3505 2.02591,-1.49782 3.68349,-3.38329 3.68349,-4.18991 0,-1.82285 5.88025,-0.88256 9.34064,1.49362 1.35609,0.93122 5.12501,1.69312 8.37538,1.69312 4.30155,0 6.23893,0.5882 7.11938,2.16149 1.13331,2.02511 1.35591,2.0291 3.52816,0.0632 1.59548,-1.44388 2.89438,-1.73411 4.16499,-0.93062 1.01555,0.64219 3.32902,1.17624 5.14106,1.18676 1.81204,0.01 4.90579,0.85943 6.875,1.88644 1.96921,1.02701 4.45548,1.87076 5.52504,1.875 1.06956,0.004 3.85071,1.41395 6.18035,3.1327 2.32964,1.71875 4.86189,3.125 5.62723,3.125 1.59067,0 8.7049,-9.67653 9.91322,-13.48361 0.9358,-2.94844 4.35886,-4.61708 6.03438,-2.94157 0.70903,0.70904 0.60726,2.18354 -0.26293,3.80953 -2.13342,3.98634 1.7367,4.96037 5.53416,1.39284 1.63288,-1.53402 3.54825,-2.43104 4.25638,-1.99339 0.70813,0.43765 3.21545,-0.01 5.57181,-0.99436 3.3401,-1.39559 4.68359,-2.98838 6.09606,-7.22727 1.36524,-4.09715 2.48224,-5.47226 4.53223,-5.57956 3.04406,-0.15991 8.94746,-5.88157 8.94746,-8.67261 0,-0.99583 1.125,-1.8106 2.5,-1.8106 1.94795,0 2.5,-0.83334 2.5,-3.77381 0,-3.40123 0.30854,-3.69638 3.125,-2.98949 3.53422,0.88702 4.13342,-0.84367 1.14949,-3.32012 -1.15217,-0.9562 -1.74539,-2.84342 -1.42334,-4.52805 0.3498,-1.82988 -0.0484,-2.88853 -1.08648,-2.88853 -0.90125,0 -4.48831,-2.10937 -7.97126,-4.6875 -5.91247,-4.37649 -6.12399,-4.71374 -3.18802,-5.08302 4.37142,-0.54984 4.05757,-4.23904 -0.7013,-8.24337 -4.35333,-3.66307 -5.05563,-3.83457 -7.14534,-1.74486 -1.155,1.155 -0.88143,2.14038 1.21326,4.37008 1.48749,1.58335 2.28401,3.29931 1.77008,3.81324 -0.51394,0.51394 -2.43804,-0.83821 -4.27577,-3.00477 -6.23997,-7.35655 -16.10913,-9.41229 -21.70006,-4.52009 -1.27046,1.11169 -2.76116,1.43515 -3.75,0.81369 -0.90269,-0.56732 -4.37505,-1.9632 -7.71635,-3.10194 -5.25336,-1.7904 -6.52141,-1.83756 -9.375,-0.34866 -4.33181,2.26021 -7.67491,2.20019 -7.67491,-0.1378 0,-2.48303 -1.23556,-2.37257 -3.17816,0.28409 -3.68265,5.03633 -18.00109,0.52646 -19.76689,-6.22598 -0.86846,-3.32096 2.59952,-8.43311 5.72086,-8.43311 1.36856,0 4.1838,1.42668 6.25609,3.17039 2.07229,1.74371 5.38786,4.00816 7.36795,5.0321 3.20724,1.65852 3.60015,1.65357 3.60015,-0.0454 0,-1.0489 -0.5625,-1.9071 -1.25,-1.9071 -1.51229,0 -1.61466,-3.7395 -0.16496,-6.02589 0.84406,-1.33121 2.55941,-1.37659 8.85856,-0.23434 6.68129,1.21155 8.12415,1.13389 9.97004,-0.53661 1.44062,-1.30375 4.59685,-1.95316 9.4926,-1.95316 5.89721,0 8.2705,0.64873 12.11171,3.31069 6.51063,4.51187 7.76775,2.44721 1.71129,-2.81055 -3.11866,-2.70739 -4.16634,-4.25014 -2.88628,-4.25014 1.10523,0 2.3663,0.57732 2.80239,1.28294 0.4361,0.70561 3.42241,1.22253 6.63627,1.14871 10.8623,-0.24949 24.04852,3.11072 36.20713,9.22657 6.38757,3.21298 12.57507,5.84864 13.75,5.85704 1.17494,0.009 6.63047,1.97714 12.12341,4.375 5.49294,2.39785 10.51324,4.35974 11.1562,4.35974 1.88643,0 22.03026,10.06442 29.16914,14.57372 3.60937,2.27988 6.5625,5.02145 6.5625,6.09239 0,1.52619 0.89258,1.77973 4.12839,1.17268 3.56395,-0.6686 4.85622,-0.12088 9.45173,4.00586 12.40526,11.13988 26.67263,26.03535 33.03617,34.4905 8.50569,11.30141 30.72392,54.40016 31.6944,61.48052 1.78203,13.00143 -8.54053,51.61869 -14.56069,54.4723 -1.03125,0.48883 -4.48286,2.0481 -7.67026,3.46505 -3.3967,1.51 -7.53554,4.77466 -10,7.88785 -2.3126,2.92137 -6.5281,7.74778 -9.36778,10.72535 -4.4144,4.62882 -5.59251,5.25523 -8.125,4.32022 -1.62907,-0.60147 -3.16066,-2.1551 -3.40351,-3.45252 -0.5718,-3.05483 -3.71931,-6.55898 -7.77546,-8.65651 -4.12592,-2.13358 -17.09918,-1.60908 -31.15799,1.25972 -12.53137,2.55712 -18.19836,2.53219 -27.48641,-0.12088 -20.16367,-5.75957 -44.6679,-0.40264 -50.75738,11.09622 -1.00122,1.89063 -2.64971,3.4375 -3.66331,3.4375 -1.0136,0 -1.8429,1.07837 -1.8429,2.39637 0,1.31801 -1.02526,4.83363 -2.27838,7.8125 -1.2531,2.97887 -3.03122,9.63488 -3.95138,14.79113 -0.92017,5.15625 -3.83239,14.07148 -6.47163,19.81162 -2.63924,5.74015 -4.79861,10.84167 -4.79861,11.33675 0,0.49506 -2.25,3.9158 -5,7.60163 -2.75,3.68584 -5,7.36025 -5,8.16537 0,0.80512 -1.6875,3.22966 -3.75,5.38786 -2.0625,2.15821 -3.75,4.50556 -3.75,5.21634 0,1.81857 -4.64838,3.37377 -12.58324,4.20993 -12.85871,1.35504 -17.55041,3.40828 -24.61086,10.7705 -6.81066,7.10179 -11.5559,16.8433 -11.5559,23.72316 0,4.24252 -1.81574,5.69693 -6.49896,5.2057 -2.23379,-0.23432 -4.13657,0.55621 -5.62575,2.33726 -1.23767,1.48022 -4.89069,4.04444 -8.11784,5.69824 -6.45314,3.30698 -12.2873,10.6818 -14.78139,18.68475 -0.8529,2.73676 -1.97857,11.16342 -2.5015,18.72592 -1.2425,17.96916 -2.66671,23.75905 -6.94197,28.22146 -3.47843,3.63069 -3.52676,3.89544 -3.91163,21.42419 -0.21432,9.76144 -0.94797,18.30636 -1.63032,18.98871 -0.68235,0.68235 -1.24064,2.01517 -1.24064,2.96179 0,2.03091 -6.70729,9.02885 -8.65385,9.02885 -0.74038,0 -1.34615,1.83536 -1.34615,4.07859 0,3.00776 0.72781,4.40255 2.77208,5.3125 1.52463,0.67865 4.58181,3.76516 6.79372,6.85891 2.21191,3.09375 6.02699,7.93648 8.47792,10.76161 2.45096,2.82514 4.49363,5.91889 4.53927,6.875 0.13587,2.84625 7.91837,12.77546 12.38471,15.80089 4.34019,2.93996 13.94881,3.8558 17.41719,1.6601 2.47548,-1.56715 7.61511,1.03337 7.61511,3.85305 0,1.26464 -0.54805,2.29935 -1.2179,2.29935 -2.05354,0 -5.27901,7.59604 -4.51614,10.63558 0.68321,2.72216 3.2404,5.99471 13.23404,16.93626 l 4.375,4.78997 12.47469,-1.29186 c 10.72942,-1.11113 13.46755,-0.99125 19.5714,0.85685 5.48613,1.66107 7.95082,1.85096 10.86027,0.83673 3.164,-1.10298 4.10945,-0.92978 5.93484,1.08725 1.1942,1.31957 2.80619,2.39922 3.58219,2.39922 1.61382,0 12.61712,6.77193 20.2176,12.44284 5.73307,4.27758 26.17186,12.97087 36.73401,15.62419 7.60349,1.91006 26.01101,3.92227 46.5132,5.08457 11.73692,0.66539 14.09016,0.44849 19.07957,-1.75856 3.14844,-1.39271 6.25509,-3.80224 6.95305,-5.3928 1.12242,-2.55788 1.17935,-2.46579 0.51582,0.83437 -0.41023,2.04029 -2.05123,6.54029 -3.64667,10 -1.59543,3.45972 -3.56377,8.39193 -4.37407,10.96048 -0.81031,2.56855 -1.93099,4.95296 -2.49039,5.2987 -0.55941,0.34572 -1.41236,2.73547 -1.89545,5.31055 l -0.87834,4.68195 -1.71906,-3.10565 c -0.94549,-1.7081 -1.73901,-5.04626 -1.76336,-7.41814 -0.0706,-6.87651 -2.32735,-2.91621 -3.64661,6.39939 -0.64512,4.55539 -1.78602,9.42806 -2.53532,10.82815 -1.96466,3.67099 -1.73012,4.09988 1.76263,3.22326 1.71875,-0.43137 3.125,-0.44276 3.125,-0.0252 0,0.41745 -1.96875,4.62211 -4.375,9.3437 -2.40625,4.72159 -4.375,9.0941 -4.375,9.7167 0,0.6226 -1.60924,3.08829 -3.57608,5.47937 -1.96685,2.391 -5.02948,7.2203 -6.80586,10.7318 -3.47111,6.8615 -13.55239,16.7583 -20.87735,20.4952 -6.84341,3.4913 -48.27676,13.7462 -55.50709,13.7383 -9.65426,-0.01 -14.55063,-1.8304 -37.00121,-13.7524 -23.18346,-12.3111 -29.86539,-14.6884 -44.31789,-15.7678 -17.76913,-1.327 -29.95981,3.183 -44.69661,16.536 -16.82574,15.2457 -29.92705,24.18 -35.60561,24.2809 -1.23051,0.022 -3.32919,0.8656 -4.66371,1.875 -2.69614,2.0393 -24.81529,2.5997 -28.19859,0.7145 z M 466.25,968.125 c 0,-1.03125 -0.84375,-1.875 -1.875,-1.875 -1.95196,0 -2.47996,1.47837 -1.04166,2.91666 1.43828,1.4383 2.91666,0.9103 2.91666,-1.04166 z M 600,967.5 c 0,-0.6875 -0.24805,-1.25 -0.55123,-1.25 -0.30317,0 -0.89887,0.5625 -1.32377,1.25 -0.4249,0.6875 -0.17685,1.25 0.55123,1.25 0.72807,0 1.32377,-0.5625 1.32377,-1.25 z m 45.05297,-6.69702 c -1.669,-1.66901 -4.46773,0.86015 -3.20777,2.89881 0.64849,1.04927 1.35129,1.02628 2.69406,-0.0881 1.26038,-1.04601 1.41769,-1.90672 0.51371,-2.81071 z M 401.25,960.625 c 0,-1.03125 -0.84375,-1.875 -1.875,-1.875 -1.95196,0 -2.47996,1.47837 -1.04166,2.91666 1.43828,1.4383 2.91666,0.9103 2.91666,-1.04166 z m 260,-0.625 c 0,-0.6875 -0.5293,-1.25 -1.17622,-1.25 -0.64693,0 -1.52388,0.5625 -1.94878,1.25 -0.4249,0.6875 0.10437,1.25 1.17622,1.25 1.07183,0 1.94878,-0.5625 1.94878,-1.25 z m -185.625,-5.08705 c 0,-0.96454 -0.98438,-1.94329 -2.1875,-2.17499 -2.15468,-0.41495 -3.04542,2.23744 -1.32813,3.95475 1.31027,1.31025 3.51563,0.19381 3.51563,-1.77976 z m -72.43269,-9.80404 c -1.21639,-1.96816 -4.44231,-1.66903 -4.44231,0.41193 0,2.10175 2.67241,3.32991 4.20359,1.93182 0.59321,-0.54165 0.70065,-1.59634 0.23872,-2.34375 z M 477.5,939.375 c 0,-1.03125 -0.84375,-1.875 -1.875,-1.875 -1.03125,0 -1.875,0.84375 -1.875,1.875 0,1.03125 0.84375,1.875 1.875,1.875 1.03125,0 1.875,-0.84375 1.875,-1.875 z m 67.5,0.69878 c 0,-0.64693 -0.5625,-1.52388 -1.25,-1.94878 -0.6875,-0.4249 -1.25,0.10437 -1.25,1.17622 0,1.07183 0.5625,1.94878 1.25,1.94878 0.6875,0 1.25,-0.5293 1.25,-1.17622 z m -123.75,-2.42073 c 0,-1.57564 -3.66935,-4.40038 -4.55962,-3.51009 -1.28008,1.28008 0.63029,4.60704 2.64539,4.60704 1.05283,0 1.91423,-0.49363 1.91423,-1.09695 z m -16.84116,-3.9578 c 1.14769,-1.85699 -1.74715,-4.92884 -3.87523,-4.11221 -2.19987,0.84417 -2.33914,3.73447 -0.22111,4.58911 2.4841,1.00236 3.23622,0.91479 4.09634,-0.4769 z m 97.5,-3.75 c 1.17145,-1.89544 -2.00368,-5.35041 -3.52184,-3.83225 -1.40189,1.40189 -0.31124,5.137 1.5,5.137 0.6685,0 1.57832,-0.58714 2.02184,-1.30475 z M 610,923.75 c 0,-0.6875 -0.5625,-1.25 -1.25,-1.25 -0.6875,0 -1.25,0.5625 -1.25,1.25 0,0.6875 0.5625,1.25 1.25,1.25 0.6875,0 1.25,-0.5625 1.25,-1.25 z m -165,-0.55122 c 0,-0.30318 -0.5625,-0.89888 -1.25,-1.32378 -0.6875,-0.4249 -1.25,-0.17685 -1.25,0.55122 0,0.72808 0.5625,1.32378 1.25,1.32378 0.6875,0 1.25,-0.24805 1.25,-0.55122 z m -31.25,-2.47154 c 0,-2.2594 -1.92385,-4.47724 -3.88374,-4.47724 -2.30009,0 -3.2144,2.4852 -1.53292,4.16666 0.90479,0.9048 5.41666,1.16349 5.41666,0.31058 z m 153.75,-5.2064 c 0,-1.08855 -0.66797,-1.75651 -1.48438,-1.48438 -2.31777,0.77259 -2.7022,3.46354 -0.49478,3.46354 1.08853,0 1.97916,-0.89063 1.97916,-1.97916 z m -150,-3.3677 C 417.5,909.64822 413.79872,905 411.80412,905 c -2.35331,0 -2.29409,2.49419 0.14176,5.97186 2.11448,3.01886 5.55412,3.75041 5.55412,1.18128 z m 125,-8.40314 c 0,-0.6875 -0.84375,-1.25 -1.875,-1.25 -1.03125,0 -1.875,0.5625 -1.875,1.25 0,0.6875 0.84375,1.25 1.875,1.25 1.03125,0 1.875,-0.5625 1.875,-1.25 z m -133.75,-2.34695 c 0,-2.81513 -3.11785,-5.69129 -4.94525,-4.56189 -1.45666,0.90028 -1.75838,4.78855 -0.47141,6.0755 1.7946,1.79462 5.41666,0.78248 5.41666,-1.51361 z m 155,-4.52805 c 0,-1.03125 -0.81055,-1.875 -1.80123,-1.875 -2.08831,0 -3.49801,1.7841 -2.33146,2.95065 1.49395,1.49395 4.13269,0.80714 4.13269,-1.07565 z M 422.13972,890.45759 C 422.73754,888.66192 419.14511,885 416.78571,885 c -2.18861,0 -2.35106,3.93465 -0.24922,6.03649 1.79042,1.79042 4.92215,1.46687 5.60323,-0.5789 z M 453.75,887.125 c 0,-1.80119 -2.44223,-4.625 -4,-4.625 -1.20784,0 -1.33845,4.24489 -0.16666,5.41666 1.43106,1.43108 4.16666,0.91131 4.16666,-0.79166 z m 30.60904,-9.59916 c 1.09223,-1.76728 -1.62189,-6.27584 -3.77802,-6.27584 -1.85117,0 -2.60788,5.05647 -0.99768,6.66666 1.23096,1.23097 3.90881,1.01182 4.7757,-0.39082 z m -33.73404,-4.505 c 0,-1.53289 -1.01303,-2.53972 -2.8125,-2.79528 -3.09913,-0.44015 -3.80521,2.03173 -1.29688,4.54006 2.05274,2.05274 4.10938,1.17952 4.10938,-1.74478 z m -14.68691,0.41666 c -0.78754,-2.36524 -4.68809,-2.7015 -4.68809,-0.40415 0,1.15954 1.06875,1.96665 2.60416,1.96665 1.52748,0 2.38908,-0.64603 2.08393,-1.5625 z M 565,865 c 0,-0.6875 -0.87695,-1.25 -1.94877,-1.25 -1.07183,0 -1.60113,0.5625 -1.17623,1.25 0.4249,0.6875 1.30185,1.25 1.94877,1.25 C 564.4707,866.25 565,865.6875 565,865 Z m -7.5,-4.46665 c 0,-1.16405 -0.85046,-1.80172 -2.08391,-1.5625 -3.13597,0.60819 -3.56657,3.52915 -0.52025,3.52915 1.53541,0 2.60416,-0.80711 2.60416,-1.96665 z m -154.40317,-6.73776 c 0.97039,-1.57015 -4.07227,-6.61282 -5.64242,-5.64241 -1.92024,1.18677 -1.39737,4.11021 0.98309,5.4967 2.77685,1.61736 3.73134,1.64722 4.65933,0.14571 z m 98.53169,-1.90347 c 0.13557,-0.67808 -0.7379,-1.42246 -1.94102,-1.65416 -1.36825,-0.2635 -2.1875,0.34959 -2.1875,1.63704 0,2.17474 3.69413,2.19005 4.12852,0.0171 z M 553.75,848.125 c 0,-1.03125 -0.84375,-1.875 -1.875,-1.875 -1.03125,0 -1.875,0.84375 -1.875,1.875 0,1.03125 0.84375,1.875 1.875,1.875 1.03125,0 1.875,-0.84375 1.875,-1.875 z M 442.5,846.44374 c 0,-3.05907 -4.40795,-6.9384 -6.82844,-6.00958 -2.77224,1.06381 -2.36185,4.11569 0.85658,6.36996 3.70397,2.59437 5.97186,2.45752 5.97186,-0.36038 z m 97.28666,-1.88412 c 0.31803,-1.65135 -0.19494,-2.16431 -1.84628,-1.84628 -1.25767,0.2422 -2.48484,1.46937 -2.72704,2.72704 -0.31803,1.65135 0.19493,2.16431 1.84629,1.84628 1.25766,-0.2422 2.48483,-1.46937 2.72703,-2.72704 z m -115.4992,0.58202 c 0.94085,-1.52234 -2.61876,-4.29795 -4.23271,-3.30048 -2.21385,1.36824 -1.44041,4.40884 1.12148,4.40884 1.33442,0 2.73448,-0.49876 3.11123,-1.10836 z m 138.34229,-1.76189 c -1.60436,-1.60436 -3.23131,-0.36438 -2.04355,1.55747 0.4601,0.74446 1.40919,0.99964 2.10909,0.56708 0.85375,-0.52765 0.83218,-1.22682 -0.0655,-2.12455 z M 473.75,838.71077 c 0,-2.94825 -3.30569,-4.65508 -5.25,-2.71077 -1.94431,1.94431 -0.23747,5.25 2.71077,5.25 1.71897,0 2.53923,-0.82026 2.53923,-2.53923 z m -35.45096,-6.83857 c 1.2431,-3.23944 -0.66247,-8.1222 -3.1698,-8.1222 -3.73255,0 -5.79478,3.2917 -3.71979,5.9375 3.46416,4.41715 5.75425,5.14335 6.88959,2.1847 z M 571.25,827.05123 c 0,-1.54068 0.56033,-3.36156 1.24518,-4.04641 0.82688,-0.82688 0.40698,-2.8892 -1.25,-6.13929 l -2.49518,-4.89413 0,4.0143 c 0,3.58534 -0.40072,4.03434 -3.75,4.2018 -2.0625,0.10313 -4.45313,0.24375 -5.3125,0.3125 -0.95271,0.0762 -1.4705,-1.21767 -1.32678,-3.31539 0.20267,-2.95785 -0.0811,-3.27083 -2.02314,-2.23148 -1.24238,0.6649 -2.61408,0.85371 -3.04823,0.41956 -1.32941,-1.32943 -0.87771,-6.03433 0.73409,-7.64613 1.19791,-1.19791 0.70162,-1.35907 -2.32263,-0.75422 -4.26193,0.85239 -5.22445,-0.77248 -5.61112,-9.47234 l -0.19445,-4.375 -0.76013,5 c -0.72819,4.79001 -0.95912,5.00541 -5.49898,5.12878 -6.5931,0.17915 -10.58013,2.6565 -12.20654,7.58457 -1.16165,3.51983 -1.00503,4.85706 0.96556,8.24398 1.9232,3.30548 3.25273,4.11856 7.29098,4.45883 2.96942,0.2502 6.50273,-0.42113 8.86062,-1.68353 3.67528,-1.96774 4.12455,-1.96683 7.1486,0.0146 2.28548,1.4975 5.15269,1.98864 9.82825,1.68354 l 6.6014,-0.43079 0.39346,4.08623 c 0.43135,4.47963 2.73154,4.3449 2.73154,-0.16 z m -38.65927,-9.09481 c -3.10418,-3.94631 -3.12073,-4.14347 -0.64486,-7.67828 2.36008,-3.36949 6.92273,-3.60017 9.73539,-0.49222 2.88073,3.18317 2.58032,7.214 -0.7094,9.5182 -3.85525,2.70033 -5.39125,2.45334 -8.38113,-1.3477 z M 387.5,817.35624 c 0,-1.6789 -1.42868,-1.332 -3.96408,0.9625 -3.36373,3.04413 -2.78183,4.56382 0.83908,2.19131 1.71875,-1.12616 3.125,-2.54539 3.125,-3.15381 z M 584.375,821.25 c 0.98359,-1.59149 -1.91235,-1.59149 -4.375,0 -1.52435,0.98511 -1.36281,1.2153 0.86373,1.23086 1.5063,0.01 3.08637,-0.54336 3.51127,-1.23086 z M 448.06018,817.6049 C 449.39546,815.44435 446.38476,810 443.85471,810 c -3.57092,0 -4.35778,2.17102 -2.05863,5.67998 2.03908,3.11205 4.97317,4.01367 6.2641,1.92492 z m -52.49854,-8.51551 c 0.33544,-0.87416 -0.2162,-1.58939 -1.22587,-1.58939 -1.00967,0 -1.83577,-0.75346 -1.83577,-1.67435 0,-2.0183 -5.8798,-4.93591 -6.83441,-3.39131 -1.2216,1.97659 0.8091,5.07442 3.82212,5.83065 2.48664,0.6241 2.75344,1.13304 1.66255,3.17137 -1.18459,2.21344 -1.07405,2.28723 1.25103,0.83519 1.40273,-0.87602 2.8249,-2.308 3.16035,-3.18216 z m 168.88067,-2.73048 C 563.98039,805.61151 562.51616,805 561.18846,805 c -2.28934,0 -2.30411,0.12833 -0.28625,2.48502 2.13991,2.49924 5.18253,1.53138 3.5401,-1.12611 z m -63.88301,0.23657 c 0.96781,-2.52209 -2.39981,-5.52009 -5.0558,-4.50089 -2.1495,0.82483 -2.2636,3.14531 -0.2535,5.15541 2.13024,2.13024 4.34547,1.85714 5.3093,-0.65453 z M 583.75,805 c -1.5725,-2.93825 -1.36415,-2.90088 -5.85613,-1.05036 l -3.51887,1.44965 3.75,0.90246 c 6.58069,1.58369 7.10437,1.4625 5.625,-1.30175 z m -182.73438,-1.17188 c 0.3125,-0.9375 -0.15625,-1.40625 -1.09375,-1.09375 -0.90235,0.30079 -1.88671,1.28517 -2.1875,2.1875 -0.3125,0.9375 0.15625,1.40625 1.09375,1.09375 0.90234,-0.30078 1.88672,-1.28516 2.1875,-2.1875 z m 54.81459,-0.78715 c 1.13752,-2.96429 -1.52851,-5.05494 -3.91765,-3.07215 -1.48052,1.22873 -1.60555,2.01995 -0.52492,3.32203 1.87185,2.25544 3.5167,2.16292 4.44257,-0.24988 z m 84.86893,-9.17102 c -1.36609,-2.21036 -4.44914,-1.57165 -4.44914,0.92171 0,1.26043 0.38839,2.68007 0.8631,3.15477 1.27555,1.27555 4.57541,-2.47562 3.58604,-4.07648 z m 4.0753,-11.07023 C 545.03934,780.94299 544.52787,780 543.25591,780 c -2.14157,0 -4.88218,4.20705 -3.58539,5.50386 1.65447,1.65447 4.71329,0.0339 5.10392,-2.70414 z m -91.6156,-0.35447 c 1.0083,-1.63146 -1.62981,-4.94525 -3.93689,-4.94525 -1.75689,0 -2.3979,3.90739 -0.88861,5.41666 1.259,1.25902 3.9165,0.99939 4.8255,-0.47141 z M 501.25,759.375 c 0,-1.03125 -0.84375,-1.875 -1.875,-1.875 -1.03125,0 -1.875,0.84375 -1.875,1.875 0,1.03125 0.84375,1.875 1.875,1.875 1.03125,0 1.875,-0.84375 1.875,-1.875 z m 57.5,-5.625 c 0,-0.6875 -0.84375,-1.25 -1.875,-1.25 -1.03125,0 -1.875,0.5625 -1.875,1.25 0,0.6875 0.84375,1.25 1.875,1.25 1.03125,0 1.875,-0.5625 1.875,-1.25 z M 525,750.625 c 0,-1.03125 -0.84375,-1.875 -1.875,-1.875 -1.03125,0 -1.875,0.84375 -1.875,1.875 0,1.03125 0.84375,1.875 1.875,1.875 1.03125,0 1.875,-0.84375 1.875,-1.875 z m 36.25,-65 c 0,-1.03125 -0.84375,-1.875 -1.875,-1.875 -1.03125,0 -1.875,0.84375 -1.875,1.875 0,1.03125 0.84375,1.875 1.875,1.875 1.03125,0 1.875,-0.84375 1.875,-1.875 z m -29.36954,-0.63383 c 0.42789,-0.69236 -0.12567,-1.6056 -1.23015,-2.02942 -2.3933,-0.9184 -3.72714,0.0936 -2.57671,1.95509 1.03797,1.67947 2.79364,1.71376 3.80686,0.0744 z m -3.68132,-18.86112 c 1.34066,-2.16924 -2.8487,-5.73049 -4.63724,-3.94195 -1.10793,1.10793 -1.07348,1.91679 0.14414,3.38393 1.88561,2.27202 3.32342,2.45058 4.4931,0.55802 z M 581.25,661.17622 C 581.25,660.5293 580.40625,660 579.375,660 c -1.93301,0 -2.48338,1.47495 -1.07565,2.88269 0.99866,0.99866 2.95065,-0.13024 2.95065,-1.70647 z M 563.75,581.875 c 0,-1.03125 -0.5625,-1.875 -1.25,-1.875 -0.6875,0 -1.25,0.84375 -1.25,1.875 0,1.03125 0.5625,1.875 1.25,1.875 0.6875,0 1.25,-0.84375 1.25,-1.875 z m 51.01204,-4.0625 c -0.50742,-2.6348 -2.72585,-2.46866 -3.29119,0.24648 -0.23581,1.13247 0.45324,1.94102 1.65415,1.94102 1.28745,0 1.90054,-0.81925 1.63704,-2.1875 z M 693.75,559.50874 c 0,-0.2702 -0.84375,-0.81504 -1.875,-1.21078 -1.03125,-0.39572 -1.875,-0.17465 -1.875,0.49126 0,0.66593 0.84375,1.21078 1.875,1.21078 1.03125,0 1.875,-0.22107 1.875,-0.49126 z m -64.46254,-23.1171 c 1.13627,-1.8385 -2.92165,-4.50745 -4.48152,-2.94758 -0.73597,0.73596 -0.96018,1.94962 -0.49825,2.69703 1.01249,1.63823 4.02836,1.78997 4.97977,0.25055 z M 612.5,515.625 c 0,-1.03125 -0.84375,-1.875 -1.875,-1.875 -1.95196,0 -2.47996,1.47838 -1.04166,2.91666 1.43828,1.4383 2.91666,0.9103 2.91666,-1.04166 z m -109.18135,-3.80391 c 0.94318,-2.45785 -0.1729,-3.58637 -2.61866,-2.64783 -1.09861,0.42158 -1.59495,1.54748 -1.17018,2.65443 0.9476,2.4694 2.83998,2.46611 3.78884,-0.006 z M 712.5,509.89584 c 0,-3.04631 -2.92096,-2.61572 -3.52915,0.52025 -0.23922,1.23345 0.39845,2.08391 1.5625,2.08391 1.15954,0 1.96665,-1.06875 1.96665,-2.60416 z M 796.25,507.5 c 0,-0.6875 -0.5625,-1.25 -1.25,-1.25 -0.6875,0 -1.25,0.5625 -1.25,1.25 0,0.6875 0.5625,1.25 1.25,1.25 0.6875,0 1.25,-0.5625 1.25,-1.25 z m -98.4375,-8.125 c -0.46131,-1.84523 -4.38937,-1.51938 -5.03506,0.41769 -0.38112,1.14332 0.37218,1.53635 2.39583,1.25 1.62345,-0.22973 2.8111,-0.98019 2.63923,-1.66769 z M 564.73526,488.90089 c -0.57972,-3.04419 -5.98526,-3.44713 -5.98526,-0.44617 0,3.17508 0.90365,3.90181 3.88291,3.1227 1.44502,-0.37787 2.3264,-1.5 2.10235,-2.67653 z m -21.29794,-0.88023 c -1.19118,-1.1912 -3.57936,0.73825 -2.69162,2.17463 0.52765,0.85375 1.22683,0.83218 2.12455,-0.0655 0.73595,-0.73595 0.99114,-1.68504 0.56707,-2.10909 z m 357.9533,-25.88004 C 900.36979,461.11979 900,461.25968 900,462.66666 c 0,2.48483 1.68088,4.1657 2.30209,2.30209 0.26353,-0.79062 -0.14663,-2.06329 -0.91147,-2.82813 z m -63.23178,-8.44537 c 0.8671,-1.40299 -1.5052,-4.94525 -3.31189,-4.94525 -1.28079,0 -1.48496,4.19533 -0.26361,5.41666 1.21186,1.21188 2.65257,1.02193 3.5755,-0.47141 z M 565,449.44877 c 0,-0.30317 -0.5625,-0.89887 -1.25,-1.32377 -0.6875,-0.4249 -1.25,-0.17685 -1.25,0.55123 0,0.72807 0.5625,1.32377 1.25,1.32377 0.6875,0 1.25,-0.24805 1.25,-0.55123 z M 540.93775,432.8655 c 1.75519,-3.77933 0.56584,-5.83838 -2.97813,-5.15588 -2.43788,0.4695 -3.63587,3.7251 -2.47957,6.73839 1.09569,2.85531 3.75479,2.08429 5.4577,-1.58251 z M 858.75,419.44877 c 0,-0.30317 -0.5625,-0.89887 -1.25,-1.32377 -0.6875,-0.4249 -1.25,-0.17685 -1.25,0.55123 0,0.72807 0.5625,1.32377 1.25,1.32377 0.6875,0 1.25,-0.24805 1.25,-0.55123 z M 512.5,417.5 c 0,-0.6875 -0.5625,-1.25 -1.25,-1.25 -0.6875,0 -1.25,0.5625 -1.25,1.25 0,0.6875 0.5625,1.25 1.25,1.25 0.6875,0 1.25,-0.5625 1.25,-1.25 z m 86.25,0 c 0,-0.6875 -0.5625,-1.25 -1.25,-1.25 -0.6875,0 -1.25,0.5625 -1.25,1.25 0,0.6875 0.5625,1.25 1.25,1.25 0.6875,0 1.25,-0.5625 1.25,-1.25 z M 750,411.66226 c 0,-1.87775 -5.8593,-7.91226 -7.68253,-7.91226 -0.58711,0 -1.06747,1.93685 -1.06747,4.30412 0,5.05701 4.26344,9.11329 7.10231,6.75723 0.90623,-0.7521 1.64769,-2.1692 1.64769,-3.14909 z m -347.72085,0.42165 C 402.51299,410.8782 401.88561,410 400.79043,410 c -2.32217,0 -3.7237,2.03769 -2.62466,3.81599 1.13068,1.82945 3.62648,0.77851 4.11338,-1.73208 z m 208.24361,2.15735 c 2.50707,-0.96205 2.53669,-3.47085 0.0653,-5.52199 -1.52871,-1.26871 -2.59292,-1.27658 -5.30843,-0.0394 l -3.39642,1.54751 2.94692,2.38628 c 3.35343,2.71545 3.06931,2.63422 5.69271,1.62752 z M 769.375,406.25 c 0.4249,-0.6875 -0.10437,-1.25 -1.17622,-1.25 -1.07183,0 -1.94878,0.5625 -1.94878,1.25 0,0.6875 0.5293,1.25 1.17622,1.25 0.64693,0 1.52388,-0.5625 1.94878,-1.25 z m -34.91076,-6.21424 c 0.66782,-0.66782 2.60845,-1.43717 4.3125,-1.70965 2.23324,-0.35711 2.97785,-1.15234 2.66699,-2.84827 -0.96142,-5.24496 -5.19312,-7.41624 -5.19462,-2.66534 -6.6e-4,2.13701 -0.7707,2.85701 -3.20615,2.99782 -4.18187,0.24178 -5.00946,1.19519 -3.06804,3.53447 1.84031,2.21742 2.81314,2.36715 4.48932,0.69097 z M 350,370 c 0,-0.6875 -0.5625,-1.25 -1.25,-1.25 -0.6875,0 -1.25,0.5625 -1.25,1.25 0,0.6875 0.5625,1.25 1.25,1.25 0.6875,0 1.25,-0.5625 1.25,-1.25 z m 379.81274,-31.79238 c 0.54704,-2.88029 -2.89595,-5.70762 -6.95047,-5.70762 -2.54028,0 -2.80553,0.43663 -2.08826,3.4375 1.21318,5.07557 1.64639,5.49242 5.27085,5.07164 2.09599,-0.24334 3.47704,-1.27019 3.76788,-2.80152 z m -70.52528,-3.34926 C 658.22232,333.13494 655,333.55454 655,335.41666 c 0,0.91668 0.37013,2.03679 0.82249,2.48916 1.13041,1.13042 4.31566,-1.67102 3.46497,-3.04746 z M 678.75,336.875 c 0,-1.03125 -0.84375,-1.875 -1.875,-1.875 -1.95196,0 -2.47996,1.47838 -1.04166,2.91666 1.43829,1.4383 2.91666,0.9103 2.91666,-1.04166 z M 706.25,335 c -1.29694,-2.42335 -4.98136,-3.35196 -6.65583,-1.67751 -1.43172,1.43172 1.84012,4.17751 4.97787,4.17751 2.62857,0 2.84408,-0.32109 1.67796,-2.5 z m 147.13425,554.21759 c -1.07475,-1.07475 0.31546,-10.68963 1.77558,-12.28009 0.5996,-0.65312 1.09017,-3.00059 1.09017,-5.21659 0,-2.47401 1.20614,-5.46251 3.125,-7.74295 1.71875,-2.04262 3.125,-4.52327 3.125,-5.51257 0,-2.47685 1.16713,-3.41873 3.24721,-2.62053 2.2944,0.88045 2.25288,4.0417 -0.0648,4.93107 -2.5787,0.98953 -6.47305,9.80488 -8.2165,18.59907 -1.6525,8.33546 -2.80637,11.1179 -4.08169,9.84259 z M 326.6474,801.5625 C 321.01454,794.86536 318.1204,790 319.76949,790 c 4.06196,0 8.90215,3.17966 11.27972,7.40998 2.73033,4.85796 3.58408,10.09002 1.64646,10.09002 -0.57988,0 -3.30161,-2.67188 -6.04827,-5.9375 z m -76.18305,-47.81842 c -3.32394,-2.74674 -6.40746,-4.99408 -6.85229,-4.99408 -0.44481,0 -1.50796,-1.68801 -2.36252,-3.75113 -1.94588,-4.69775 -0.2982,-7.09506 5.64239,-8.20952 5.15958,-0.96794 8.3301,0.007 13.11482,4.03314 4.355,3.6645 4.75885,5.42751 1.24325,5.42751 -2.63045,0 -2.88346,0.7029 -2.54175,7.06126 0.11637,2.16494 -0.33114,4.27165 -0.99441,4.68158 -0.66328,0.40992 -3.92554,-1.50202 -7.24949,-4.24877 z M 235.2518,743.43094 c -1.16511,-1.4057 -1.22984,-2.20148 -0.22934,-2.81983 1.85053,-1.14368 2.79644,-0.0585 2.27554,2.61072 -0.3811,1.9528 -0.58378,1.97351 -2.0462,0.20911 z M 442.01368,353.4375 c 0.51268,-1.54688 0.97246,-3.99194 1.02173,-5.43346 0.21924,-6.4138 8.90712,-11.27496 21.30925,-11.92325 7.18526,-0.37559 8.78889,-0.10838 9.11313,1.51869 0.27191,1.36447 -1.16686,2.44196 -4.65716,3.48767 -2.77784,0.83226 -5.05063,2.04558 -5.05063,2.69625 0,0.65067 -1.89524,1.97493 -4.21164,2.94279 -2.3164,0.96785 -4.98827,2.80422 -5.9375,4.08083 -1.49216,2.00682 -8.80666,5.44298 -11.58635,5.44298 -0.51313,0 -0.51351,-1.26563 -8.3e-4,-2.8125 z m 182.9629,-7.84073 c -0.86874,-1.04677 -2.55083,-1.59495 -3.73796,-1.21816 -1.18713,0.37678 -3.70738,0.0961 -5.60056,-0.62365 -2.32005,-0.88207 -3.93766,-0.89747 -4.96215,-0.0472 -1.05456,0.8752 -3.14887,0.47452 -6.83939,-1.30855 -4.82373,-2.33059 -5.1476,-2.76591 -3.4758,-4.67212 1.01397,-1.15614 2.24005,-3.4017 2.72464,-4.99013 0.71375,-2.33962 1.51328,-2.7583 4.21035,-2.20475 1.83112,0.37582 10.31058,0.94244 18.84326,1.25918 11.30923,0.41978 16.00766,1.06954 17.33542,2.3973 2.20726,2.20726 1.0212,4.56132 -2.29817,4.56132 -1.33442,0 -2.42622,0.84375 -2.42622,1.875 0,1.03125 0.5625,1.875 1.25,1.875 1.59582,0 1.63521,3.36439 0.0509,4.34358 -0.65953,0.40761 -2.42052,0.019 -3.91332,-0.86373 -2.15946,-1.27686 -2.8298,-1.28552 -3.28001,-0.0424 -0.78914,2.17908 -5.97579,1.95485 -7.88094,-0.34073 z M 483.11504,342.5314 c 0.51965,-1.63726 -0.0192,-2.57055 -1.8128,-3.13983 -1.40373,-0.44552 -2.55224,-1.5568 -2.55224,-2.46951 0,-1.98341 9.8991,-3.33794 12.08955,-1.65426 0.87821,0.67505 2.37953,0.62892 3.75,-0.11525 4.70203,-2.55303 11.30489,-4.1063 20.09795,-4.72788 9.1224,-0.64485 10.93805,0.21258 7.13453,3.36923 -1.46033,1.21196 -2.27898,1.24909 -3.375,0.15306 C 516.045,331.545 511.25,332.16028 511.25,334.87051 511.25,338.9068 503.10316,345 497.7065,345 c -2.58857,0 -5.26356,-0.55706 -5.94441,-1.23791 -0.79514,-0.79514 -2.69517,-0.81998 -5.3122,-0.0694 -3.66313,1.05057 -3.99968,0.93338 -3.33485,-1.16127 z M 518.75,340 c 0,-0.6875 0.5957,-1.25 1.32377,-1.25 0.72808,0 0.97613,0.5625 0.55123,1.25 -0.4249,0.6875 -1.0206,1.25 -1.32377,1.25 -0.30318,0 -0.55123,-0.5625 -0.55123,-1.25 z m 41.096,-3.07066 c -0.27214,-0.27214 -4.1457,-0.6617 -8.6079,-0.86568 -6.86228,-0.3137 -8.64446,-0.89265 -11.55965,-3.75516 -3.98603,-3.91401 -3.75296,-4.06927 8.13855,-5.42161 5.87107,-0.66769 7.32926,-0.4602 7.93934,1.12963 0.66477,1.73238 1.04027,1.74238 3.39863,0.0905 4.16827,-2.91957 6.87389,-2.33575 7.3245,1.58046 0.50735,4.40931 5.18584,4.9139 5.79497,0.625 0.3436,-2.41933 1.1518,-2.8125 5.78125,-2.8125 2.96,0 7.13962,0.35156 9.28806,0.78125 3.37541,0.67509 3.90606,1.31209 3.90491,4.6875 l -10e-4,3.90625 -15.45325,0.27457 c -8.49929,0.15101 -15.67591,0.0519 -15.94806,-0.22024 z m -78.34119,-23.40463 c -2.9536,-3.65734 -6.60985,-8.58404 -8.125,-10.9482 -1.51515,-2.36417 -6.57532,-7.42667 -11.24484,-11.25 -7.41978,-6.07521 -13.35102,-12.82332 -13.37673,-15.21901 -0.0169,-1.57674 9.60507,-7.3575 12.24645,-7.3575 1.91197,0 2.74531,-0.75888 2.74531,-2.5 0,-1.89807 0.82765,-2.49589 3.4375,-2.48294 7.29396,0.0362 9.16681,1.48285 16.78117,12.9621 4.15747,6.26772 9.23929,12.83269 11.29295,14.58885 l 3.73394,3.193 2.25444,3.84604 c 0,0.47139 2.25,3.52542 5,6.78676 2.75,3.26134 5,6.97992 5,8.26351 0,2.3322 -0.86925,2.58628 -21.25,6.21129 -2.56801,0.45675 -4.08216,-0.6294 -8.49519,-6.0939 z"
         style="display:inline;fill:#ad3d3c" />
      <path
         id="path5267"
         d="m 452.14499,1028.0776 c -24.3826,-14.0795 -78.78511,-30.34799 -93.56901,-61.52369 -8.24786,-17.3928 -32.00415,-59.52578 -36.76489,-75.64861 -0.81201,-2.75 -2.71736,-6.96875 -4.2341,-9.375 -1.51674,-2.40625 -2.75981,-5.05927 -2.76238,-5.89561 -0.002,-0.83634 -3.11288,-9.27384 -6.9118,-18.75 -7.16292,-17.86744 -8.45805,-20.92618 -12.85253,-30.35439 -1.62069,-3.47711 -2.35622,-6.90589 -1.92624,-8.97942 0.5954,-2.87129 0.34061,-3.26162 -1.76894,-2.70995 -1.83439,0.47971 -2.62547,-0.10088 -3.09409,-2.27058 -0.34627,-1.60327 -1.04335,-3.89942 -1.54906,-5.10255 -1.31971,-3.13966 3.30919,-2.90721 6.22299,0.3125 1.24436,1.375 3.17512,2.5 4.2906,2.5 3.88461,0 7.85662,3.8505 7.2493,7.02753 -0.69368,3.62873 1.00177,3.89807 2.84599,0.45212 1.13705,-2.12459 0.72448,-3.09061 -2.62735,-6.15204 -4.40125,-4.01993 -4.2665,-7.05328 0.35252,-7.93542 2.29194,-0.43771 2.08945,-0.58691 -0.97982,-0.72196 -2.43189,-0.107 -4.69917,0.74735 -6.10458,2.30031 -2.22079,2.45395 -2.25982,2.45032 -5.81199,-0.53863 -1.9669,-1.65503 -4.63815,-3.34621 -5.9361,-3.75816 -1.78097,-0.56526 -2.37695,-1.98371 -2.42936,-5.78202 -0.042,-3.04119 -1.33681,-7.1956 -3.27184,-10.49747 -3.4507,-5.88816 -3.80498,-7.75603 -2.00955,-10.59456 0.9897,-1.56466 1.51577,-1.4984 3.68432,0.4641 2.80557,2.53901 6.37286,1.89519 6.37286,-1.15019 0,-2.44896 -4.4395,-8.7249 -9.337,-13.19931 -3.36435,-3.0737 -3.85818,-3.19922 -5.27275,-1.34031 -0.8584,1.12806 -1.57863,3.09556 -1.6005,4.37225 -0.0478,2.78605 -1.34055,2.39619 -11.91475,-3.59295 -14.87705,-8.42624 -23.67341,-14.92563 -24.89119,-18.3914 -0.65959,-1.87721 -0.81596,-3.7964 -0.34749,-4.26488 0.46848,-0.46848 4.74384,-1.81897 9.50082,-3.0011 10.15375,-2.52326 15.90266,-1.83665 25.25686,3.01649 3.4852,1.80818 7.35715,3.2876 8.60434,3.2876 1.526,0 2.09616,0.71541 1.74338,2.1875 -0.66552,2.7771 0.0346,3.68295 7.52093,9.72989 3.3757,2.72669 7.77455,6.48579 9.7752,8.35355 2.00066,1.86777 6.55122,5.14954 10.11236,7.29281 3.56113,2.14328 9.08873,5.73706 12.28354,7.9862 3.19481,2.24915 7.99374,4.43875 10.66426,4.86579 3.24269,0.51852 6.24239,2.20732 9.03083,5.08425 3.66297,3.77924 4.54002,4.14166 7.14751,2.95361 2.19986,-1.00232 4.2379,-0.93651 7.84301,0.25329 4.1874,1.38196 5.80984,1.30276 11.56323,-0.56451 5.66405,-1.83828 8.0054,-3.66352 15.23712,-11.87835 4.6996,-5.33849 10.04335,-10.4778 11.875,-11.42069 4.18104,-2.1523 5.16209,-3.48816 5.18615,-7.06178"
         style="display:inline;fill:#ad3d3c;fill-opacity:1"
         inkscape:connector-curvature="0" />
      <path
         sodipodi:nodetypes="ssssssssssscsssscsssssccssssssscccssssssssscsccsssssczs"
         id="path5269"
         d="m 267.62441,428.57531 c -8.61229,-14.91542 -16.56894,-19.74787 -16.93222,-43.05912 -0.0515,-3.30669 -1.07392,-11.46472 -0.38333,-15.11049 0.46762,-2.46871 2.79823,-5.8541 6.17267,-8.96625 2.98176,-2.75 6.0612,-6.53136 6.8432,-8.40301 0.87723,-2.09959 2.75474,-3.72625 4.90183,-4.24692 1.91401,-0.46413 9.10501,-4.85772 15.98001,-9.76352 17.5721,-12.53895 20.6128,-14.14264 37.40772,-19.72926 24.07744,-8.00904 49.46103,-13.47277 62.59228,-13.47278 11.59824,0 29.82824,2.46521 36.01271,4.86995 4.01665,1.5618 3.41258,3.87054 -1.01271,3.87054 -1.6376,0 -3.30526,0.5304 -3.70591,1.17865 -1.2292,1.98891 7.33776,9.45297 12.69042,11.05667 7.35086,2.20238 21.70428,1.95592 25.11235,-0.4312 3.70517,-2.5952 3.50408,-4.3909 -0.97186,-8.67912 -2.0625,-1.976 -3.75,-3.96095 -3.75,-4.411 0,-1.39805 9.39174,-3.71305 15.14502,-3.73314 3.01399,-0.01 6.27925,-0.52502 7.25614,-1.14332 2.62521,-1.66157 -0.8747,-6.40474 -9.89445,-13.4092 -7.21626,-5.60395 -13.75671,-13.43013 -13.75671,-16.46105 0,-2.72149 14.1715,-15.20523 17.4953,-15.41169 9.86029,-0.61249 11.47142,0.5279 20.58348,14.5694 8.45287,13.02574 3.30576,15.62925 11.49672,14.94999 l 6.26267,10.24527 c -4.46355,0 1.33679,-0.066 5.68083,3.58923 3.71839,3.1288 4.66996,3.34131 12.46469,2.7836 4.64144,-0.33209 8.74601,-0.29677 9.12129,0.0785 1.28532,1.28532 15.01813,0.0311 16.89502,-1.543 2.31753,-1.94368 10.5385,-3.66168 33.125,-6.92239 30.2357,-4.36499 44.60981,-5.11909 59.3763,-3.11503 7.21804,0.97962 16.4987,2.14583 20.6237,2.59158 4.125,0.44575 8.08136,1.26355 8.79193,1.81732 0.71055,0.55378 2.00422,0.56664 2.87481,0.0286 1.30926,-0.80918 5.61634,-0.13289 22.70826,3.56555 0.34375,0.0744 -0.39371,0.9076 -1.6388,1.85159 -1.2451,0.94398 -2.69181,3.31672 -3.21494,5.27275 -1.335,4.99175 -5.52208,4.8649 -6.39043,-0.1936 -0.59325,-3.45599 -1.09283,-3.77923 -6.37177,-4.1227 -4.0026,-0.26043 -6.21182,0.21024 -7.3341,1.5625 -0.88333,1.06436 -2.89657,1.9352 -4.47385,1.9352 -5.85543,0 -4.03327,8.14231 2.02103,9.03088 3.21766,0.47225 3.70877,0.0381 5.16675,-4.56701 2.25596,-7.12572 5.73006,-6.92564 9.30926,0.53613 1.48399,3.09375 3.31211,5.56875 4.0625,5.5 0.75039,-0.0688 2.55033,-0.20938 3.99986,-0.3125 2.19442,-0.15612 2.49807,-0.73513 1.81429,-3.45949 0.38087,-5.97308 26.52798,-13.38474 29.73503,-6.14786 0.61206,1.59501 1.14501,1.60047 4.14798,0.0425 3.64027,-1.8886 8.51118,-1.35543 11.66719,1.2771 2.57833,2.15066 11.1501,3.04437 10.39788,1.08411 -0.98938,-2.57828 1.92877,-3.18025 6.15078,-1.26883 2.24199,1.01503 7.09525,2.45879 10.78504,3.20838 43.61834,8.86117 147.46126,66.61233 145.59976,153.44025 0,0 -448.01446,-31.544 -547.70728,-60.28194 -99.69282,-28.73794 -90.6272,25.88689 -94.93334,18.42918 z"
         style="display:inline;fill:#ad3d3c;fill-opacity:1"
         inkscape:connector-curvature="0" />
    </g>
  </g>
</svg>
