<?xml version="1.0" encoding="UTF-8" standalone="no"?>
<!-- Created with Inkscape (http://www.inkscape.org/) -->

<svg
   xmlns:dc="http://purl.org/dc/elements/1.1/"
   xmlns:cc="http://creativecommons.org/ns#"
   xmlns:rdf="http://www.w3.org/1999/02/22-rdf-syntax-ns#"
   xmlns:svg="http://www.w3.org/2000/svg"
   xmlns="http://www.w3.org/2000/svg"
   xmlns:sodipodi="http://sodipodi.sourceforge.net/DTD/sodipodi-0.dtd"
   xmlns:inkscape="http://www.inkscape.org/namespaces/inkscape"
   width="132.82202mm"
   height="147.90892mm"
   viewBox="0 0 470.62921 524.08672"
   id="svg5791"
   version="1.1"
   inkscape:version="0.91 r13725"
   sodipodi:docname="holding_hands.svg">
  <defs
     id="defs5793" />
  <sodipodi:namedview
     id="base"
     pagecolor="#ffffff"
     bordercolor="#666666"
     borderopacity="1.0"
     inkscape:pageopacity="0.0"
     inkscape:pageshadow="2"
     inkscape:zoom="0.98994949"
     inkscape:cx="222.90552"
     inkscape:cy="223.12712"
     inkscape:document-units="px"
     inkscape:current-layer="layer1"
     showgrid="false"
     fit-margin-top="0"
     fit-margin-left="0"
     fit-margin-right="0"
     fit-margin-bottom="0"
     inkscape:window-width="1344"
     inkscape:window-height="717"
     inkscape:window-x="6"
     inkscape:window-y="41"
     inkscape:window-maximized="0" />
  <metadata
     id="metadata5796">
    <rdf:RDF>
      <cc:Work
         rdf:about="">
        <dc:format>image/svg+xml</dc:format>
        <dc:type
           rdf:resource="http://purl.org/dc/dcmitype/StillImage" />
        <dc:title></dc:title>
      </cc:Work>
    </rdf:RDF>
  </metadata>
  <g
     inkscape:label="Layer 1"
     inkscape:groupmode="layer"
     id="layer1"
     transform="translate(-16.113971,-7.4617074)">
    <ellipse
       style="fill:none;fill-opacity:1;stroke:#ffffff;stroke-width:1.92587042;stroke-miterlimit:4;stroke-dasharray:none;stroke-opacity:1"
       id="path5503"
       cx="223.99457"
       cy="268.26068"
       rx="158.52431"
       ry="156.57886" />
    <path
       style="fill:#ffffff;fill-opacity:1;stroke:#000000;stroke-opacity:1"
       d="m 86.440031,176.20476 c -0.47161,0.33912 -1.06493,0.59289 -1.64521,0.70351 -0.14278,0.0272 -0.47427,0.0477 -0.73665,0.0454 -0.71805,-0.006 -1.30177,-0.17395 -1.90652,-0.54806 -0.2225,-0.1376 -8.748,-8.67988 -27.72019,-27.97388 l -19.262977,-16.42596 -0.71187,0.86236 0.73705,1.43301 7.02996,9.42796 7.02996,9.42795 0.0896,0.24344 c 0.22371,0.60585 0.27909,0.99924 0.21802,1.55264 -0.0974,0.88267 -0.51638,1.58854 -1.28825,2.17004 -0.45676,0.34408 -0.80293,0.49788 -1.36542,0.60665 -0.88918,0.17192 -2.09961,0.25307 -2.49051,-0.6441 l -0.2905,-0.22641 -8.99219,-12.02003 c -9.66186,-12.91517 -9.11382,-12.16514 -9.41513,-12.88528 -0.88816,-2.1226 -0.29609,-4.78437 0.48109,-6.98504 1.04851,-2.96895 3.41519,-5.30751 5.41292,-7.74124 1.62813,-1.98343 3.0983,-3.99707 5.32825,-5.55629 2.5407,-1.64851 1.67471,-1.15008 2.5407,-1.64851 1.37137,-0.78945 2.94265,-1.04624 4.42185,-0.72293 0.75608,0.16525 -0.0309,-0.31972 14.247067,6.88083 l 13.32774,6.6229 0.27263,0.24291 c 0.72569,0.64652 1.08023,1.41135 1.0724,2.31354 -0.005,0.56734 -0.052,1.15966 -0.41832,1.59318 -0.61816,0.73202 -0.97185,1.23817 -1.81521,1.49076 -0.52875,0.15832 -0.91561,0.004 -1.55308,0.0646 l -0.25335,-0.0442 -10.44956,-5.17216 -10.449547,-5.17216 -0.49809,0.98146 -0.5801,-0.96636 19.287977,16.31816 c 16.97967,13.0906 31.90203,22.86919 32.07519,23.06558 0.46639,0.52892 0.7344,1.08542 0.86095,1.78736 0.12455,0.68908 0.091,1.26247 -0.11023,1.90139 -0.18689,0.59347 -0.47847,1.09326 -0.89056,1.52651 -1.09955,1.15608 -2.71967,1.49053 -4.18634,0.86424 -0.14346,-0.0613 -3.83811,-2.42972 -15.40186,-9.80074 l -15.10082,-9.62564 -0.1563,-0.45278 0.56147,0.0145 11.70448,13.48129 c 6.33696,7.03368 11.95064,13.31838 12.11524,13.51945 0.30939,0.37806 0.49833,0.95353 0.48156,1.46837 -0.0468,1.4367 -0.25273,3.02729 -1.60751,4.00155 z M 28.270204,115.04299 c -0.0497,0.0469 -0.20053,0.18921 -0.33512,0.31658 -0.49374,0.46651 -1.266,0.96596 -1.94735,1.25958 -0.74743,0.32205 -1.38636,0.48351 -2.19215,0.554 -1.51245,0.13232 -2.91774,-0.19385 -4.29216,-0.99622 -0.42548,-0.2484 -1.29819,-0.9807 -1.61672,-1.35658 -1.04627,-1.23445 -1.62123,-2.59175 -1.7479,-4.12461 -0.13528,-1.63717 0.28409,-3.22336 1.21078,-4.5797 0.98679,-1.44426 2.53841,-2.48205 4.31078,-2.88321 0.45832,-0.10376 1.34792,-0.18152 1.81729,-0.15899 3.63588,0.17488 6.50278,2.96398 6.74326,6.56034 0.10026,1.49948 -0.24762,2.92736 -1.02356,4.20114 -0.17965,0.29502 -0.75736,1.04746 -0.9271,1.20773 z"
       id="path5419-9"
       inkscape:connector-curvature="0"
       sodipodi:nodetypes="csssccccccsscsscssaacssscssssscccccccssscscccccacccsssssssssssc" />
    <path
       style="fill:#ffffff;fill-opacity:1;stroke:#000000;stroke-opacity:1"
       d="m 106.4456,152.37131 c -0.5233,0.25208 -1.15169,0.39896 -1.74236,0.40714 -0.14534,0.002 -0.47534,-0.0354 -0.73334,-0.0832 -0.70607,-0.13075 -1.2518,-0.39739 -1.78239,-0.87082 -0.19521,-0.17414 -7.107849,-10.06708 -22.441459,-32.36245 l -16.11798,-19.521413 -0.8508,0.725663 0.47702,1.53924 5.28602,10.50545 5.286,10.50547 0.046,0.2553 c 0.1151,0.63548 0.10134,1.03253 -0.0548,1.56691 -0.24916,0.85235 -0.78441,1.47474 -1.64552,1.91337 -0.50955,0.25953 -0.87719,0.35088 -1.45001,0.36035 -0.90553,0.0149 -2.11166,-0.11537 -2.34083,-1.06679 l -0.24678,-0.27342 -6.76833,-13.39889 c -7.27237,-14.396733 -6.8629,-13.562943 -7.03458,-14.324443 -0.50608,-2.24458 0.5392,-4.76313 1.68672,-6.79541 1.54815,-2.74177 4.28494,-4.633828 6.67496,-6.683698 1.94779,-1.67054 3.74529,-3.39832 6.21211,-4.54662 2.78837,-1.18229 1.84896,-0.8418 2.78837,-1.18229 1.48762,-0.53931 3.07962,-0.51936 4.4802,0.0559 0.71591,0.29405 0.025,-0.32019 12.83578,9.25029 l 11.975219,8.836618 0.2263,0.28657 c 0.60239,0.76271 0.81872,1.57746 0.65434,2.4646 -0.10335,0.557863 -0.2526,1.132993 -0.6886,1.496333 -0.73588,0.61356 -1.1721,1.05061 -2.046499,1.15292 -0.54823,0.0641 -0.90247,-0.15465 -1.5407,-0.20607 l -0.24184,-0.0876 -9.39265,-6.908133 -9.39266,-6.908118 -0.66096,0.880038 -0.40348,-1.052408 16.16134,19.419591 c 14.448549,15.84021 27.446169,28.06147 27.582589,28.28496 0.36747,0.60187 0.53477,1.19645 0.5375,1.90968 0.003,0.70027 -0.12962,1.25911 -0.43872,1.85337 -0.28711,0.55202 -0.66105,0.99358 -1.1421,1.34868 -1.2836,0.94757 -2.93719,0.99562 -4.27282,0.12416 -0.13063,-0.0853 -3.3579,-3.05931 -13.46598,-12.32634 l -13.199939,-12.10164 -0.0753,-0.47305 0.55039,0.1118 9.18567,15.30894 c 5.019299,8.02723 9.456379,15.19125 9.583569,15.41787 0.23903,0.42603 0.32518,1.02557 0.21926,1.52967 -0.29557,1.40673 -0.77457,2.93743 -2.27796,3.66161 z M 59.780161,82.037649 c -0.057,0.0376 -0.23035,0.15152 -0.38501,0.25358 -0.56726,0.37369 -1.41446,0.73153 -2.13648,0.90229 -0.792,0.18738 -1.44927,0.23544 -2.25505,0.16492 -1.51244,-0.13232 -2.83974,-0.69756 -4.053957,-1.72639 -0.37588,-0.31854 -1.10818,-1.19125 -1.35658,-1.61674 -0.81602,-1.39736 -1.14656,-2.83388 -1.00512,-4.36545 0.15106,-1.63578 0.83949,-3.12507 1.98764,-4.29987 1.222597,-1.25097 2.930847,-2.00356 4.745947,-2.09085 0.46937,-0.0226 1.35896,0.0553 1.81729,0.15899 3.55029,0.80359 5.88929,4.04815 5.50162,7.63161 -0.16164,1.49411 -0.75218,2.83992 -1.73751,3.9596 -0.22817,0.25932 -0.92777,0.90002 -1.12279,1.02829 z"
       id="path5419-4-6"
       inkscape:connector-curvature="0"
       sodipodi:nodetypes="csssccccccsscsscssaacssscssssscccccccssscscccccacccsssssssssssc" />
    <path
       style="fill:#ffffff;fill-opacity:1;stroke:#000000;stroke-opacity:1"
       d="m 129.88925,132.6755 c -0.55914,0.15749 -1.20349,0.19292 -1.78661,0.0984 -0.14349,-0.0232 -0.46197,-0.11742 -0.70775,-0.20926 -0.67263,-0.25138 -1.16376,-0.60872 -1.60409,-1.16709 -0.16202,-0.2054 -5.25175,-11.14842 -16.48083,-35.767719 l -12.483283,-22.023688 -0.96387,0.5669 0.20249,1.59868 3.38145,11.26376 3.381453,11.263768 0.001,0.25944 c 0.003,0.64583 -0.0795,1.034463 -0.32611,1.533569 -0.39336,0.79616 -1.02855,1.31613 -1.95275,1.59857 -0.54689,0.16711 -0.924794,0.19323 -1.490553,0.10307 -0.89437,-0.14258 -2.05955,-0.48029 -2.12005,-1.45705 l -0.19554,-0.31212 -4.33881,-14.370637 c -4.66193,-15.44083 -4.40345,-14.5486 -4.4403,-15.32836 -0.10862,-2.29837 1.35811,-4.59712 2.84111,-6.39927 2.00073,-2.43129 5.02449,-3.81937 7.73416,-5.42306 2.208303,-1.30694 4.278513,-2.69633 6.907253,-3.39884 2.95131,-0.68012 1.96707,-0.50792 2.95131,-0.68012 1.55866,-0.27281 3.12301,0.0233 4.40243,0.83305 0.65396,0.41388 0.0802,-0.311 11.03448,11.33866 l 10.25882,10.78184 0.1732,0.32149 c 0.4608,0.85573 0.53236,1.69567 0.21643,2.54077 -0.19866,0.53144 -0.44551,1.07193 -0.93799,1.35403 -0.83124,0.47646 -1.33666,0.8312 -2.2156,0.78003 -0.55102,-0.0321 -0.86192,-0.309 -1.48152,-0.47048 l -0.22295,-0.12822 -8.05039,-8.4342 -8.05037,-8.43419 -0.80373,0.7519 -0.2146,-1.10651 12.54363,21.93096 c 11.47842,18.108527 22.15637,32.401137 22.25193,32.644927 0.25736,0.65653 0.31887,1.27113 0.19771,1.97401 -0.11896,0.69008 -0.34629,1.21745 -0.75389,1.74901 -0.37861,0.49378 -0.82353,0.8637 -1.35895,1.12989 -1.42865,0.71028 -3.06545,0.47045 -4.22946,-0.61972 -0.11385,-0.10663 -2.77564,-3.59591 -11.12096,-14.4774 l -10.89798,-14.209949 0.008,-0.47891 0.52263,0.20566 6.38775,16.671429 c 3.54913,8.77688 6.67477,16.60255 6.76068,16.84781 0.16142,0.46106 0.14215,1.06645 -0.0497,1.54451 -0.53533,1.33404 -1.27286,2.75829 -2.87917,3.21042 z M 96.146047,55.307013 c -0.0627,0.0271 -0.25315,0.10921 -0.42319,0.18286 -0.62353,0.26951 -1.52001,0.47481 -2.2607,0.51759 -0.81253,0.0469 -1.46814,-0.0198 -2.24943,-0.22918 -1.4665,-0.39295 -2.67547,-1.18007 -3.69258,-2.40413 -0.31486,-0.37896 -0.88449,-1.36557 -1.05525,-1.82773 -0.56096,-1.51784 -0.63703,-2.98993 -0.23178,-4.47367 0.43281,-1.58471 1.3694,-2.93182 2.7041,-3.8894 1.42125,-1.01967 3.23423,-1.46417 5.03692,-1.23496 0.46616,0.0593 1.32873,0.2904 1.76208,0.47216 3.35681,1.40786 5.096863,5.0093 4.092819,8.471 -0.418639,1.44335 -1.233899,2.66615 -2.398689,3.59774 -0.26973,0.21575 -1.06997,0.72524 -1.28426,0.81778 z"
       id="path5419-7-5"
       inkscape:connector-curvature="0"
       sodipodi:nodetypes="csssccccccsscsscssaacssscssssscccccccssscscccccacccsssssssssssc" />
    <path
       style="fill:#ffffff;fill-opacity:1;stroke:#000000;stroke-opacity:1"
       d="m 156.42287,117.88604 c -0.57797,0.0579 -1.21868,-0.019 -1.77654,-0.21333 -0.13726,-0.0478 -0.43457,-0.19586 -0.66066,-0.32901 -0.61877,-0.36434 -1.04038,-0.80154 -1.37705,-1.4279 -0.1239,-0.2304 -3.23607,-11.89098 -10.01946,-38.086184 l -8.46925,-23.85681 -1.04767,0.39091 -0.0782,1.60956 1.37414,11.67981 1.37415,11.67983 -0.0438,0.25569 c -0.10907,0.63656 -0.25793,1.00493 -0.58747,1.45365 -0.52564,0.71575 -1.24147,1.11753 -2.20067,1.2352 -0.56761,0.0696 -0.9443,0.0297 -1.48582,-0.15733 -0.85601,-0.29572 -1.94485,-0.83065 -1.8348,-1.80308 l -0.13837,-0.34132 -1.77745,-14.90575 c -1.90983,-16.01579 -1.81023,-15.09222 -1.71111,-15.86654 0.29215,-2.28231 2.13577,-4.29145 3.90917,-5.80869 2.39253,-2.04693 5.61139,-2.88885 8.55836,-3.99765 2.4017,-0.90363 4.68172,-1.9124 7.39252,-2.14775 3.02457,-0.15732 2.02538,-0.15866 3.02457,-0.15732 1.58236,0.002 3.07152,0.56528 4.19089,1.58486 0.57216,0.52117 0.13302,-0.29234 8.8979,13.08252 l 8.23072,12.39947 0.11474,0.34666 c 0.30521,0.92277 0.22983,1.76238 -0.22806,2.53978 -0.28792,0.48887 -0.62487,0.97828 -1.15885,1.17057 -0.90135,0.32488 -1.46073,0.58636 -2.31741,0.38344 -0.53708,-0.12727 -0.79514,-0.45398 -1.3773,-0.7206 l -0.1973,-0.16499 -6.4635,-9.704 -6.46349,-9.70399 -0.92208,0.60091 -0.0192,-1.12695 8.5448,23.77594 c 8.15953,19.826648 16.19338,35.756324 16.24514,36.013004 0.13945,0.69125 0.0933,1.30719 -0.14807,1.97834 -0.23699,0.65895 -0.55243,1.13883 -1.04614,1.59154 -0.45862,0.42053 -0.961,0.70757 -1.53451,0.87673 -1.53028,0.45142 -3.10058,-0.069 -4.05761,-1.34473 -0.0936,-0.12477 -2.10903,-4.02326 -8.43801,-16.188606 l -8.2649,-15.886468 0.0907,-0.47032 0.47898,0.2933 3.39573,17.527378 c 1.97112,9.259846 3.69037,17.509376 3.73239,17.765846 0.0789,0.48207 -0.0452,1.07492 -0.31716,1.5124 -0.75886,1.22082 -1.7325,2.49536 -3.39292,2.66169 z M 136.62722,35.833496 c -0.0665,0.0158 -0.26828,0.0636 -0.44851,0.1066 -0.66085,0.15714 -1.57936,0.20364 -2.31623,0.11715 -0.80834,-0.0948 -1.44239,-0.27445 -2.17548,-0.61629 -1.37597,-0.64163 -2.4299,-1.62676 -3.219,-3.00883 -0.24427,-0.42787 -0.63392,-1.49841 -0.72183,-1.98319 -0.28887,-1.59219 -0.10815,-3.05515 0.54857,-4.44597 0.70142,-1.48546 1.85771,-2.64948 3.33842,-3.36074 1.57672,-0.75738 3.43934,-0.88032 5.17484,-0.34154 0.44878,0.13931 1.25812,0.51671 1.65332,0.77095 3.06135,1.96939 4.14958,5.81827 2.55968,9.05303 -0.66291,1.34872 -1.67814,2.41138 -2.987,3.12653 -0.30309,0.16566 -1.17965,0.52843 -1.40675,0.58236 z"
       id="path5419-1-8"
       inkscape:connector-curvature="0"
       sodipodi:nodetypes="csssccccccsscsscssaacssscssssscccccccssscscccccacccsssssssssssc" />
    <path
       style="fill:#ffffff;fill-opacity:1;stroke:#000000;stroke-opacity:1"
       d="m 185.31694,108.25965 c -0.57926,-0.0433 -1.19687,-0.23037 -1.71251,-0.51859 -0.12688,-0.0709 -0.39395,-0.26833 -0.59349,-0.43872 -0.54609,-0.46626 -0.8854,-0.97003 -1.10819,-1.64533 -0.082,-0.24842 -1.12204,-12.272287 -3.25363,-39.247435 l -4.1979,-24.96503 -1.09964,0.20303 -0.35649,1.57153 -0.67491,11.741 -0.67491,11.741 -0.0875,0.24421 c -0.21796,0.60795 -0.42852,0.94487 -0.83098,1.32955 -0.64194,0.61359 -1.41666,0.88498 -2.38173,0.83429 -0.57106,-0.03 -0.9351,-0.13469 -1.43591,-0.41295 -0.79165,-0.43987 -1.77107,-1.15574 -1.49383,-2.09428 l -0.077,-0.36017 0.83791,-14.98795 c 0.9003,-16.10411 0.83801,-15.17728 1.07008,-15.92262 0.68403,-2.19691 2.84852,-3.85538 4.85845,-5.04162 2.71162,-1.60037 6.02779,-1.87056 9.12253,-2.45078 2.52213,-0.47284 4.94269,-1.07038 7.65316,-0.83143 3.00594,0.37029 2.02217,0.19547 3.00594,0.37029 1.55795,0.27686 2.92671,1.09005 3.85202,2.28853 0.47297,0.61259 0.18177,-0.2648 6.49097,14.42886 l 5.95253,13.64035 0.0527,0.36132 c 0.14034,0.96173 -0.0797,1.77551 -0.66561,2.46159 -0.36845,0.43144 -0.78527,0.8549 -1.34453,0.95156 -0.94406,0.16342 -1.54036,0.3238 -2.34877,-0.0248 -0.50682,-0.21859 -0.70424,-0.58516 -1.23125,-0.94881 l -0.16566,-0.19674 -4.68022,-10.67894 -4.68021,-10.67895 -1.01244,0.43166 0.17677,-1.11316 4.28634,24.89852 c 4.59271,20.94231 9.73834,38.025045 9.74475,38.286805 0.0173,0.70498 -0.13508,1.30355 -0.48936,1.92259 -0.34782,0.60778 -0.7418,1.0256 -1.30663,1.3857 -0.52465,0.3345 -1.06926,0.52994 -1.66343,0.59694 -1.58542,0.17882 -3.04148,-0.60638 -3.76245,-2.02889 -0.0705,-0.13913 -1.37836,-4.328387 -5.49871,-17.407915 l -5.38066,-17.0803 0.17096,-0.44743 0.42075,0.37201 0.30056,17.85077 c 0.33323,9.461428 0.59384,17.884205 0.59069,18.144055 -0.006,0.48845 -0.23121,1.05075 -0.57497,1.43436 -0.95933,1.0705 -2.1395,2.1566 -3.80357,2.03207 z M 180.0703,24.016185 c -0.0682,0.004 -0.27525,0.0161 -0.46021,0.0271 -0.6781,0.04 -1.59073,-0.0738 -2.30139,-0.28684 -0.77958,-0.23377 -1.37281,-0.52076 -2.0354,-0.9847 -1.24365,-0.87083 -2.1105,-2.02398 -2.64762,-3.52208 -0.16626,-0.46379 -0.36409,-1.58574 -0.36648,-2.07843 -0.008,-1.61816 0.424,-3.02749 1.31226,-4.28315 0.94872,-1.34111 2.28957,-2.28665 3.87129,-2.72998 1.68428,-0.4720803 3.53996,-0.2697003 5.15554,0.56226 0.41778,0.21513 1.14928,0.72733 1.49432,1.04633 2.67286,2.47106 3.07621,6.45045 0.94874,9.35998 -0.88704,1.21312 -2.07137,2.08334 -3.48453,2.56035 -0.32726,0.1105 -1.25348,0.31556 -1.48652,0.32913 z"
       id="path5419-2-7"
       inkscape:connector-curvature="0"
       sodipodi:nodetypes="csssccccccsscsscssaacssscssssscccccccssscscccccacccsssssssssssc" />
    <path
       style="fill:#ffffff;fill-opacity:1;stroke:#000000;stroke-opacity:1"
       d="m 216.87087,104.22253 c -0.56293,-0.14326 -1.13868,-0.4347 -1.59644,-0.80808 -0.11263,-0.0919 -0.34137,-0.33267 -0.5083,-0.53512 -0.45683,-0.554 -0.70349,-1.10903 -0.80563,-1.81277 -0.0376,-0.25888 1.02606,-12.280673 3.61103,-39.216161 l 0.20103,-25.31471 -1.11819,0.009 -0.62397,1.48574 -2.70347,11.44543 -2.70346,11.44544 -0.12862,0.22529 c -0.32021,0.56087 -0.58608,0.8561 -1.04922,1.16505 -0.73874,0.4928 -1.54882,0.62553 -2.49042,0.40803 -0.55717,-0.12871 -0.89751,-0.29501 -1.34239,-0.65601 -0.70324,-0.57066 -1.54347,-1.44573 -1.10747,-2.32187 l -0.0133,-0.36807 3.4278,-14.61474 c 3.68308,-15.70313 3.46079,-14.80119 3.81876,-15.49491 1.05513,-2.04475 3.47474,-3.30218 5.66011,-4.12137 2.94833,-1.1052 6.26103,-0.79543 9.40951,-0.82943 2.56591,-0.0277 5.05347,-0.19583 7.68127,0.51015 2.89597,0.88664 1.9575,0.54365 2.89597,0.88664 1.48621,0.5432 2.69295,1.58171 3.3961,2.92266 0.35941,0.68542 0.22499,-0.22921 3.88681,15.33681 l 3.49348,14.46676 -0.0108,0.36499 c -0.0288,0.97149 -0.38681,1.7347 -1.08295,2.30861 -0.43778,0.36091 -0.9218,0.70555 -1.48934,0.70363 -0.9581,-0.003 -1.57319,0.0514 -2.30878,-0.43232 -0.46116,-0.30328 -0.59193,-0.69856 -1.04778,-1.1482 l -0.12899,-0.22252 -2.75473,-11.32942 -2.75473,-11.32941 -1.07201,0.24929 0.36738,-1.06556 -0.10236,25.26457 c 0.88634,21.42167 2.98741,39.138411 2.94826,39.397311 -0.10541,0.69726 -0.35938,1.26028 -0.81577,1.80839 -0.44807,0.53815 -0.90862,0.88121 -1.5274,1.13776 -0.57477,0.23831 -1.14505,0.33621 -1.74182,0.29903 -1.59239,-0.0992 -2.88999,-1.12533 -3.35298,-2.65142 -0.0453,-0.14927 -0.6058,-4.501973 -2.39231,-18.098291 l -2.33296,-17.75515 0.24606,-0.41095 0.34977,0.43943 -2.80377,17.63177 c -1.3148,9.375558 -2.52074,17.715611 -2.56898,17.970971 -0.0906,0.48001 -0.41014,0.99463 -0.8153,1.31272 -1.13064,0.88765 -2.48148,1.75232 -4.09865,1.34072 z m 9.46179,-83.874681 c -0.0678,-0.008 -0.27387,-0.0319 -0.45792,-0.0532 -0.67474,-0.0784 -1.55376,-0.34886 -2.21662,-0.68212 -0.72715,-0.36558 -1.26153,-0.75123 -1.83349,-1.32318 -1.07354,-1.07355 -1.72699,-2.35972 -1.9958,-3.92833 -0.0832,-0.48562 -0.0832,-1.62486 0,-2.11048 0.27333,-1.59493 0.94328,-2.90788 2.0361,-3.9902204 1.16718,-1.15598 2.65184,-1.85432 4.28653,-2.01625 1.74067,-0.17244 3.53301,0.3491 4.97958,1.44895 0.37407,0.28441 1.00551,0.91585 1.28992,1.2899204 2.20315,2.89767 1.90937,6.88663 -0.69101,9.38254 -1.08422,1.04066 -2.40166,1.692 -3.8762,1.91637 -0.34146,0.052 -1.28923,0.0931 -1.52109,0.0661 z"
       id="path5419-4-3-7"
       inkscape:connector-curvature="0"
       sodipodi:nodetypes="csssccccccsscsscssaacssscssssscccccccssscscccccacccsssssssssssc" />
    <path
       style="fill:#ffffff;fill-opacity:1;stroke:#000000;stroke-opacity:1"
       d="m 246.58375,105.37786 c -0.52948,-0.2389 -1.04589,-0.62583 -1.43185,-1.07303 -0.095,-0.11006 -0.27831,-0.38699 -0.40762,-0.61526 -0.35373,-0.62494 -0.50021,-1.21438 -0.47864,-1.92513 0.008,-0.26151 3.143,-11.915923 10.36599,-37.993351 l 4.59383,-24.89519 -1.10277,-0.18531 -0.8725,1.35484 -4.64987,10.8021 -4.64985,10.80208 -0.16576,0.19958 c -0.41273,0.49672 -0.72584,0.74132 -1.23558,0.96515 -0.81309,0.35702 -1.63393,0.34709 -2.52346,-0.0306 -0.52635,-0.22349 -0.83265,-0.44638 -1.20807,-0.87915 -0.59343,-0.68414 -1.26895,-1.69178 -0.68744,-2.47889 l 0.0508,-0.36479 5.91355,-13.79746 c 6.35394,-14.82502 5.97841,-13.97539 6.45141,-14.5964 1.39415,-1.83047 3.99538,-2.64861 6.28977,-3.0759 3.09546,-0.57643 6.30407,0.30387 9.41059,0.81712 2.53176,0.41829 5.01071,0.68466 7.47598,1.83624 2.69801,1.37606 1.83336,0.87529 2.69801,1.37606 1.36933,0.79301 2.37738,2.02528 2.83698,3.46796 0.23489,0.73745 0.26138,-0.18665 1.16456,15.77876 l 0.92828,14.85363 -0.074,0.35754 c -0.19706,0.95174 -0.68216,1.64119 -1.46738,2.08551 -0.4938,0.27942 -1.03033,0.53475 -1.5889,0.4343 -0.94303,-0.16932 -1.55822,-0.22256 -2.19864,-0.82662 -0.40151,-0.37876 -0.46163,-0.79075 -0.8325,-1.31271 l -0.0884,-0.2415 -0.74557,-11.63566 -0.74554,-11.63567 -1.09902,0.0593 0.54684,-0.98557 -4.48793,24.86297 c -2.84699,21.25013 -3.85432,39.062541 -3.93781,39.310721 -0.22486,0.66837 -0.57278,1.17873 -1.11742,1.63927 -0.53471,0.45218 -1.04784,0.71002 -1.70175,0.85523 -0.60741,0.13485 -1.18603,0.13229 -1.7673,-0.008 -1.55097,-0.37421 -2.65066,-1.61008 -2.84163,-3.19337 -0.0186,-0.15488 0.18517,-4.53877 0.78677,-18.238761 l 0.78563,-17.89051 0.31368,-0.36199 0.26815,0.49349 -5.82287,16.87701 c -2.9229,9.004818 -5.55873,17.008761 -5.65059,17.251871 -0.17267,0.45695 -0.57664,0.90831 -1.03087,1.1512 -1.26759,0.67784 -2.74805,1.29479 -4.26919,0.60863 z m 23.88273,-80.957421 c -0.0655,-0.0197 -0.26417,-0.079 -0.44173,-0.13191 -0.65088,-0.19438 -1.46959,-0.61331 -2.06448,-1.05666 -0.65263,-0.48628 -1.11192,-0.9589 -1.57587,-1.62147 -0.87081,-1.24365 -1.29101,-2.62375 -1.28334,-4.2152 0.002,-0.49269 0.20022,-1.61463 0.36649,-2.07843 0.54592,-1.52332 1.43389,-2.6999 2.69805,-3.57602 1.35025,-0.93567 2.93356,-1.36567 4.57152,-1.24128 1.74417,0.13244 3.41874,0.95728 4.65232,2.29164 0.31899,0.34504 0.83122,1.07654 1.04634,1.49431 1.66651,3.23622 0.6845,7.11356 -2.30977,9.12 -1.24847,0.83658 -2.65899,1.24925 -4.15008,1.21416 -0.34534,-0.008 -1.2858,-0.13219 -1.50945,-0.19914 z"
       id="path5419-7-8-3"
       inkscape:connector-curvature="0"
       sodipodi:nodetypes="csssccccccsscsscssaacssscssssscccccccssscscccccacccsssssssssssc" />
    <path
       style="fill:#ffffff;fill-opacity:1;stroke:#000000;stroke-opacity:1"
       d="m 275.42493,112.27289 c -0.48001,-0.32714 -0.92136,-0.79793 -1.22381,-1.30535 -0.0743,-0.12486 -0.20687,-0.42944 -0.29459,-0.67671 -0.23979,-0.67683 -0.28173,-1.28278 -0.13704,-1.979 0.0533,-0.25611 5.16441,-11.189119 16.80598,-35.616067 l 8.84703,-23.71931 -1.05382,-0.37399 -1.09452,1.18275 -6.45498,9.83055 -6.45497,9.83054 -0.19789,0.16775 c -0.49271,0.41753 -0.84355,0.60406 -1.3844,0.73594 -0.86275,0.2104 -1.66938,0.0581 -2.4798,-0.46833 -0.47955,-0.31149 -0.7425,-0.58419 -1.03708,-1.07559 -0.46559,-0.77678 -0.95591,-1.88641 -0.24656,-2.56062 l 0.11337,-0.3504 8.21962,-12.561 c 8.83174,-13.49644 8.31438,-12.72491 8.88803,-13.25435 1.69084,-1.56057 4.39459,-1.9146 6.72834,-1.93696 3.14854,-0.0302 6.15551,1.39395 9.12574,2.43883 2.42065,0.85157 4.81569,1.54436 7.04355,3.10653 2.41808,1.82365 1.65351,1.18037 2.41808,1.82365 1.21079,1.01875 1.98956,2.40735 2.19168,3.90795 0.10326,0.767 0.28981,-0.13843 -1.59309,15.74124 l -1.66514,14.78914 -0.13487,0.33934 c -0.35933,0.90304 -0.95678,1.49779 -1.80725,1.79898 -0.53478,0.18945 -1.10751,0.34775 -1.64016,0.1518 -0.89929,-0.3305 -1.49593,-0.48966 -2.02168,-1.19585 -0.32963,-0.44272 -0.31732,-0.85888 -0.5919,-1.43733 l -0.0451,-0.25319 1.28628,-11.58835 1.28628,-11.58832 -1.0926,-0.13234 0.70965,-0.87565 -8.73716,23.7059 c -6.49376,20.432958 -10.57889,37.799857 -10.70423,38.029737 -0.33751,0.61919 -0.76875,1.06138 -1.38507,1.42034 -0.60509,0.35244 -1.15524,0.51728 -1.82443,0.54674 -0.62161,0.0273 -1.19097,-0.0757 -1.73904,-0.31477 -1.46243,-0.63785 -2.3308,-2.04592 -2.24394,-3.63832 0.009,-0.15573 0.9705,-4.43766 3.94196,-17.825059 l 3.88036,-17.482298 0.37176,-0.30201 0.17839,0.53257 -8.66511,15.609488 c -4.44215,8.360469 -8.42782,15.785089 -8.56048,16.008549 -0.2494,0.42002 -0.72559,0.79438 -1.21509,0.9547 -1.36608,0.44742 -2.93118,0.79794 -4.31005,-0.14193 z m 37.578,-75.580297 c -0.0611,-0.0308 -0.24644,-0.12367 -0.41213,-0.20662 -0.60722,-0.30444 -1.34074,-0.85918 -1.84964,-1.3991 -0.55825,-0.59222 -0.92851,-1.13739 -1.27035,-1.87045 -0.64163,-1.37599 -0.81576,-2.80808 -0.53187,-4.37403 0.0875,-0.48485 0.47755,-1.55533 0.72182,-1.98321 0.80215,-1.40537 1.88096,-2.4099 3.27804,-3.05318 1.49221,-0.68701 3.12616,-0.83552 4.71761,-0.42862 1.69469,0.43334 3.20056,1.53644 4.18373,3.06471 0.25424,0.3952 0.63162,1.20453 0.77095,1.65332 1.0792,3.47643 -0.56117,7.12435 -3.85836,8.58036 -1.37476,0.60709 -2.83552,0.76854 -4.29787,0.47504 -0.33865,-0.0678 -1.24332,-0.35345 -1.45193,-0.45822 z"
       id="path5419-1-4-8"
       inkscape:connector-curvature="0"
       sodipodi:nodetypes="csssccccccsscsscssaacssscssssscccccccssscscccccacccsssssssssssc" />
    <path
       style="fill:#ffffff;fill-opacity:1;stroke:#000000;stroke-opacity:1"
       d="m 302.59781,123.66742 c -0.4159,-0.40549 -0.76877,-0.9458 -0.97852,-1.49806 -0.0516,-0.1359 -0.12914,-0.45881 -0.17269,-0.71753 -0.11865,-0.7082 -0.0547,-1.31221 0.20868,-1.97274 0.097,-0.24299 7.02893,-10.12233 22.73531,-32.156671 l 12.83147,-21.82266 -0.97288,-0.5513 -1.28325,0.97471 -8.06397,8.5603 -8.06398,8.5603 -0.22402,0.13085 c -0.55776,0.32562 -0.93562,0.44837 -1.49118,0.48435 -0.88617,0.0574 -1.65409,-0.23267 -2.36079,-0.89183 -0.41818,-0.39006 -0.62977,-0.70427 -0.83451,-1.23933 -0.32378,-0.84581 -0.61382,-2.02376 0.20181,-2.56454 l 0.1725,-0.32541 10.27596,-10.94284 c 11.04119,-11.75776 10.39771,-11.08781 11.05457,-11.5096 1.93615,-1.24324 4.6603,-1.12239 6.9625,-0.73915 3.10594,0.51699 5.81992,2.44166 8.56357,3.98644 2.23602,1.25897 4.47437,2.35714 6.39709,4.28244 2.06469,2.21583 1.42343,1.44959 2.06469,2.21583 1.0155,1.21353 1.54129,2.7163 1.47977,4.22914 -0.0315,0.77331 0.30945,-0.086 -4.30232,15.22549 l -4.20793,14.275338 -0.19193,0.31065 c -0.51068,0.826923 -1.20231,1.308863 -2.09217,1.457793 -0.55956,0.0937 -1.15107,0.15014 -1.64162,-0.13529 -0.82823,-0.48164 -1.38816,-0.74198 -1.7833,-1.528763 -0.24778,-0.49323 -0.16336,-0.90093 -0.33334,-1.51826 l -4.5e-4,-0.25718 3.27902,-11.188928 3.27905,-11.18894 -1.05303,-0.32016 0.85096,-0.73909 -12.72095,21.828568 c -9.94324,18.994853 -16.98202,35.388553 -17.14539,35.593183 -0.43989,0.55116 -0.94134,0.91175 -1.61066,1.15826 -0.65712,0.24201 -1.22751,0.30881 -1.89165,0.22159 -0.61691,-0.0811 -1.15974,-0.28136 -1.65795,-0.61195 -1.32945,-0.88211 -1.94014,-2.41957 -1.57806,-3.9727 0.0359,-0.15181 1.72633,-4.20171 6.97732,-16.86973 l 6.85716,-16.542903 0.41861,-0.23284 0.0832,0.55543 -11.24401,13.867673 c -5.82644,7.46206 -11.04085,14.08182 -11.21028,14.27885 -0.31854,0.37034 -0.85254,0.6563 -1.36245,0.72919 -1.423,0.20341 -3.02517,0.27682 -4.21989,-0.88823 z m 50.1315,-67.906711 c -0.0548,-0.0409 -0.22121,-0.16459 -0.36997,-0.27502 -0.54515,-0.40528 -1.17114,-1.07906 -1.57861,-1.69906 -0.44693,-0.68016 -0.71689,-1.28135 -0.92625,-2.06265 -0.39293,-1.4665 -0.31578,-2.90709 0.23574,-4.39994 0.17037,-0.46229 0.74038,-1.44877 1.05526,-1.82772 1.034,-1.24473 2.27083,-2.04667 3.75843,-2.43758 1.58882,-0.41744 3.22372,-0.27998 4.72036,0.39715 1.59368,0.72099 2.88512,2.06881 3.58796,3.74461 0.18174,0.43333 0.41286,1.29591 0.47215,1.76206 0.45916,3.61104 -1.78978,6.91867 -5.28969,7.78001 -1.45932,0.35915 -2.92591,0.26448 -4.31506,-0.27847 -0.32179,-0.12558 -1.16307,-0.56399 -1.35032,-0.70339 z"
       id="path5419-8-1"
       inkscape:connector-curvature="0"
       sodipodi:nodetypes="csssccccccsscsscssaacssscssssscccccccssscscccccacccsssssssssssc" />
    <path
       style="fill:#ffffff;fill-opacity:1;stroke:#000000;stroke-opacity:1"
       d="m 328.22021,141.3271 c -0.33917,-0.47157 -0.59285,-1.06494 -0.7035,-1.64523 -0.0273,-0.14274 -0.0475,-0.47428 -0.0454,-0.73664 0.006,-0.71803 0.174,-1.30177 0.54808,-1.90652 0.13772,-0.22243 8.67988,-8.74799 27.97388,-27.72019 l 16.42597,-19.262993 -0.86236,-0.71185 -1.43302,0.73708 -9.42796,7.02996 -9.42794,7.029953 -0.24334,0.09 c -0.60581,0.22384 -0.99925,0.27908 -1.55264,0.21807 -0.88266,-0.0973 -1.58855,-0.51636 -2.17007,-1.28823 -0.34407,-0.45674 -0.49789,-0.80291 -0.60666,-1.36542 -0.17183,-0.88917 -0.25305,-2.099613 0.64412,-2.490513 l 0.22639,-0.29052 12.02002,-8.99217 c 12.91519,-9.661868 12.16513,-9.113828 12.88526,-9.415148 2.12264,-0.88815 4.78442,-0.29609 6.98508,0.4811 2.96894,1.04857 5.30751,3.41518 7.74124,5.41293 1.98341,1.62812 3.99706,3.098298 5.55627,5.328228 1.64853,2.54069 1.1501,1.67471 1.64853,2.54069 0.78933,1.37145 1.04622,2.94268 0.7229,4.42184 -0.16521,0.75612 0.31969,-0.031 -6.88085,14.247093 l -6.62287,13.32776 -0.24287,0.27264 c -0.64653,0.72572 -1.41135,1.08023 -2.31357,1.07241 -0.56732,-0.005 -1.15965,-0.0521 -1.59316,-0.41833 -0.73203,-0.61815 -1.23824,-0.97177 -1.49076,-1.8152 -0.15834,-0.52875 -0.004,-0.9156 -0.0646,-1.55312 l 0.0442,-0.25332 5.17218,-10.44954 5.17214,-10.44956 -0.9814,-0.49815 0.96634,-0.58011 -16.31817,19.28799 c -13.09061,16.97966 -22.86919,31.90201 -23.06558,32.07519 -0.52893,0.4664 -1.08542,0.7344 -1.78733,0.86095 -0.68918,0.12421 -1.2625,0.091 -1.90141,-0.11025 -0.59344,-0.18689 -1.09326,-0.47847 -1.5265,-0.89056 -1.15608,-1.09958 -1.49053,-2.71969 -0.86424,-4.18635 0.0617,-0.14328 2.42972,-3.83812 9.80072,-15.40184 l 9.62566,-15.10085 0.45267,-0.15663 -0.0145,0.56146 -13.48128,11.70448 c -7.03372,6.33694 -13.3184,11.95066 -13.5195,12.11526 -0.37801,0.3094 -0.95352,0.49828 -1.46836,0.48154 -1.43667,-0.0468 -3.02728,-0.25273 -4.00152,-1.60752 z m 61.16178,-58.169831 c -0.0469,-0.0499 -0.18928,-0.2005 -0.3166,-0.33511 -0.46649,-0.49377 -0.96594,-1.266 -1.25959,-1.94735 -0.32202,-0.74744 -0.48348,-1.38636 -0.55398,-2.19216 -0.13232,-1.51243 0.19383,-2.91772 0.99621,-4.29214 0.24804,-0.42568 0.98069,-1.29819 1.35658,-1.61673 1.23443,-1.04627 2.59174,-1.62124 4.12463,-1.74792 1.63717,-0.13518 3.22335,0.28409 4.57969,1.21081 1.44427,0.98677 2.48204,2.53842 2.8832,4.31076 0.10373,0.4583 0.18158,1.34791 0.15899,1.8173 -0.17487,3.63589 -2.964,6.50279 -6.56032,6.74326 -1.49948,0.10026 -2.92738,-0.24761 -4.20116,-1.02354 -0.29505,-0.17965 -1.04746,-0.75738 -1.20771,-0.92711 z"
       id="path5419-4-38-2"
       inkscape:connector-curvature="0"
       sodipodi:nodetypes="csssccccccsscsscssaacssscssssscccccccssscscccccacccsssssssssssc" />
    <path
       style="fill:#ffffff;fill-opacity:1;stroke:#000000;stroke-opacity:1"
       d="m 350.23844,161.35789 c -0.25213,-0.52332 -0.39893,-1.15171 -0.40716,-1.74237 -0.002,-0.14529 0.0356,-0.47532 0.0832,-0.73335 0.13059,-0.70608 0.39739,-1.25177 0.87081,-1.78238 0.17424,-0.19514 10.06707,-7.10787 32.36246,-22.44144 l 19.52141,-16.118 -0.72566,-0.85081 -1.53921,0.47703 -10.50547,5.28599 -10.50547,5.28606 -0.25524,0.0463 c -0.63549,0.11523 -1.03254,0.10131 -1.56692,-0.0549 -0.85234,-0.24919 -1.4747,-0.78445 -1.91342,-1.64549 -0.25953,-0.50955 -0.35089,-0.87714 -0.36032,-1.45001 -0.0148,-0.90551 0.11539,-2.11163 1.06678,-2.34083 l 0.2734,-0.24677 13.39888,-6.76831 c 14.39674,-7.27239 13.56294,-6.86292 14.32444,-7.03461 2.2446,-0.50608 4.76314,0.53921 6.79539,1.68671 2.74182,1.54811 4.63388,4.28495 6.68371,6.67496 1.67057,1.94783 3.39833,3.74531 4.54665,6.21213 1.18228,2.78837 0.84178,1.84899 1.18228,2.78837 0.5392,1.48764 0.51932,3.07961 -0.0559,4.48019 -0.29399,0.71593 0.32019,0.025 -9.2503,12.8358 l -8.83662,11.9752 -0.2865,0.22634 c -0.76275,0.6024 -1.57751,0.81873 -2.46462,0.65436 -0.55784,-0.10344 -1.133,-0.25258 -1.49633,-0.68861 -0.61356,-0.73588 -1.05059,-1.17208 -1.15293,-2.04649 -0.0641,-0.54822 0.15506,-0.90241 0.20607,-1.5407 l 0.0875,-0.24183 6.90815,-9.39266 6.90812,-9.39265 -0.88,-0.661 1.05241,-0.40352 -19.41958,16.16135 c -15.84023,14.44858 -28.0615,27.44618 -28.28499,27.5826 -0.60188,0.36747 -1.19644,0.53476 -1.90968,0.53752 -0.70026,0.003 -1.25911,-0.12962 -1.85335,-0.43874 -0.55197,-0.2872 -0.99358,-0.66106 -1.34869,-1.14214 -0.94758,-1.28358 -0.99559,-2.93718 -0.12416,-4.27279 0.0856,-0.1304 3.05931,-3.3579 12.32636,-13.466 l 12.10163,-13.19992 0.47299,-0.0757 -0.11177,0.55038 -15.30894,9.1857 c -8.02724,5.01929 -15.19124,9.45638 -15.41787,9.58356 -0.42599,0.23906 -1.02557,0.32517 -1.52968,0.21924 -1.40675,-0.29557 -2.9374,-0.77456 -3.6616,-2.27796 z m 70.33365,-46.66546 c -0.0375,-0.0572 -0.15157,-0.23033 -0.25358,-0.385 -0.37367,-0.56727 -0.73156,-1.41446 -0.90232,-2.13647 -0.18733,-0.79201 -0.23541,-1.44927 -0.16491,-2.25507 0.13232,-1.51243 0.69757,-2.83972 1.72639,-4.05393 0.31821,-0.37615 1.19124,-1.10819 1.61672,-1.35659 1.39739,-0.81602 2.8339,-1.14658 4.36548,-1.00512 1.63578,0.15113 3.12507,0.83949 4.29987,1.98764 1.25098,1.22259 2.00356,2.93082 2.09085,4.74595 0.0226,0.46936 -0.0553,1.35896 -0.15899,1.81729 -0.80357,3.55028 -4.04817,5.88928 -7.63161,5.50164 -1.49414,-0.16165 -2.83992,-0.7522 -3.95959,-1.73753 -0.25944,-0.22807 -0.90003,-0.92777 -1.02832,-1.1228 z"
       id="path5419-7-9-3"
       inkscape:connector-curvature="0"
       sodipodi:nodetypes="csssccccccsscsscssaacssscssssscccccccssscscccccacccsssssssssssc" />
    <path
       style="fill:#ffffff;fill-opacity:1;stroke:#000000;stroke-opacity:1"
       d="m 368.04512,185.94297 c -0.15742,-0.55913 -0.19288,-1.20347 -0.0984,-1.78661 0.0233,-0.14342 0.1176,-0.46189 0.20928,-0.70775 0.25122,-0.67267 0.60873,-1.16375 1.16707,-1.60407 0.2055,-0.16194 11.14842,-5.25176 35.76774,-16.48084 l 22.02369,-12.48329 -0.5669,-0.96387 -1.59865,0.20249 -11.26379,3.38146 -11.26376,3.38142 -0.25944,0.001 c -0.64582,0.003 -1.03445,-0.0795 -1.53356,-0.32615 -0.79613,-0.39341 -1.31618,-1.02856 -1.5986,-1.95274 -0.16712,-0.54689 -0.19325,-0.92477 -0.10308,-1.49057 0.14257,-0.89434 0.4803,-2.05953 1.45705,-2.12001 l 0.31209,-0.19556 14.37066,-4.33879 c 15.44084,-4.66194 14.5486,-4.40349 15.32836,-4.44034 2.29837,-0.1086 4.59713,1.35813 6.39926,2.84111 2.43125,2.00077 3.81937,5.02451 5.42305,7.73417 1.30695,2.20831 2.69634,4.27852 3.39884,6.90725 0.68012,2.95131 0.50795,1.96708 0.68012,2.95131 0.2727,1.55868 -0.0233,3.12302 -0.83303,4.40242 -0.41383,0.65397 0.311,0.0802 -11.33866,11.03449 l -10.78186,10.25883 -0.32146,0.17314 c -0.85575,0.46082 -1.69569,0.53236 -2.5408,0.21645 -0.53141,-0.19874 -1.07194,-0.44549 -1.35403,-0.93802 -0.47645,-0.83122 -0.83111,-1.33671 -0.78002,-2.21557 0.0321,-0.55102 0.30941,-0.86178 0.47049,-1.48152 l 0.12816,-0.22296 8.43423,-8.05039 8.43418,-8.05037 -0.75185,-0.80376 1.10649,-0.21463 -21.93093,12.54365 c -18.10857,11.47842 -32.40117,22.15637 -32.64495,22.25193 -0.65654,0.25736 -1.27114,0.3189 -1.97402,0.19771 -0.69011,-0.11864 -1.21744,-0.34628 -1.74901,-0.7539 -0.49371,-0.37868 -0.86368,-0.82356 -1.12985,-1.35896 -0.7103,-1.42865 -0.47041,-3.06547 0.61971,-4.22948 0.10694,-0.11352 3.59591,-2.77565 14.47743,-11.12097 l 14.20991,-10.89794 0.47892,0.008 -0.20566,0.52264 -16.6714,6.38774 c -8.77687,3.54914 -16.60255,6.67479 -16.84782,6.76069 -0.46104,0.16146 -1.06647,0.14213 -1.54449,-0.0497 -1.33407,-0.53537 -2.75831,-1.27289 -3.21045,-2.87918 z m 77.36851,-33.74319 c -0.0269,-0.0629 -0.10928,-0.25314 -0.18289,-0.42317 -0.26948,-0.62355 -0.47481,-1.52 -0.51759,-2.26071 -0.047,-0.81251 0.0198,-1.46813 0.22919,-2.24942 0.39294,-1.46651 1.18007,-2.67548 2.40412,-3.69257 0.37869,-0.31519 1.36557,-0.88451 1.82777,-1.05526 1.51781,-0.56097 2.9899,-0.63701 4.47364,-0.23179 1.58469,0.4329 2.93183,1.3694 3.88938,2.70412 1.01968,1.42123 1.4642,3.23422 1.23496,5.0369 -0.0592,0.46615 -0.29044,1.32873 -0.47214,1.76206 -1.40787,3.35681 -5.00931,5.09686 -8.47102,4.09285 -1.44333,-0.41862 -2.66612,-1.23391 -3.59771,-2.3987 -0.21587,-0.26964 -0.72524,-1.06997 -0.8177,-1.28431 z"
       id="path5419-1-9-1"
       inkscape:connector-curvature="0"
       sodipodi:nodetypes="csssccccccsscsscssaacssscssssscccccccssscscccccacccsssssssssssc" />
    <path
       style="fill:#ffffff;fill-opacity:1;stroke:#000000;stroke-opacity:1"
       d="m 380.79322,210.55259 c -0.006,-0.58085 0.12866,-1.21205 0.37242,-1.75013 0.06,-0.13237 0.23415,-0.41518 0.38713,-0.62835 0.41847,-0.58355 0.89195,-0.96401 1.54607,-1.24293 0.24064,-0.10259 12.13405,-2.15239 38.83357,-6.54996 l 24.52239,-6.2871 -0.29501,-1.07861 -1.59596,-0.22279 -11.75611,0.31707 -11.75612,0.31709 -0.25061,-0.067 c -0.62411,-0.16605 -0.97761,-0.34734 -1.39483,-0.71598 -0.66549,-0.58799 -1.00125,-1.33703 -1.03205,-2.30294 -0.018,-0.57158 0.0553,-0.94316 0.29045,-1.46563 0.37157,-0.82591 1.00234,-1.86216 1.96092,-1.66502 l 0.35239,-0.10714 15.00525,-0.42835 c 16.1227,-0.46022 15.1939,-0.44447 15.95615,-0.27572 2.24673,0.4964 4.08173,2.51343 5.43317,4.41621 1.82321,2.56708 2.37192,5.84869 3.21092,8.88349 0.68374,2.47331 1.48317,4.8349 1.47353,7.55588 -0.11617,3.02644 -0.0244,2.03145 -0.11617,3.02644 -0.14426,1.57577 -0.83949,3.00817 -1.95572,4.03118 -0.57053,0.52294 0.27917,0.15888 -13.83043,7.684 l -13.09012,7.08101 -0.35559,0.083 c -0.94647,0.22088 -1.77591,0.0701 -2.50895,-0.45577 -0.46091,-0.33084 -0.91807,-0.71039 -1.06148,-1.25954 -0.24241,-0.92695 -0.45249,-1.50759 -0.17325,-2.34251 0.1751,-0.52343 0.52407,-0.75081 0.84167,-1.30683 l 0.18204,-0.18167 10.24649,-5.56362 10.24649,-5.56364 -0.51547,-0.97245 1.12409,0.0823 -24.44865,6.36961 c -20.48069,6.34145 -37.06896,12.90858 -37.32924,12.93704 -0.70101,0.0765 -1.31029,-0.0246 -1.95701,-0.3256 -0.63505,-0.29504 -1.08447,-0.6527 -1.4909,-1.18518 -0.3775,-0.4946 -0.61816,-1.02081 -0.73499,-1.60721 -0.31183,-1.5647 0.34789,-3.08176 1.70454,-3.92005 0.13273,-0.082 4.19679,-1.73829 16.88254,-6.94637 l 16.56601,-6.80108 0.46015,0.133 -0.33521,0.45065 -17.76193,1.80399 c -9.39966,1.12951 -17.7705,2.09907 -18.02967,2.11784 -0.48724,0.0352 -1.06652,-0.14176 -1.47774,-0.45203 -1.14754,-0.86569 -2.32925,-1.95013 -2.34543,-3.61876 z m 83.50152,-12.32832 c -0.0101,-0.0676 -0.0392,-0.27291 -0.0658,-0.45629 -0.097,-0.67232 -0.0605,-1.59128 0.0916,-2.3174 0.16715,-0.79649 0.40318,-1.4118 0.80965,-2.11114 0.76289,-1.31263 1.83889,-2.27358 3.28641,-2.93505 0.44811,-0.20477 1.54938,-0.49645 2.04012,-0.54035 1.61175,-0.14434 3.05247,0.16733 4.37852,0.9466 1.4163,0.83232 2.47147,2.08869 3.04657,3.62743 0.61234,1.63849 0.56705,3.50462 -0.1257,5.18458 -0.17913,0.43442 -0.62791,1.20646 -0.91667,1.57717 -2.23699,2.87162 -6.16821,3.60896 -9.24673,1.73426 -1.28355,-0.78163 -2.25048,-1.88839 -2.8449,-3.25635 -0.13766,-0.31678 -0.4201,-1.22239 -0.45335,-1.45347 z"
       id="path5419-9-3"
       inkscape:connector-curvature="0"
       sodipodi:nodetypes="csssccccccsscsscssaacssscssssscccccccssscscccccacccsssssssssssc" />
    <path
       style="fill:#ffffff;fill-opacity:1;stroke:#000000;stroke-opacity:1"
       d="m 388.21932,240.63359 c 0.0953,-0.57299 0.33715,-1.17129 0.67065,-1.65886 0.0821,-0.11997 0.3027,-0.36821 0.49037,-0.5516 0.51354,-0.50189 1.04583,-0.79447 1.73843,-0.95555 0.2548,-0.0594 12.32344,-0.0127 39.38097,0.29288 l 25.24159,-1.93328 -0.10319,-1.11345 -1.53305,-0.49656 -11.63256,-1.72917 -11.63257,-1.72919 -0.23519,-0.10947 c -0.5858,-0.27189 -0.90246,-0.51182 -1.24939,-0.94724 -0.55329,-0.69457 -0.75383,-1.4906 -0.61646,-2.44718 0.0814,-0.56603 0.21836,-0.91918 0.54053,-1.39292 0.50935,-0.74884 1.3105,-1.65981 2.22026,-1.29921 l 0.36561,-0.0445 14.85164,2.18382 c 15.95767,2.34648 15.04024,2.201 15.76162,2.49922 2.1264,0.87902 3.58332,3.18404 4.58379,5.2926 1.34974,2.84471 1.32027,6.1717 1.61955,9.30614 0.24385,2.55443 0.62105,5.01896 0.13908,7.69691 -0.63943,2.9604 -0.37673,1.99635 -0.63943,2.9604 -0.41587,1.52675 -1.34909,2.8167 -2.62598,3.63036 -0.65272,0.41589 0.24735,0.20485 -14.95467,5.16563 l -14.12084,4.70035 -0.36459,0.0199 c -0.97046,0.0532 -1.76111,-0.23923 -2.39167,-0.88454 -0.39652,-0.40577 -0.78073,-0.85903 -0.82665,-1.42471 -0.0778,-0.95495 -0.18381,-1.56329 0.23619,-2.33701 0.26335,-0.4851 0.6462,-0.6487 1.05581,-1.14083 l 0.21089,-0.14725 11.05693,-3.6998 11.05691,-3.69984 -0.33874,-1.04717 1.0927,0.27628 -25.1833,2.02738 c -21.27072,2.68869 -38.74733,6.27551 -39.00861,6.25831 -0.70367,-0.0463 -1.28608,-0.2519 -1.87072,-0.66045 -0.57419,-0.40085 -0.95466,-0.83114 -1.26245,-1.42607 -0.28591,-0.55263 -0.43153,-1.11264 -0.44475,-1.71042 -0.0355,-1.59508 0.8777,-2.97455 2.35936,-3.5645 0.14496,-0.0576 4.4349,-0.9831 17.83226,-3.9092 l 17.49534,-3.82112 0.43009,0.21088 -0.40839,0.38556 -17.80533,-1.30772 c -9.45302,-0.51991 -17.86504,-1.01863 -18.12356,-1.04518 -0.4859,-0.0505 -1.02567,-0.32483 -1.37677,-0.70175 -0.97977,-1.05181 -1.95524,-2.32498 -1.6814,-3.97108 z m 84.37371,2.35887 c 0.003,-0.0683 0.008,-0.2756 0.0145,-0.4608 0.0214,-0.67896 0.21664,-1.57763 0.49285,-2.26623 0.30296,-0.75536 0.64222,-1.32037 1.16396,-1.93848 0.97921,-1.1602 2.20574,-1.91973 3.74613,-2.31979 0.47688,-0.12385 1.61206,-0.21985 2.10297,-0.17786 1.6123,0.13771 2.97702,0.69482 4.14761,1.69254 1.25023,1.06557 2.07124,2.48611 2.37037,4.10133 0.31852,1.71995 -0.0503,3.54986 -1.0241,5.08398 -0.25184,0.39672 -0.82786,1.0791 -1.1766,1.39406 -2.70167,2.43953 -6.70119,2.48299 -9.4074,0.10224 -1.12833,-0.99266 -1.8884,-2.25053 -2.23625,-3.70089 -0.0806,-0.33588 -0.20146,-1.27679 -0.19394,-1.51012 z"
       id="path5419-4-6-3"
       inkscape:connector-curvature="0"
       sodipodi:nodetypes="csssccccccsscsscssaacssscssssscccccccssscscccccacccsssssssssssc" />
    <path
       style="fill:#ffffff;fill-opacity:1;stroke:#000000;stroke-opacity:1"
       d="m 390.46175,271.1687 c 0.19329,-0.54778 0.53545,-1.09495 0.94854,-1.51721 0.10166,-0.10393 0.36207,-0.31004 0.5787,-0.45807 0.59288,-0.40509 1.16787,-0.60077 1.87794,-0.63916 0.26123,-0.0138 12.13844,2.1275 38.73182,7.12691 l 25.19383,2.4792 0.0917,-1.11445 -1.42353,-0.75521 -11.15557,-3.72287 -11.15558,-3.7229 -0.21266,-0.14859 c -0.5297,-0.36951 -0.79988,-0.66077 -1.06586,-1.14983 -0.42432,-0.78011 -0.48356,-1.59884 -0.18217,-2.51704 0.17835,-0.54333 0.37464,-0.8673 0.7742,-1.27787 0.63166,-0.64903 1.57879,-1.40706 2.41214,-0.89397 l 0.36777,0.0198 14.24681,4.7296 c 15.30778,5.08182 14.42951,4.77926 15.08817,5.19823 1.94148,1.23493 2.97596,3.75791 3.59508,6.00816 0.83529,3.03587 0.22855,6.30722 -0.0211,9.44598 -0.20342,2.55798 -0.25993,5.05058 -1.19958,7.60415 -1.14377,2.8044 -0.71768,1.9006 -1.14377,2.8044 -0.67468,1.43132 -1.8177,2.53961 -3.21654,3.11918 -0.71498,0.29623 0.20806,0.24467 -15.62443,2.49029 l -14.72252,2.17691 -0.36254,-0.0438 c -0.96493,-0.11612 -1.69279,-0.5414 -2.20169,-1.2864 -0.32005,-0.46847 -0.61973,-0.98156 -0.56671,-1.54662 0.0892,-0.95396 0.0903,-1.57145 0.63837,-2.2605 0.34359,-0.43196 0.74902,-0.52665 1.23787,-0.94016 l 0.23324,-0.10847 11.5314,-1.72361 11.5314,-1.72362 -0.15194,-1.09007 1.02816,0.46185 -25.15278,-2.37649 c -21.41445,-1.0458 -39.2484,-0.54821 -39.50273,-0.61055 -0.68494,-0.16772 -1.22279,-0.47142 -1.72762,-0.97526 -0.49561,-0.4947 -0.79582,-0.98428 -0.99561,-1.62363 -0.18566,-0.59389 -0.23174,-1.17067 -0.14101,-1.76167 0.24222,-1.57699 1.38093,-2.77694 2.94252,-3.10066 0.15268,-0.032 4.53823,-0.19808 18.24016,-0.75328 l 17.8931,-0.72502 0.3869,0.28235 -0.46913,0.30881 -17.30773,-4.37971 c -9.21915,-2.15354 -17.41676,-4.10541 -17.66673,-4.17644 -0.46988,-0.1336 -0.95368,-0.498 -1.234,-0.93016 -0.78227,-1.20594 -1.52182,-2.62916 -0.9663,-4.20271 z m 82.68228,16.97438 c 0.0143,-0.0668 0.0564,-0.26986 0.0942,-0.45129 0.13878,-0.66496 0.48726,-1.51606 0.87889,-2.1462 0.42962,-0.69126 0.86174,-1.18881 1.48289,-1.7069 1.16583,-0.97256 2.50559,-1.50755 4.09204,-1.63405 0.49116,-0.0392 1.62575,0.0638 2.10188,0.19043 1.56391,0.4156 2.81115,1.20125 3.79069,2.38705 1.04623,1.26651 1.60807,2.80804 1.62218,4.45064 0.015,1.74913 -0.66575,3.48725 -1.89136,4.82891 -0.31695,0.34694 -1.00266,0.91898 -1.40084,1.16856 -3.08421,1.93334 -7.03053,1.28163 -9.28221,-1.53287 -0.93881,-1.17352 -1.4689,-2.54425 -1.55963,-4.033 -0.0211,-0.34475 0.0234,-1.29238 0.0711,-1.52086 z"
       id="path5419-7-5-0"
       inkscape:connector-curvature="0"
       sodipodi:nodetypes="csssccccccsscsscssaacssscssssscccccccssscscccccacccsssssssssssc" />
    <path
       style="fill:#ffffff;fill-opacity:1;stroke:#000000;stroke-opacity:1"
       d="m 386.82099,301.87526 c 0.28553,-0.50585 0.71741,-0.98532 1.19757,-1.32946 0.11812,-0.0847 0.4104,-0.24245 0.64945,-0.35059 0.65422,-0.29599 1.25446,-0.38889 1.9604,-0.30335 0.25972,0.0313 11.58459,4.20297 36.90583,13.74433 l 24.38057,6.81642 0.28383,-1.08161 -1.27077,-0.99094 -10.33961,-5.60345 -10.33963,-5.60349 -0.1838,-0.18307 c -0.45756,-0.45576 -0.67296,-0.78962 -0.85,-1.31744 -0.28238,-0.84194 -0.19854,-1.65852 0.25763,-2.51045 0.27001,-0.50409 0.51957,-0.78906 0.98436,-1.12404 0.73475,-0.52947 1.79916,-1.1115 2.53075,-0.46144 l 0.35869,0.0835 13.20909,7.1317 c 14.19277,7.66278 13.38039,7.21229 13.95631,7.73928 1.69752,1.55329 2.27818,4.21758 2.49715,6.54117 0.29541,3.13477 -0.87019,6.25106 -1.66101,9.29878 -0.64451,2.48383 -1.13298,4.92872 -2.50184,7.28033 -1.61334,2.56318 -1.03677,1.74712 -1.61334,2.56318 -0.91298,1.29242 -2.23112,2.18539 -3.70932,2.51325 -0.75557,0.1676 0.16239,0.27711 -15.81949,-0.26066 l -14.87688,-0.41271 -0.34947,-0.10594 c -0.93015,-0.28193 -1.57311,-0.82711 -1.94491,-1.64917 -0.23384,-0.51694 -0.43985,-1.07425 -0.28949,-1.62154 0.25353,-0.92395 0.36195,-1.53185 1.0212,-2.11532 0.41337,-0.36576 0.82908,-0.38856 1.38234,-0.71089 l 0.2485,-0.0664 11.65553,0.30502 11.65552,0.30499 0.0401,-1.09987 0.93233,0.63336 -24.35798,-6.70808 c -20.90755,-4.74849 -38.55695,-7.35532 -38.7966,-7.46085 -0.64541,-0.28411 -1.12235,-0.67658 -1.532,-1.26043 -0.4022,-0.57325 -0.61283,-1.1075 -0.69857,-1.77185 -0.0798,-0.61709 -0.025,-1.19313 0.16744,-1.75935 0.51231,-1.51098 1.84214,-2.49498 3.43625,-2.5426 0.1559,-0.005 4.50365,0.59302 18.09384,2.42555 l 17.74716,2.39308 0.33223,0.34501 -0.51562,0.22264 -16.28427,-7.31863 c -8.7051,-3.72169 -16.43923,-7.06743 -16.6731,-7.18078 -0.43952,-0.21314 -0.8527,-0.65603 -1.05371,-1.13031 -0.56096,-1.32349 -1.04214,-2.85348 -0.2218,-4.30666 z m 78.47856,31.07412 c 0.0254,-0.0635 0.10256,-0.25595 0.17117,-0.42804 0.25215,-0.63077 0.74314,-1.40843 1.23823,-1.961 0.54305,-0.60619 1.0551,-1.02107 1.75675,-1.42349 1.31702,-0.75531 2.72935,-1.04953 4.31364,-0.89864 0.49047,0.0467 1.59004,0.34478 2.03697,0.55211 1.46799,0.68085 2.55987,1.67115 3.31863,3.00903 0.81039,1.42894 1.09601,3.04461 0.82467,4.66473 -0.28892,1.72516 -1.26117,3.31866 -2.70116,4.42711 -0.37236,0.28664 -1.147,0.73091 -1.58246,0.90756 -3.37309,1.36839 -7.14629,0.0413 -8.87501,-3.12144 -0.72079,-1.31869 -1.00481,-2.76067 -0.83561,-4.24253 0.0391,-0.34321 0.24742,-1.2687 0.33412,-1.48541 z"
       id="path5419-1-8-2"
       inkscape:connector-curvature="0"
       sodipodi:nodetypes="csssccccccsscsscssaacssscssssscccccccssscscccccacccsssssssssssc" />
    <path
       style="fill:#ffffff;fill-opacity:1;stroke:#000000;stroke-opacity:1"
       d="m 377.90341,330.93735 c 0.36901,-0.4486 0.87765,-0.84577 1.41024,-1.1013 0.13102,-0.0628 0.44625,-0.16749 0.70047,-0.2325 0.69569,-0.17788 1.30293,-0.1651 1.9833,0.0417 0.25028,0.076 10.67874,6.15078 33.95846,19.94417 l 22.82652,10.94647 0.46734,-1.01588 -1.07942,-1.19652 -9.2095,-7.3138 -9.2095,-7.31379 -0.14925,-0.21218 c -0.37146,-0.52833 -0.52562,-0.8945 -0.60831,-1.44506 -0.13153,-0.87822 0.0924,-1.66782 0.68969,-2.42755 0.35343,-0.44955 0.64869,-0.68687 1.16458,-0.93602 0.81553,-0.39383 1.96483,-0.78221 2.57242,-0.0149 l 0.33878,0.14448 11.76999,9.31708 c 12.64651,10.01092 11.92472,9.4262 12.40037,10.04518 1.40201,1.82448 1.51121,4.5491 1.32334,6.8754 -0.25345,3.13847 -1.94244,6.00501 -3.25047,8.86913 -1.06605,2.33415 -1.97165,4.65709 -3.72804,6.73526 -2.03395,2.24409 -1.32444,1.54054 -2.03395,2.24409 -1.12361,1.11417 -2.5767,1.76478 -4.08937,1.83096 -0.77319,0.0339 0.11175,0.30111 -15.53391,-3.00376 l -14.57919,-2.98978 -0.32572,-0.16503 c -0.86703,-0.43917 -1.40558,-1.08774 -1.62901,-1.96185 -0.14048,-0.54969 -0.2466,-1.13432 -0.003,-1.64717 0.41012,-0.86588 0.62244,-1.44573 1.37302,-1.90583 0.47059,-0.28843 0.88396,-0.23869 1.48476,-0.4601 l 0.25624,-0.0222 11.42548,2.32434 11.4255,2.32433 0.23023,-1.07627 0.80819,0.78562 -22.82309,-10.83589 c -19.76534,-8.3069 -36.69393,-13.93892 -36.91161,-14.08444 -0.58627,-0.39187 -0.98784,-0.86119 -1.28986,-1.50733 -0.29655,-0.63439 -0.4112,-1.19711 -0.38028,-1.86624 0.0292,-0.62153 0.18264,-1.17932 0.47004,-1.70365 0.76691,-1.39906 2.2474,-2.13716 3.82553,-1.90726 0.15435,0.0224 4.33228,1.36605 17.39779,5.53065 l 17.06199,5.4385 0.26729,0.39744 -0.54645,0.12971 -14.76601,-10.03518 c -7.92659,-5.17675 -14.96226,-9.81468 -15.17286,-9.96692 -0.39586,-0.28621 -0.72583,-0.79417 -0.84146,-1.29612 -0.3226,-1.4008 -0.53079,-2.99111 0.52942,-4.27975 z m 71.89035,44.22969 c 0.036,-0.058 0.14538,-0.23429 0.24291,-0.39181 0.35783,-0.57739 0.97648,-1.25793 1.55993,-1.71618 0.64009,-0.50268 1.21637,-0.82235 1.97726,-1.09682 1.42815,-0.51513 2.87009,-0.55963 4.40411,-0.13616 0.4749,0.13116 1.50604,0.61563 1.91018,0.89745 1.32746,0.92541 2.23078,2.09027 2.74569,3.53959 0.54995,1.54796 0.55065,3.18868 0.002,4.73705 -0.58412,1.64877 -1.81832,3.04923 -3.42891,3.89079 -0.41648,0.21764 -1.2565,0.52065 -1.716,0.61898 -3.55946,0.76189 -7.0449,-1.20025 -8.19815,-4.61514 -0.48083,-1.42383 -0.51011,-2.89321 -0.0862,-4.32318 0.0981,-0.33118 0.46395,-1.20646 0.58707,-1.40479 z"
       id="path5419-2-7-9"
       inkscape:connector-curvature="0"
       sodipodi:nodetypes="csssccccccsscsscssaacssscssssscccccccssscscccccacccsssssssssssc" />
    <path
       style="fill:#ffffff;fill-opacity:1;stroke:#000000;stroke-opacity:1"
       d="m 362.96101,357.91636 c 0.44133,-0.37769 1.01117,-0.68051 1.58004,-0.83968 0.14,-0.0391 0.46857,-0.0875 0.73024,-0.10718 0.716,-0.0544 1.31179,0.0636 1.94592,0.38545 0.23328,0.11832 9.44845,7.91166 29.97931,25.53797 l 20.57886,14.74398 0.63665,-0.91929 -0.85521,-1.36579 -7.79956,-8.8019 -7.79958,-8.8019 -0.11009,-0.2349 c -0.27409,-0.5848 -0.36233,-0.97218 -0.34815,-1.52873 0.0226,-0.88773 0.38065,-1.62642 1.10075,-2.27089 0.42612,-0.38136 0.75808,-0.56382 1.30942,-0.71959 0.87153,-0.24625 2.07081,-0.42913 2.53596,0.4319 l 0.30854,0.2011 9.9733,11.21936 c 10.71601,12.0549 10.10671,11.35372 10.46763,12.04591 1.06389,2.04018 0.69834,4.74241 0.10934,7.00073 -0.79455,3.04677 -2.95567,5.57649 -4.74121,8.16992 -1.45515,2.11359 -2.75039,4.24398 -4.84096,5.9856 -2.39272,1.8568 -1.57182,1.28715 -2.39272,1.8568 -1.30002,0.90212 -2.84401,1.2905 -4.3452,1.09303 -0.76731,-0.10095 0.0578,0.31594 -14.77631,-5.65556 l -13.83852,-5.47602 -0.29216,-0.21905 c -0.77761,-0.58303 -1.19534,-1.31528 -1.26357,-2.21492 -0.0428,-0.56573 -0.0458,-1.15991 0.28255,-1.62278 0.55426,-0.78151 0.86404,-1.31567 1.68313,-1.63843 0.51353,-0.20231 0.91199,-0.0814 1.54209,-0.1953 l 0.25618,0.023 10.84831,4.27305 10.84825,4.27301 0.41364,-1.01993 0.65949,0.91403 -20.59471,-14.63443 c -18.02258,-11.61292 -33.71601,-20.09902 -33.90512,-20.28013 -0.5093,-0.48774 -0.8233,-1.01963 -1.00851,-1.7084 -0.18185,-0.67625 -0.19704,-1.25033 -0.0507,-1.90392 0.13618,-0.60711 0.38462,-1.12971 0.75871,-1.59615 0.99822,-1.24463 2.58441,-1.71443 4.09863,-1.21399 0.14811,0.0489 4.02925,2.0976 16.17307,8.46774 l 15.85838,8.31865 0.19425,0.43783 -0.56067,0.0329 -12.79911,-12.44682 c -6.90722,-6.47456 -13.03063,-12.26374 -13.21161,-12.45025 -0.34021,-0.35053 -0.57688,-0.90813 -0.60357,-1.42255 -0.0745,-1.43553 -0.003,-3.03781 1.26451,-4.12279 z m 63.11777,56.04138 c 0.0456,-0.0508 0.18382,-0.20552 0.30721,-0.34372 0.45271,-0.50644 1.18006,-1.06927 1.83426,-1.41922 0.71766,-0.38389 1.3407,-0.59863 2.13766,-0.7368 1.49593,-0.25926 2.92371,-0.0528 4.36085,0.63091 0.44492,0.21167 1.37623,0.86781 1.72532,1.2155 1.14641,1.14203 1.8339,2.44589 2.08932,3.96262 0.27279,1.61992 -0.0114,3.23584 -0.82048,4.66543 -0.86156,1.52232 -2.32018,2.68717 -4.05244,3.23629 -0.44794,0.142 -1.3278,0.29455 -1.79741,0.31159 -3.6377,0.13215 -6.72946,-2.40534 -7.27221,-5.96863 -0.22627,-1.4857 10e-6,-2.93783 0.66581,-4.27248 0.15416,-0.3091 0.66642,-1.10756 0.82203,-1.28156 z"
       id="path5419-4-3-7-4"
       inkscape:connector-curvature="0"
       sodipodi:nodetypes="csssccccccsscsscssaacssscssssscccccccssscscccccacccsssssssssssc" />
    <path
       style="fill:#ffffff;fill-opacity:1;stroke:#000000;stroke-opacity:1"
       d="m 344.64858,381.30299 c 0.50024,-0.29527 1.11398,-0.49458 1.70186,-0.55255 0.14478,-0.0133 0.47667,-0.004 0.73771,0.0216 0.71461,0.0708 1.28084,0.29047 1.84946,0.71746 0.20918,0.15715 7.93103,9.43217 25.08922,30.35586 l 17.70596,18.09346 0.78661,-0.79478 -0.60506,-1.49357 -6.15265,-10.02256 -6.15263,-10.02252 -0.0677,-0.25045 c -0.16839,-0.62347 -0.18796,-1.02033 -0.0773,-1.56594 0.17646,-0.87033 0.6573,-1.53564 1.47837,-2.04531 0.48583,-0.30156 0.84446,-0.4236 1.41446,-0.48125 0.90107,-0.0911 2.11386,-0.063 2.4224,0.8657 l 0.26896,0.25162 7.87353,12.78076 c 8.45993,13.73256 7.98164,12.93624 8.2169,13.68057 0.69346,2.19395 -0.13592,4.79163 -1.10796,6.91338 -1.31156,2.86251 -3.87917,4.97853 -6.0879,7.22251 -1.80008,1.82878 -3.44555,3.70189 -5.80681,5.05401 -2.67879,1.41309 -1.77144,0.99465 -2.67879,1.41309 -1.43693,0.6627 -3.02486,0.77707 -4.46896,0.32189 -0.73813,-0.23269 10e-4,0.32119 -13.56977,-8.13552 l -12.6774,-7.79588 -0.24967,-0.26639 c -0.66454,-0.70926 -0.94878,-1.50289 -0.85976,-2.40072 0.0558,-0.56462 0.15621,-1.15026 0.56006,-1.54902 0.68153,-0.67342 1.07937,-1.14567 1.94203,-1.32131 0.54086,-0.11015 0.91228,0.0783 1.55258,0.0755 l 0.24836,0.0669 9.94149,6.09188 9.94148,6.09194 0.58449,-0.93261 0.49075,1.01466 -17.7406,-17.98832 c -15.73219,-14.56611 -29.71359,-25.64839 -29.86838,-25.85958 -0.4169,-0.56876 -0.63374,-1.14711 -0.69654,-1.8576 -0.0617,-0.69755 0.0231,-1.26551 0.28094,-1.88372 0.2396,-0.57423 0.57494,-1.04578 1.02441,-1.44016 1.19916,-1.05239 2.84283,-1.2396 4.24714,-0.48385 0.13733,0.0739 3.60379,2.76542 14.45697,11.14754 l 14.17293,10.94602 0.11526,0.46493 -0.55787,-0.065 -10.44328,-14.48023 c -5.678,-7.57565 -10.70311,-14.34019 -10.84893,-14.55529 -0.27412,-0.40434 -0.41044,-0.99453 -0.3474,-1.50575 0.17592,-1.42664 0.52422,-2.99223 1.96123,-3.84059 z m 52.42739,66.15026 c 0.0539,-0.0424 0.21672,-0.17047 0.36225,-0.28515 0.53376,-0.42013 1.34776,-0.84815 2.05281,-1.07913 0.77342,-0.25345 1.42428,-0.35672 2.23315,-0.35445 1.51821,0.004 2.88843,0.45574 4.18501,1.37858 0.40162,0.28537 1.20464,1.09358 1.48804,1.49664 0.9309,1.32361 1.38133,2.72716 1.36948,4.26519 -0.0126,1.64272 -0.57312,3.18471 -1.61815,4.4521 -1.11281,1.34957 -2.75155,2.24346 -4.55285,2.4834 -0.46579,0.062 -1.35881,0.0595 -1.82422,-0.005 -3.6054,-0.50149 -6.20952,-3.53737 -6.12528,-7.14074 0.0351,-1.50244 0.51015,-2.89321 1.39762,-4.09195 0.20543,-0.27771 0.8486,-0.975 1.03213,-1.11927 z"
       id="path5419-7-8-3-6"
       inkscape:connector-curvature="0"
       sodipodi:nodetypes="csssccccccsscsscssaacssscssssscccccccssscscccccacccsssssssssssc" />
    <path
       style="fill:#ffffff;fill-opacity:1;stroke:#000000;stroke-opacity:1"
       d="m 322.0044,401.0724 c 0.54601,-0.19825 1.18599,-0.28115 1.77443,-0.23042 0.1447,0.0132 0.46936,0.0831 0.72126,0.15653 0.68933,0.20105 1.20549,0.52122 1.68581,1.04557 0.17664,0.19297 6.05988,10.73059 19.07456,34.45443 l 14.07401,21.04276 0.91942,-0.63643 -0.31988,-1.57942 -4.2032,-10.9836 -4.20319,-10.9836 -0.0204,-0.25861 c -0.0508,-0.64382 0.003,-1.03752 0.2121,-1.55344 0.33358,-0.823 0.92865,-1.38847 1.8295,-1.73831 0.53303,-0.20702 0.90799,-0.26097 1.47891,-0.21273 0.9024,0.0763 2.08934,0.32706 2.22175,1.29669 l 0.21803,0.2968 5.38714,14.0114 c 5.78835,15.05487 5.46475,14.18412 5.55901,14.95902 0.27787,2.28411 -1.01527,4.68482 -2.36125,6.59143 -1.8159,2.5723 -4.72908,4.17965 -7.31305,5.97885 -2.10587,1.46632 -4.06793,3.00464 -6.63767,3.89914 -2.8931,0.89601 -1.92424,0.65167 -2.8931,0.89601 -1.53433,0.38693 -3.11621,0.20712 -4.45189,-0.50603 -0.68271,-0.36455 -0.057,0.31606 -11.84089,-10.49372 l -11.02625,-9.99567 -0.19649,-0.30778 c -0.52267,-0.81938 -0.65602,-1.6518 -0.40326,-2.5179 0.15888,-0.54465 0.36523,-1.10188 0.83555,-1.41953 0.79382,-0.53648 1.27171,-0.92754 2.15202,-0.94133 0.55189,-0.009 0.88234,0.24457 1.51218,0.3599 l 0.2318,0.11139 8.65066,7.81733 8.65064,7.8173 0.74602,-0.80915 0.29568,1.08762 -14.12735,-20.94578 c -12.78306,-17.21244 -24.48631,-30.67837 -24.59956,-30.91445 -0.30512,-0.63577 -0.41183,-1.24414 -0.34283,-1.95402 0.0675,-0.69699 0.25556,-1.23971 0.62281,-1.79989 0.34119,-0.52033 0.75758,-0.92207 1.27191,-1.22702 1.37235,-0.81375 3.02242,-0.69527 4.26368,0.306 0.1211,0.0984 3.03332,3.38137 12.15866,13.61758 l 11.91657,13.36725 0.0278,0.47819 -0.5364,-0.16657 -7.6002,-16.15478 c -4.18695,-8.49115 -7.8814,-16.0649 -7.98516,-16.30315 -0.195,-0.44786 -0.22044,-1.05306 -0.0644,-1.54394 0.43548,-1.36993 1.06592,-2.8447 2.6345,-3.41411 z m 39.35887,74.66839 c 0.0606,-0.0317 0.24439,-0.1277 0.40855,-0.21364 0.60196,-0.31472 1.4808,-0.58561 2.21635,-0.68294 0.80682,-0.10682 1.46559,-0.0886 2.2602,0.0626 1.4915,0.28369 2.75522,0.9795 3.85988,2.12517 0.34223,0.3544 0.98281,1.2966 1.1872,1.7449 0.67141,1.47232 0.85587,2.9348 0.56122,4.44438 -0.31483,1.61232 -1.1494,3.02487 -2.40979,4.0783 -1.34219,1.12174 -3.11744,1.69878 -4.93213,1.60318 -0.46927,-0.0246 -1.34654,-0.19156 -1.79209,-0.34087 -3.45153,-1.15642 -5.45252,-4.61969 -4.70661,-8.146 0.31101,-1.4703 1.03385,-2.74991 2.12676,-3.76486 0.25297,-0.23515 1.01354,-0.80221 1.22047,-0.91022 z"
       id="path5419-1-4-8-7"
       inkscape:connector-curvature="0"
       sodipodi:nodetypes="csssccccccsscsscssaacssscssssscccccccssscscccccacccsssssssssssc" />
    <path
       style="fill:#ffffff;fill-opacity:1;stroke:#000000;stroke-opacity:1"
       d="m 296.93819,415.93226 c 0.57466,-0.0846 1.21824,-0.0374 1.78453,0.13086 0.13933,0.0415 0.44308,0.17567 0.67519,0.29801 0.63497,0.3353 1.07635,0.75255 1.44167,1.36265 0.13432,0.22452 3.78287,11.72847 11.77126,37.58168 l 9.56422,23.43931 1.02847,-0.43899 0.003,-1.61144 -1.91318,-11.60371 -1.91318,-11.60371 0.0321,-0.25745 c 0.0795,-0.64094 0.21119,-1.01579 0.51959,-1.4793 0.49196,-0.7393 1.18842,-1.17379 2.14115,-1.33572 0.56377,-0.0958 0.94193,-0.0734 1.49148,0.0884 0.86882,0.25574 1.9812,0.73975 1.91631,1.71622 l 0.15404,0.33454 2.46536,14.80755 c 2.64897,15.91024 2.50674,14.99226 2.44356,15.77032 -0.18617,2.29341 -1.9349,4.38569 -3.63619,5.98339 -2.29519,2.15551 -5.47168,3.14543 -8.36417,4.38941 -2.35731,1.01383 -4.58822,2.12707 -7.28519,2.48757 -3.01405,0.29717 -2.0159,0.25217 -3.01405,0.29717 -1.58078,0.0711 -3.09441,-0.42262 -4.25974,-1.38923 -0.59565,-0.49417 -0.11942,0.29816 -9.49383,-12.65674 l -8.79575,-12.00526 -0.13054,-0.34105 c -0.34759,-0.90761 -0.31114,-1.7498 0.11033,-2.54758 0.26497,-0.50167 0.57894,-1.00615 1.10345,-1.22297 0.88532,-0.36623 1.43196,-0.65342 2.29714,-0.49024 0.54243,0.10215 0.81532,0.41668 1.40921,0.65605 l 0.20471,0.15565 6.90566,9.39448 6.90566,9.3945 0.89333,-0.6429 0.0713,1.12484 -9.63595,-23.35503 c -9.06831,-19.42778 -17.83076,-34.96861 -17.89432,-35.22262 -0.17129,-0.68406 -0.15378,-1.30143 0.0564,-1.98308 0.20624,-0.66919 0.49917,-1.16317 0.97141,-1.63822 0.43871,-0.44123 0.92721,-0.75128 1.49227,-0.9468 1.50775,-0.52173 3.10046,-0.0745 4.11551,1.15553 0.0989,0.12064 2.29295,3.92133 9.17815,15.78074 l 8.99126,15.48697 -0.0686,0.47407 -0.49204,-0.27082 -4.20323,-17.35146 c -2.39751,-9.1587 -4.49672,-17.31985 -4.55059,-17.57406 -0.1012,-0.4779 -0.005,-1.0759 0.24681,-1.52548 0.70157,-1.25465 1.61518,-2.57286 3.26611,-2.81585 z m 23.5717,81.04853 c 0.0658,-0.0188 0.26504,-0.076 0.44306,-0.12731 0.65289,-0.18751 1.5683,-0.27641 2.30835,-0.22424 0.81185,0.0574 1.45354,0.20736 2.20165,0.51496 1.40421,0.57728 2.50262,1.51255 3.35484,2.85662 0.26415,0.41589 0.70256,1.46748 0.81281,1.94769 0.36223,1.57711 0.24941,3.04685 -0.34266,4.46656 -0.63202,1.5163 -1.73309,2.73263 -3.17932,3.51161 -1.53998,0.82955 -3.39491,1.03855 -5.15349,0.58061 -0.45473,-0.11837 -1.28068,-0.45795 -1.6872,-0.6936 -3.14923,-1.8256 -4.4144,-5.62001 -2.9759,-8.92488 0.59977,-1.37797 1.56472,-2.48645 2.83908,-3.2614 0.29503,-0.17962 1.15393,-0.58247 1.37834,-0.64675 z"
       id="path5419-8-1-9"
       inkscape:connector-curvature="0"
       sodipodi:nodetypes="csssccccccsscsscssaacssscssssscccccccssscscccccacccsssssssssssc" />
    <path
       style="fill:#ffffff;fill-opacity:1;stroke:#000000;stroke-opacity:1"
       d="m 267.19862,427.22256 c 0.58083,-0.006 1.21202,0.12866 1.75012,0.37242 0.13243,0.06 0.41508,0.23434 0.62836,0.38717 0.58354,0.41842 0.96398,0.89197 1.24291,1.54608 0.10251,0.24067 2.15239,12.13404 6.54996,38.83353 l 6.28711,24.5224 1.0786,-0.29498 0.22279,-1.59601 -0.31708,-11.75611 -0.31708,-11.7561 0.0665,-0.25076 c 0.16591,-0.62417 0.34736,-0.97762 0.71596,-1.39487 0.58788,-0.66554 1.33701,-1.00123 2.30294,-1.03208 0.57153,-0.018 0.94312,0.0552 1.46562,0.29045 0.82585,0.37162 1.86216,1.00238 1.665,1.96094 l 0.10713,0.35239 0.42825,15.00523 c 0.46022,16.12271 0.44448,15.19389 0.27576,15.95614 -0.49644,2.24677 -2.51346,4.08176 -4.41624,5.43319 -2.56713,1.82318 -5.84869,2.37194 -8.8835,3.21093 -2.4733,0.68373 -4.8349,1.48317 -7.55586,1.47351 -3.02646,-0.11518 -2.03144,-0.0244 -3.02646,-0.11518 -1.57579,-0.14426 -3.00819,-0.83951 -4.03118,-1.95572 -0.52298,-0.57053 -0.1588,0.27918 -7.684,-13.83046 l -7.08104,-13.09011 -0.083,-0.35556 c -0.22087,-0.94651 -0.0703,-1.77591 0.45577,-2.50896 0.33082,-0.4609 0.71048,-0.918 1.25955,-1.06148 0.92694,-0.24242 1.50756,-0.45257 2.34248,-0.17325 0.52347,0.17509 0.75081,0.52407 1.3069,0.84169 l 0.18163,0.18203 5.56359,10.24649 5.56365,10.24649 0.97245,-0.51541 -0.0823,1.12409 -6.36961,-24.44866 c -6.34146,-20.4807 -12.90857,-37.06895 -12.93703,-37.32925 -0.0767,-0.70099 0.0246,-1.31029 0.32556,-1.95698 0.29537,-0.63494 0.65272,-1.0845 1.18521,-1.4909 0.49458,-0.37749 1.0208,-0.61816 1.6072,-0.73499 1.56473,-0.31183 3.08178,0.34789 3.92006,1.70455 0.0816,0.13297 1.73829,4.19678 6.94636,16.8825 l 6.80111,16.56605 -0.1327,0.46027 -0.45065,-0.33524 -1.804,-17.76189 c -1.12946,-9.39971 -2.09906,-17.77054 -2.11781,-18.02974 -0.0352,-0.48721 0.14186,-1.06647 0.45203,-1.47773 0.86568,-1.1475 1.95012,-2.3292 3.61875,-2.34538 z m 12.32831,83.50152 c 0.0678,-0.0101 0.27292,-0.0393 0.45629,-0.0658 0.67232,-0.0969 1.59126,-0.0604 2.3174,0.0916 0.79648,0.16724 1.41179,0.4032 2.11114,0.80966 1.31261,0.76289 2.27358,1.83887 2.93503,3.28639 0.20515,0.44794 0.49647,1.5494 0.54037,2.04014 0.14445,1.61171 -0.16733,3.05246 -0.9466,4.37854 -0.83239,1.41624 -2.08868,2.47147 -3.62744,3.04654 -1.63848,0.61235 -3.50464,0.56705 -5.18456,-0.1257 -0.43439,-0.17916 -1.20648,-0.62788 -1.57721,-0.91668 -2.8716,-2.237 -3.60891,-6.16825 -1.73425,-9.24672 0.78164,-1.28357 1.88841,-2.25051 3.25634,-2.84494 0.31679,-0.13777 1.22242,-0.42009 1.45347,-0.45334 z"
       id="path5419-4-38-2-0"
       inkscape:connector-curvature="0"
       sodipodi:nodetypes="csssccccccsscsscssaacssscssssscccccccssscscccccacccsssssssssssc" />
    <path
       style="fill:#ffffff;fill-opacity:1;stroke:#000000;stroke-opacity:1"
       d="m 237.55362,432.25812 c 0.57302,0.0953 1.17128,0.3372 1.65886,0.67065 0.11995,0.082 0.36808,0.30286 0.55162,0.49037 0.50199,0.51342 0.79444,1.0458 0.95555,1.73842 0.0592,0.25485 0.0127,12.32346 -0.29291,39.38099 l 1.93329,25.24157 1.11348,-0.10318 0.49651,-1.53306 1.72921,-11.63253 1.72913,-11.63261 0.10919,-0.23533 c 0.2718,-0.58586 0.51184,-0.90244 0.94732,-1.24933 0.69461,-0.55327 1.49061,-0.75376 2.44718,-0.61649 0.56604,0.0812 0.91916,0.2183 1.3929,0.54054 0.74878,0.50941 1.65979,1.31048 1.29923,2.22026 l 0.0446,0.36555 -2.18383,14.85164 c -2.34645,15.9577 -2.20098,15.04024 -2.4992,15.76164 -0.87902,2.12642 -3.18407,3.58329 -5.29259,4.58377 -2.84468,1.34983 -6.17173,1.32031 -9.30613,1.61957 -2.55447,0.24383 -5.01899,0.62104 -7.69696,0.13906 -2.96039,-0.63941 -1.99635,-0.37675 -2.96039,-0.63941 -1.52669,-0.41599 -2.81667,-1.34912 -3.63035,-2.626 -0.41595,-0.65266 -0.20483,0.24736 -5.16563,-14.95467 l -4.70035,-14.12085 -0.0199,-0.36457 c -0.0532,-0.97046 0.23922,-1.76112 0.88454,-2.39166 0.40583,-0.39646 0.859,-0.78077 1.42471,-0.82667 0.95496,-0.0777 1.56324,-0.18379 2.33702,0.23611 0.48508,0.26333 0.64842,0.64649 1.14083,1.05582 l 0.14731,0.2108 3.69979,11.05694 3.69983,11.05693 1.04719,-0.33871 -0.27626,1.09274 -2.02739,-25.1833 c -2.68871,-21.27077 -6.2755,-38.74738 -6.25832,-39.00865 0.0463,-0.70368 0.25191,-1.28607 0.66044,-1.87074 0.40085,-0.57417 0.83112,-0.95465 1.42607,-1.26242 0.55269,-0.28582 1.11264,-0.43151 1.71046,-0.44473 1.59506,-0.0354 2.97452,0.87773 3.56449,2.35936 0.0573,0.14507 0.9831,4.43489 3.9092,17.83226 l 3.82112,17.49533 -0.21054,0.43027 -0.38555,-0.40836 1.30768,-17.80533 c 0.51994,-9.45303 1.01863,-17.86504 1.0452,-18.12357 0.0505,-0.48588 0.32483,-1.02567 0.70178,-1.37676 1.05182,-0.9798 2.32494,-1.95522 3.97107,-1.6814 z m -2.35886,84.37371 c 0.0683,0.003 0.2756,0.008 0.46081,0.0145 0.67894,0.0214 1.57765,0.21654 2.26621,0.49281 0.75536,0.30301 1.32035,0.64225 1.93849,1.16397 1.1602,0.97924 1.91972,2.20575 2.31979,3.74612 0.12422,0.47676 0.21982,1.61208 0.17788,2.10296 -0.13772,1.61233 -0.69482,2.97706 -1.69257,4.14766 -1.06564,1.2502 -2.4861,2.07123 -4.10133,2.37036 -1.71994,0.31851 -3.54985,-0.0503 -5.08397,-1.02412 -0.39672,-0.25183 -1.0791,-0.82786 -1.39407,-1.1766 -2.43953,-2.70164 -2.48298,-6.7012 -0.10223,-9.40739 0.99267,-1.12835 2.25052,-1.88841 3.70088,-2.23625 0.33587,-0.0807 1.2768,-0.20145 1.51014,-0.19393 z"
       id="path5419-7-9-3-2"
       inkscape:connector-curvature="0"
       sodipodi:nodetypes="csssccccccsscsscssaacssscssssscccccccssscscccccacccsssssssssssc" />
    <path
       style="fill:#ffffff;fill-opacity:1;stroke:#000000;stroke-opacity:1"
       d="m 208.31131,432.42907 c 0.54086,0.21184 1.07608,0.57234 1.4841,0.99954 0.10034,0.10513 0.29737,0.37247 0.43811,0.59394 0.38484,0.60623 0.56073,1.18763 0.57497,1.89855 0.005,0.26157 -2.53876,12.05916 -8.43905,38.4673 l -3.33394,25.09501 1.1107,0.12952 0.80312,-1.39702 4.09984,-11.02264 4.09987,-11.02258 0.15575,-0.2075 c 0.38729,-0.51682 0.68756,-0.77694 1.18541,-1.02614 0.7941,-0.3975 1.61439,-0.42897 2.52179,-0.0966 0.53696,0.19672 0.85407,0.40388 1.25085,0.8172 0.62718,0.65333 1.35256,1.6257 0.81143,2.44109 l -0.0323,0.3669 -5.21107,14.07785 c -5.5991,15.12624 -5.26684,14.25876 -5.70794,14.90282 -1.30021,1.89837 -3.85688,2.84653 -6.12687,3.38881 -3.0625,0.73156 -6.31135,0.0141 -9.43981,-0.3421 -2.54959,-0.29025 -5.03883,-0.43142 -7.55898,-1.45732 -2.76392,-1.2384 -1.87513,-0.78185 -2.76392,-1.2384 -1.4075,-0.72303 -2.47639,-1.90298 -3.00805,-3.32068 -0.27183,-0.72459 -0.25162,0.19963 -1.95788,-15.70005 l -1.67536,-14.78801 0.0561,-0.36076 c 0.14883,-0.96049 0.59861,-1.67347 1.36047,-2.15677 0.47911,-0.30387 1.00203,-0.58603 1.56502,-0.5138 0.95033,0.12157 1.56742,0.14376 2.23746,0.71482 0.42004,0.35809 0.50054,0.76673 0.89754,1.26912 l 0.10047,0.23673 1.33074,11.58337 1.33072,11.58331 1.09461,-0.11481 -0.49648,1.01189 3.22981,-25.05751 c 1.77296,-21.36657 1.88182,-39.20712 1.95265,-39.45918 0.19092,-0.67884 0.51269,-1.20608 1.03343,-1.69347 0.511,-0.47876 1.01072,-0.76191 1.65653,-0.93987 0.59987,-0.16525 1.17787,-0.19182 1.76544,-0.0811 1.56784,0.29556 2.72839,1.47453 2.99886,3.0462 0.0258,0.15376 0.0437,4.54235 0.13297,18.25525 l 0.11652,17.90733 -0.29535,0.37711 -0.29268,-0.47936 4.96536,-17.14887 c 2.46556,-9.14062 4.6949,-17.26719 4.7744,-17.5146 0.14939,-0.46511 0.53015,-0.93621 0.97156,-1.20166 1.23188,-0.74083 2.67937,-1.43159 4.23314,-0.82294 z m -19.77447,82.05767 c 0.0665,0.0166 0.26784,0.0655 0.44782,0.10948 0.65987,0.1613 1.49862,0.53852 2.11511,0.95133 0.6763,0.45278 1.15881,0.90165 1.65552,1.54003 0.93237,1.19822 1.42151,2.5554 1.49403,4.1452 0.0229,0.49217 -0.11901,1.62267 -0.26176,2.09424 -0.46846,1.54885 -1.29607,2.76866 -2.51447,3.70737 -1.30138,1.0025 -2.86106,1.51172 -4.5032,1.46997 -1.74862,-0.0444 -3.46261,-0.78386 -4.76184,-2.05437 -0.336,-0.32848 -0.88435,-1.03336 -1.12027,-1.43973 -1.8274,-3.14814 -1.04197,-7.07004 1.84745,-9.22477 1.20469,-0.89839 2.59266,-1.38158 4.08363,-1.42166 0.34531,-0.01 1.29085,0.0673 1.51755,0.12285 z"
       id="path5419-1-9-1-9"
       inkscape:connector-curvature="0"
       sodipodi:nodetypes="csssccccccsscsscssaacssscssssscccccccssscscccccacccsssssssssssc" />
  </g>
</svg>
