<?xml version="1.0" encoding="UTF-8" standalone="no"?>
<!-- Created with Inkscape (http://www.inkscape.org/) -->

<svg
   xmlns:dc="http://purl.org/dc/elements/1.1/"
   xmlns:cc="http://creativecommons.org/ns#"
   xmlns:rdf="http://www.w3.org/1999/02/22-rdf-syntax-ns#"
   xmlns:svg="http://www.w3.org/2000/svg"
   xmlns="http://www.w3.org/2000/svg"
   xmlns:sodipodi="http://sodipodi.sourceforge.net/DTD/sodipodi-0.dtd"
   xmlns:inkscape="http://www.inkscape.org/namespaces/inkscape"
   id="svg5406"
   version="1.1"
   inkscape:version="0.91 r13725"
   width="294.27051mm"
   height="174.61952mm"
   viewBox="0 0 1042.6908 618.73059"
   sodipodi:docname="logo.svg">
  <metadata
     id="metadata5412">
    <rdf:RDF>
      <cc:Work
         rdf:about="">
        <dc:format>image/svg+xml</dc:format>
        <dc:type
           rdf:resource="http://purl.org/dc/dcmitype/StillImage" />
        <dc:title></dc:title>
      </cc:Work>
    </rdf:RDF>
  </metadata>
  <defs
     id="defs5410" />
  <sodipodi:namedview
     pagecolor="#eeeeee"
     bordercolor="#666666"
     borderopacity="1"
     objecttolerance="10"
     gridtolerance="10"
     guidetolerance="10"
     inkscape:pageopacity="0"
     inkscape:pageshadow="2"
     inkscape:window-width="1360"
     inkscape:window-height="733"
     id="namedview5408"
     showgrid="false"
     fit-margin-top="0"
     fit-margin-left="0"
     fit-margin-right="-0.4"
     fit-margin-bottom="0"
     inkscape:zoom="0.80233602"
     inkscape:cx="512.19533"
     inkscape:cy="301.99832"
     inkscape:window-x="0"
     inkscape:window-y="35"
     inkscape:window-maximized="0"
     inkscape:current-layer="layer3"
     units="mm" />
  <g
     inkscape:groupmode="layer"
     id="layer4"
     inkscape:label="bg"
     style="display:inline">
    <rect
       style="fill:#6fc65e;fill-opacity:1;stroke:none;stroke-width:2;stroke-miterlimit:4;stroke-dasharray:none;stroke-opacity:1"
       id="rect6620"
       width="1044.108"
       height="618.73163"
       x="0"
       y="-0.0010271048" />
  </g>
  <g
     inkscape:groupmode="layer"
     id="layer3"
     inkscape:label="2"
     transform="translate(0,605.73098)"
     style="display:inline">
    <g
       style="display:inline"
       id="g5135"
       transform="matrix(0.4916219,0,0,0.46266808,226.4189,-604.21217)">
      <path
         style="fill:#d6ad6f"
         d="m 394.98086,760.28156 c 0.0272,-4.05351 4.76071,-5.44667 17.44091,-5.13332"
         id="path5271"
         inkscape:connector-curvature="0" />
      <path
         sodipodi:nodetypes="cssscsscssssscscsssssssssssssssssssssssssssscssssssssssssssssssssssssccssssssscssscssssscscsssssscsscssssssssssssscsssssssssssssssssssssssssscccssc"
         style="fill:#d6ce6f;fill-opacity:1"
         d="m 347.03159,810.76797 c 16.43083,0.40605 23.48265,-4.77348 28.7339,-21.10489 3.14389,-9.7775 2.97917,-14.54135 -0.28535,-8.25267 -2.34972,4.52643 -12.72435,11.87875 -15.34351,10.87367 -2.2843,-0.87656 -2.25279,-2.21322 0.0983,-4.16435 2.3407,-1.9426 2.39569,-3.62865 0.14651,-4.49175 -0.95066,-0.3648 -4.32813,1.16913 -7.5055,3.40874 -4.41647,3.11302 -6.12202,3.727 -7.24197,2.60705 -1.7909,-1.79084 1.94557,-6.52404 5.15013,-6.52404 1.99156,0 6.32577,-5.91324 6.32577,-8.63036 0,-2.66454 -4.82545,-1.32301 -7.25933,2.01816 -2.17132,2.98075 -2.83598,3.22006 -5.53186,1.99174 -1.86465,-0.84959 -3.75292,-0.95995 -4.82392,-0.28194 -0.96794,0.61276 -3.0036,1.12274 -4.52369,1.13326 -1.5201,0.01 -3.95835,1.28476 -5.41835,2.83164 l -2.65455,2.8125 -3.52704,-4.1875 c -3.28187,-3.89642 -5.84331,-26.80751 -12.85108,-26.80751 -5.5195,0 -7.7223,-0.49761 -8.24618,-1.8628 -1.1562,-3.01301 -6.28977,-2.31977 -2.40106,-1.46567 2.81201,0.61762 3.631,0.35218 3.631,-1.17682 0,-1.50111 -1.32338,-1.97432 -5.52136,-1.97432 -3.03677,0 -1.33673,-3.14718 -4.54958,-4.52438 -3.21286,-1.37719 -6.2129,-2.27447 -6.66675,-1.99397 -0.45386,0.2805 -2.48525,-0.81368 -4.5142,-2.43152 -3.50721,-2.79655 -3.58417,-3.05732 -1.56187,-5.29193 2.83425,-3.13183 2.79906,-5.8285 -0.0604,-4.62658 -3.97085,1.66909 -7.8125,2.15796 -7.8125,0.9942 0,-0.62987 2.80164,-4.49232 6.22588,-8.58322 1.65488,-1.97707 11.34493,0.73032 19.24494,-4.76934 7.9,-5.49967 11.47476,-22.5737 23.71586,-25.7262 11.15964,-2.87398 28.31489,-2.51841 28.49581,-11.56371 C 350.60041,673.96595 360,663.89728 360,662.8445 c 0,-1.39611 -0.84375,-3.23864 -1.875,-4.0945 -2.72139,-2.25855 -2.32816,-4.09812 1.70126,-7.95855 2.82178,-2.70342 4.28819,-3.24761 6.95067,-2.57937 2.55145,0.64037 3.9775,0.19954 5.84742,-1.80758 1.36018,-1.45998 3.85737,-2.6545 5.54935,-2.6545 2.40984,0 3.0763,-0.64688 3.0763,-2.98589 0,-2.39553 0.82546,-3.14073 4.17509,-3.76913 7.52556,-1.4118 11.93432,-8.76915 9.80944,-16.36998 -0.8125,-2.90631 -0.0529,-6.76622 3.37612,-17.15644 4.26148,-12.9125 4.36055,-13.62633 2.68928,-19.375 -2.64079,-9.0835 -1.48485,-18.33693 3.71708,-29.75591 l 2.60159,-5.71082 -3.1843,-3.78432 c -1.75136,-2.08137 -3.1843,-4.50906 -3.1843,-5.39485 0,-0.88579 -1.08733,-2.99282 -2.41627,-4.68231 -1.96151,-2.49364 -2.34824,-4.70013 -2.05481,-11.72344 0.20053,-4.79929 -0.2542,-9.66297 -1.02122,-10.9229 -1.11028,-1.82379 -0.89015,-2.64091 1.1173,-4.14742 2.36036,-1.77138 2.37783,-1.96682 0.3125,-3.49918 -3.12892,-2.3215 -2.71856,-3.72386 1.5625,-5.33979 2.72391,-1.02816 3.75,-2.23183 3.75,-4.39905 0,-1.64096 0.62599,-3.60956 1.39109,-4.37466 1.9448,-1.9448 0.26633,-4.10891 -3.1868,-4.10891 -4.05415,0 -5.23922,-2.01833 -6.19859,-10.55708 -0.45926,-4.08765 -2.17174,-10.5564 -3.8055,-14.375 -1.63375,-3.81861 -3.26926,-7.88433 -3.63446,-9.03495 -0.3652,-1.15061 -3.80362,-4.41138 -7.64093,-7.24617 -3.8373,-2.83478 -7.66831,-6.28214 -8.51336,-7.6608 -1.92391,-3.13876 -13.15234,-11.72855 -16.87644,-12.91054 -1.53175,-0.48616 -2.78501,-1.33993 -2.78501,-1.89729 0,-1.90816 -14.36999,-6.19547 -25.98683,-7.75322 -13.51196,-1.81188 -21.20876,-0.46028 -26.28477,4.61574 -1.68811,1.68812 -3.62494,3.06931 -4.30403,3.06931 -0.6791,0 -5.68037,2.00726 -11.11393,4.46059 -8.87882,4.0089 -10.31183,4.31782 -14.15125,3.0507 -2.87121,-0.94759 -5.56123,-3.33249 -8.2036,-7.2731 -3.9024,-5.81968 -11.24394,-21.5573 -8.80466,-37.95916 l 640.35453,29.21668 c 15.36547,10.74698 21.57262,59.24947 19.87099,60.30113 -1.12171,0.69325 -4.27746,14.12663 -5.66115,24.0983 -0.8056,5.8056 -8.64619,24.71145 -11.68149,28.16735 -1.05671,1.20313 -2.56741,2.1875 -3.35711,2.1875 -0.78971,0 -4.41629,1.48523 -8.05905,3.30049 -4.89231,2.43794 -7.70407,4.96966 -10.75904,9.6875 -2.2747,3.51286 -7.5088,9.6928 -11.63133,13.73321 l -7.49553,7.3462 -8.089,-1.60783 c -6.66057,-1.32392 -8.45314,-2.22427 -10.15106,-5.09864 -1.13414,-1.91995 -3.74035,-4.68585 -5.79158,-6.14645 -2.05122,-1.4606 -3.35567,-3.2605 -2.89878,-3.99979 0.58643,-0.94886 -2.0743,-1.03405 -9.0478,-0.28967 -16.00628,1.70855 -13.36338,0.70433 -18.0595,-1.80895 -2.21162,-1.18363 -4.91182,-1.17588 -12.45775,0.0358 -11.87581,1.90687 -14.08788,3.24918 -10.34677,6.27855 2.16907,1.75642 3.37574,1.91486 6.44214,0.84591 2.07522,-0.72343 4.0659,-1.02256 4.42371,-0.66475 0.35782,0.35781 -1.0707,1.02862 -3.17448,1.4907 -2.10377,0.46206 -4.13266,1.33785 -4.50862,1.94619 -0.82324,1.33201 -7.00303,-0.82874 -8.4059,-2.93912 -1.23711,-1.861 -4.68919,2.2834 -4.68919,5.62962 0,1.42775 -0.92139,2.26108 -2.5,2.26108 -1.8872,0 -2.50681,0.8426 -2.5278,3.4375 -0.0153,1.89063 -1.12777,4.84375 -2.4722,6.5625 -4.63647,5.9274 -2.56514,8.51659 2.5,3.125 3.66568,-3.90193 4.24824,-3.89422 6.05911,0.0803 1.27789,2.80464 1.1858,3.16153 -0.73686,2.85559 -3.73259,-0.59391 -10.36915,3.11227 -11.15797,6.23118 -0.40577,1.60435 -0.4075,5.70544 -0.004,9.11352 0.67846,5.72862 0.50431,6.28383 -2.30628,7.35242 -2.06781,0.78617 -5.06482,6.8646 -1.33033,11.50777 6.66332,8.28464 -11.11705,7.99749 -2.43699,11.99624 1.04144,0.47977 -2.70379,-2.87236 -1.95777,-3.61838 0.97516,-0.97516 2.41266,-0.81013 5.11472,0.58715 3.75196,1.94022 3.75502,1.95088 1.79815,6.26824 -1.07812,2.3786 -2.98832,4.59358 -4.24489,4.92218 -1.48303,0.38782 -2.01665,1.29595 -1.52078,2.58813 0.42015,1.09488 0.3285,2.97505 -0.20365,4.17818 -0.53215,1.20312 -1.07933,10.0625 -1.21595,19.6875 -0.28983,20.41893 1.66701,32.85764 5.97443,37.97672 3.19754,3.80006 -12.93247,12.41197 -9.66152,29.29816 2.89699,14.9556 -2.29291,22.05316 6.723,34.66422 l 6.24545,8.73586 2.44512,3.41252 c 1.34481,1.87688 3.95548,4.81877 5.80148,6.53752 1.846,1.71875 4.13191,4.97616 5.07981,7.23869 0.9479,2.26253 5.64885,8.16878 10.44655,13.125 4.79769,4.95622 10.0199,10.92728 11.60489,13.26902 3.14186,4.64193 4.88992,5.85373 9.9819,6.91971 4.84415,1.0141 7.76594,4.22478 5.89555,6.47845 -1.83301,2.20864 1.77377,6.71913 5.3729,6.71913 1.29582,0 4.56124,1.125 7.25646,2.5 2.69522,1.375 5.73794,2.5 6.76159,2.5 1.02365,0 3.36282,1.96875 5.19816,4.375 2.82119,3.69878 -22.56383,-9.0831 -18.3883,-9.0831 3.44315,0 6.58961,1.1357 10.38936,3.75 2.99774,2.0625 7.07916,3.75 9.06983,3.75 3.30442,0 9.05517,4.26541 9.05517,6.71636 0,0.51163 -1.66681,3.00663 -3.70402,5.54444 -2.51153,3.12868 -4.30227,7.46209 -5.56224,13.46008 -3.02415,14.3962 3.8172,27.03281 0.50441,34.59717 -1.69364,3.86722 -10.62111,2.99711 -3.07934,11.42267 10.61313,11.85682 -20.36996,59.0657 -37.01622,77.59846 -7.48064,8.3284 -20.20693,17.89346 -27.00825,20.29936 -14.44033,5.1082 -44.94936,11.7732 -53.89163,11.7732 -10.92371,0 -12.35521,-0.5362 -37.19848,-13.9346 -20.98615,-11.31816 -26.09188,-13.17956 -40.86301,-14.89736 -18.6056,-2.1638 -30.71746,2.1763 -47.14741,16.89466 -18.60818,16.6697 -22.2649,19.1048 -37.5,24.9719 -5.75159,2.2149 -10.12261,2.9054 -18.75,2.9619 -9.90016,0.065 -12.82858,-0.4844 -24.40639,-4.5763 l 3e-4,-10e-5 c -7.23601,-2.5574 -17.50163,-7.0169 -22.8125,-9.91 -5.31086,-2.8931 -14.01548,-7.6391 -19.34361,-10.5466 -8.02364,-4.3784 -11.29769,-5.4286 -19.0625,-6.1144"
         id="path5292"
         inkscape:connector-curvature="0" />
      <path
         style="fill:#d6ad6f"
         d="m 809.6875,904.7026 c 1.87217,-1.50819 2.06166,-5.49656 0.3125,-6.5776 -2.10413,-1.30043 -1.39154,-4.04641 1.2278,-4.73138 2.13611,-0.55861 2.30648,-1.13892 1.23543,-4.20828 -0.6833,-1.95819 -2.60008,-5.24784 -4.2595,-7.31034 -2.42385,-3.0126 -3.33044,-3.44275 -4.61043,-2.1875 -2.38276,2.3367 -8.37653,1.89045 -14.51389,-1.08059 -6.33465,-3.06656 -7.48546,-2.56207 -5.43697,2.38342 0.93298,2.25243 3.50876,4.55664 6.97757,6.24192 4.54898,2.21006 5.64195,3.43536 6.32843,7.0946 0.60221,3.21005 1.47728,4.42315 3.19067,4.42315 2.52528,0 3.36146,4.23406 1.11089,5.625 -0.6875,0.4249 -1.25,1.34654 -1.25,2.04809 0,1.49425 7.30805,0.19635 9.6875,-1.72049 z"
         id="path5265"
         inkscape:connector-curvature="0" />
      <path
         style="fill:#d6ad6f"
         d="M 620.99166,819.94915 C 622.60077,817.37256 622.09001,815 619.92623,815 c -0.64693,0 -1.17623,1.0125 -1.17623,2.25 0,1.2375 -0.675,2.925 -1.5,3.75 -1.16666,1.16666 -1.0946,1.5 0.32431,1.5 1.00338,0 2.54119,-1.14788 3.41735,-2.55085 z"
         id="path5263"
         inkscape:connector-curvature="0" />
      <path
         style="fill:#d6ad6f"
         d="m 740.08137,817.91096 c 1.5435,-4.0597 1.11798,-6.88755 -1.15004,-7.64277 -1.17115,-0.38998 -1.46535,0.15652 -0.95363,1.77142 0.40704,1.28446 -0.0631,3.88227 -1.04469,5.77289 -1.55662,2.99813 -1.55061,3.4375 0.047,3.4375 1.0075,0 2.40309,-1.50256 3.10132,-3.33904 z"
         id="path5261"
         inkscape:connector-curvature="0" />
      <path
         style="fill:#d6ad6f"
         d="m 735.625,806.25 c -0.4249,-0.6875 -2.28623,-1.21046 -4.13628,-1.16214 -3.00352,0.0785 -3.09601,0.20289 -0.86372,1.16214 3.47278,1.4923 5.9223,1.4923 5,0 z"
         id="path5259"
         inkscape:connector-curvature="0" />
      <path
         style="fill:#d6ad6f"
         d="m 601.25,805 c 0,-0.6875 -0.5625,-1.25 -1.25,-1.25 -0.6875,0 -1.25,0.5625 -1.25,1.25 0,0.6875 0.5625,1.25 1.25,1.25 0.6875,0 1.25,-0.5625 1.25,-1.25 z"
         id="path5257"
         inkscape:connector-curvature="0" />
      <path
         style="fill:#d6ad6f"
         d="m 299.63006,792.08894 c -0.35057,-0.91359 -2.67805,-4.85109 -5.17215,-8.75 -4.21241,-6.58508 -6.95791,-8.87264 -6.95791,-5.79739 0,2.54754 6.26544,13.59387 8.42296,14.85019 3.05256,1.7775 4.46123,1.66243 3.7071,-0.3028 z"
         id="path5255"
         inkscape:connector-curvature="0" />
      <path
         style="fill:#d6ad6f"
         d="m 607.25,778.5 c 2.12545,-2.12545 1.8701,-3.11164 -1,-3.86219 -1.375,-0.35957 -2.5,-0.18992 -2.5,0.37698 0,0.56691 -0.34143,1.9205 -0.75874,3.00797 -0.90707,2.36383 2.04172,2.69426 4.25874,0.47724 z"
         id="path5253"
         inkscape:connector-curvature="0" />
      <path
         style="fill:#d6ad6f"
         d="m 614.30412,768.47186 c 1.07023,-1.52796 1.96377,-4.19984 1.98563,-5.9375 0.0219,-1.73765 0.86563,-4.25125 1.875,-5.58577 2.59566,-3.43177 2.30691,-5.11329 -1.53832,-8.95853 -2.46139,-2.46139 -3.50567,-2.89925 -3.86205,-1.61932 -0.26865,0.96485 -1.28179,3.52677 -2.25142,5.69317 -0.96962,2.1664 -1.76296,6.13203 -1.76296,8.8125 0,2.68048 -0.62599,5.49958 -1.39109,6.26468 -0.76508,0.76508 -1.01315,2.00258 -0.55122,2.75 1.40962,2.28082 5.43915,1.51796 7.49643,-1.41923 z"
         id="path5251"
         inkscape:connector-curvature="0" />
      <path
         style="fill:#d6ad6f"
         d="m 634.72498,762.1875 c 0.70459,-0.85938 1.4766,-2.96875 1.71556,-4.6875 0.33231,-2.3903 -0.17902,-3.21265 -2.17493,-3.49783 -3.93401,-0.56207 -6.21823,2.83647 -4.47618,6.65984 1.56105,3.42613 3.01002,3.87398 4.93555,1.52549 z"
         id="path5249"
         inkscape:connector-curvature="0" />
      <path
         style="fill:#d6ad6f"
         d="m 620,744.47864 c 0,-2.78507 4.78401,-13.22864 6.05979,-13.22864 0.63175,0 1.44282,1.125 1.8024,2.5 1.061,4.0573 3.38781,2.8562 3.38781,-1.74879 0,-3.71251 -0.65255,-4.58892 -5.16995,-6.94352 -6.84089,-3.56568 -9.1126,-2.66333 -8.01565,3.18388 0.60411,3.22022 0.24024,5.37695 -1.30508,7.73539 -1.47316,2.24834 -1.69222,3.4204 -0.70102,3.7508 0.79294,0.26431 1.4417,1.83995 1.4417,3.5014 0,1.66146 0.5625,3.02084 1.25,3.02084 0.6875,0 1.25,-0.79711 1.25,-1.77136 z"
         id="path5247"
         inkscape:connector-curvature="0" />
      <path
         style="fill:#d6ad6f"
         d="m 430.22947,705.34564 c 0.32047,-2.75824 1.30999,-3.65963 5.21375,-4.74932 10.3048,-2.87645 15.66871,-12.41518 19.31393,-34.34632 1.86242,-11.20514 2.18443,-16.98498 1.46024,-26.21094 -0.51099,-6.50977 -0.62129,-12.63799 -0.24513,-13.61826 0.37616,-0.98028 -0.28704,-2.49231 -1.47377,-3.36008 -3.10368,-2.26946 -3.44203,-12.20942 -0.43599,-12.80826 1.66341,-0.33137 2.19661,0.40975 2.22551,3.09339 0.0309,2.86331 0.26505,3.14027 1.24142,1.46799 0.82888,-1.41972 0.62495,-3.17028 -0.65532,-5.625 -1.02228,-1.96012 -1.86217,-4.13165 -1.86641,-4.82565 -0.004,-0.694 -1.14565,-1.97249 -2.53649,-2.84108 -3.07035,-1.91746 -6.90872,-0.26355 -8.10013,3.49028 -0.43904,1.38326 -2.44589,3.36706 -4.45967,4.40842 -2.96425,1.53288 -3.66141,2.70626 -3.66141,6.16251 0,2.34803 0.5732,4.62339 1.27378,5.05637 2.33496,1.4431 7.47622,12.97553 7.47622,16.77006 0,2.05857 -1.01285,4.74915 -2.25077,5.97905 -3.66797,3.64422 -5.99427,8.10577 -7.60054,14.5769 -2.1817,8.78934 -6.51505,16.6485 -13.67959,24.8099 -3.45246,3.93282 -6.64442,8.30759 -7.09324,9.7217 -1.19082,3.75194 2.97089,10.0277 8.77942,13.23914 6.50035,3.59392 6.61196,3.58776 7.0742,-0.3908 z"
         id="path5245"
         inkscape:connector-curvature="0" />
      <path
         style="fill:#d6ad6f"
         d="m 439.64285,682.12226 c -0.34354,-0.89525 0.68051,-5.50592 2.27566,-10.24594 1.59517,-4.74001 2.85472,-10.22118 2.79902,-12.18038 -0.0557,-1.9592 0.52912,-4.19259 1.29962,-4.96309 2.16795,-2.16795 3.34455,2.30535 1.60852,6.1155 -0.79912,1.7539 -1.09772,4.30821 -0.66352,5.67622 0.8371,2.63749 -1.52555,13.0349 -3.55917,15.66293 -1.55693,2.012 -2.97244,1.98745 -3.76013,-0.0652 z"
         id="path5243"
         inkscape:connector-curvature="0" />
      <path
         style="fill:#d6ad6f"
         d="m 645.625,695 c 0.4249,-0.6875 0.21004,-1.25 -0.47746,-1.25 -0.6875,0 -1.59764,0.5625 -2.02254,1.25 -0.4249,0.6875 -0.21004,1.25 0.47746,1.25 0.6875,0 1.59764,-0.5625 2.02254,-1.25 z"
         id="path5241"
         inkscape:connector-curvature="0" />
      <path
         style="fill:#d6ad6f"
         d="m 713.04523,677.10975 c 1.32548,-3.75025 0.46723,-5.26574 -2.36632,-4.1784 -2.38045,0.91346 -2.74113,8.79667 -0.36641,8.00817 0.85937,-0.28535 2.0891,-2.00874 2.73273,-3.82977 z"
         id="path5239"
         inkscape:connector-curvature="0" />
      <path
         style="fill:#d6ad6f"
         d="m 721.58496,666.25 c 1.17732,-1.375 2.91397,-2.5 3.85923,-2.5 0.94526,0 3.12826,-1.10879 4.8511,-2.46398 3.11717,-2.45197 3.14331,-2.45197 5.36231,0 2.2818,2.52135 5.5924,3.33251 5.5924,1.37023 0,-4.84584 -1.83385,-8.78176 -4.39065,-9.42349 -1.57779,-0.396 -5.73535,-2.98595 -9.23902,-5.75545 -6.13474,-4.84922 -8.22537,-5.44359 -4.66322,-1.32574 0.93892,1.08539 2.07463,3.5203 2.52382,5.41093 0.68277,2.8738 0.40796,3.4375 -1.67587,3.4375 -2.09891,0 -2.37495,0.58806 -1.74785,3.72355 0.63833,3.19163 0.27674,3.90146 -2.53125,4.96905 -3.2479,1.23485 -4.04807,2.61861 -2.44262,4.22406 1.32874,1.32874 2.21915,0.99908 4.50162,-1.66666 z"
         id="path5237"
         inkscape:connector-curvature="0" />
      <path
         style="fill:#d6ad6f"
         d="m 718.75,657.42622 c 0,-0.64692 -0.84375,-1.17622 -1.875,-1.17622 -1.93301,0 -2.48338,1.47495 -1.07565,2.88269 0.99866,0.99866 2.95065,-0.13024 2.95065,-1.70647 z"
         id="path5235"
         inkscape:connector-curvature="0" />
      <path
         style="fill:#d6ad6f"
         d="m 433.75575,632.48925 c 1.02379,-1.91295 0.73664,-4.54918 -1.20602,-11.07226 C 431.14737,616.70815 430,611.2729 430,609.33866 c 0,-1.93425 -0.80839,-4.41006 -1.79641,-5.50182 -2.89993,-3.20438 -1.13389,-12.48512 2.64951,-13.92357 2.53431,-0.96353 2.78977,-1.52778 1.65322,-3.65146 -0.73936,-1.3815 -2.26893,-2.51181 -3.39906,-2.51181 -1.13012,0 -3.92246,-0.67536 -6.2052,-1.50081 -6.04198,-2.18482 -7.69796,-0.103 -4.79096,6.02309 1.72398,3.633 1.90184,5.16994 0.80205,6.93098 -0.77724,1.24455 -1.41315,3.18308 -1.41315,4.30784 0,1.69047 0.3303,1.77089 1.90521,0.46382 2.58637,-2.14648 3.57537,-0.80797 2.51538,3.40437 -1.74824,6.94737 -1.5861,26.54199 0.2412,29.15082 2.39204,3.41512 9.75827,3.38915 11.59396,-0.0409 z"
         id="path5233"
         inkscape:connector-curvature="0" />
      <path
         style="fill:#d6ad6f"
         d="m 454.89861,589.75524 c -0.79855,-1.92789 -2.00635,-3.50524 -2.684,-3.50524 -0.70169,0 -0.82346,0.94169 -0.28287,2.1875 0.52207,1.20312 1.22228,4.15261 1.55603,6.55443 0.58129,4.18318 0.65428,4.23862 1.73479,1.31772 0.73251,-1.98015 0.61894,-4.2781 -0.32395,-6.55441 z"
         id="path5231"
         inkscape:connector-curvature="0" />
      <path
         style="fill:#d6ad6f"
         d="m 443.75,571.94877 c 0,-1.87646 -2.24418,-3.87127 -3.23759,-2.87785 -0.87185,0.87184 0.85421,4.67908 2.12133,4.67908 0.61394,0 1.11626,-0.81055 1.11626,-1.80123 z"
         id="path5229"
         inkscape:connector-curvature="0" />
      <path
         style="fill:#d6ad6f"
         d="m 433.58504,557.3902 c -1.60094,-4.78763 -3.18357,-6.95835 -4.2764,-5.8655 -0.40318,0.40317 0.47044,3.09205 1.94136,5.9753 3.11441,6.10475 4.39301,6.04462 2.33504,-0.10975 z"
         id="path5227"
         inkscape:connector-curvature="0" />
      <path
         style="fill:#d6ad6f"
         d="m 421.37086,541.44059 c 0.74363,-2.13318 3.0967,-4.53379 5.87248,-5.99115 4.17568,-2.19234 4.66821,-2.98749 5.00291,-8.07698 0.28595,-4.34826 -0.51341,-7.35137 -3.47931,-13.07135 C 424.37549,505.83182 413.00252,492.5 410.16909,492.5 c -1.61568,0 -1.59339,0.23165 0.15038,1.5625 1.92175,1.46667 4.37518,7.15384 7.37949,17.10599 0.71287,2.36142 2.17935,5.64148 3.25887,7.28904 1.6975,2.59069 1.74673,3.86872 0.36435,9.45651 -0.87912,3.55352 -2.39673,7.73232 -3.37246,9.2862 -1.32437,2.10911 -1.43663,3.4557 -0.44291,5.3125 1.77507,3.31673 2.39394,3.14501 3.86405,-1.07215 z"
         id="path5225"
         inkscape:connector-curvature="0" />
      <path
         style="fill:#d6ad6f"
         d="m 536.70925,394.72385 c 5.40884,0.17194 11.81724,-0.23491 14.2409,-0.90411 2.97631,-0.8218 5.21094,-0.7863 6.8845,0.10937 1.70639,0.91323 3.30486,0.92742 5.1341,0.0456 1.46094,-0.70429 6.78402,-1.57689 11.82909,-1.93913 7.75765,-0.55699 9.62871,-1.15051 12.12781,-3.84707 3.56241,-3.84392 5.06669,-4.01479 5.94012,-0.67477 0.62223,2.3794 1.32922,2.46968 13.23188,1.68965 8.40878,-0.55106 13.11894,-0.37223 14.21786,0.53979 0.96845,0.80374 2.35209,0.92581 3.36914,0.29724 0.94919,-0.58664 3.59131,-0.76388 5.87136,-0.39388 2.59205,0.42064 5.20862,-0.0237 6.98228,-1.18578 2.98423,-1.95516 6.67028,-0.91275 8.85103,2.50306 0.55788,0.87384 1.54127,1.26313 2.18532,0.86509 0.64403,-0.39804 2.39781,0.13561 3.89729,1.18587 2.56671,1.7978 2.85847,1.69227 4.98382,-1.80257 1.24163,-2.0417 3.10953,-3.71218 4.15088,-3.71218 1.0948,0 1.89337,-1.11589 1.89337,-2.64572 0,-2.15793 0.58432,-2.53402 3.16926,-2.03988 3.74146,0.71523 5.7775,-2.10238 4.82325,-6.67481 -2.0838,-9.98495 -3.53356,-12.60128 -8.64132,-15.59463 -2.85772,-1.67478 -5.56829,-3.04502 -6.02352,-3.04502 -1.55893,0 -0.82904,3.44274 1.06274,5.01279 1.43789,1.19333 1.55087,1.97805 0.47195,3.27806 -2.20489,2.65673 -4.79824,2.04217 -8.61236,-2.04085 -3.94694,-4.22521 -5,-4.60926 -5,-1.82346 0,1.59401 -1.24056,1.80445 -7.1875,1.21926 -10.66493,-1.04946 -15.3125,-2.04733 -15.3125,-3.28767 0,-1.57623 -7.16802,-1.37376 -10.27734,0.29029 -2.15075,1.15106 -2.96544,0.9558 -4.60532,-1.1037 -3.08505,-3.87443 -6.31443,-4.98227 -15.11734,-5.18601 -4.46875,-0.10337 -12.625,-0.75671 -18.125,-1.45176 -33.53971,-4.23848 -55.68785,-3.82884 -67.5,1.24847 -6.01969,2.58749 -12.841,5.08024 -16.25,5.93833 -1.375,0.3461 -4.1875,1.37102 -6.25,2.2776 -10.62226,4.66904 -14.4228,5.87779 -16.26196,5.17203 -1.11178,-0.42663 -3.64534,0.0641 -5.63015,1.09047 -1.9848,1.02638 -4.72255,1.86615 -6.08388,1.86615 -1.61512,0 -2.61392,0.97724 -2.87457,2.8125 -0.26024,1.83235 -1.40505,2.95504 -3.285,3.22151 -3.34337,0.4739 -3.33905,4.17568 0.005,4.66487 1.16592,0.17053 3.87965,2.31435 6.0305,4.76403 3.05327,3.47749 4.78872,4.42095 7.91581,4.3034 2.20285,-0.0827 5.36849,0.57905 7.03475,1.4708 2.20964,1.18257 3.15851,1.23457 3.50599,0.19214 0.63682,-1.91047 5.62442,-1.82281 7.58101,0.13325 1.07284,1.07255 6.23366,1.56908 16.45846,1.58346 10.29095,0.0145 15.38259,0.50802 16.47108,1.5965 1.11044,1.11044 3.24445,1.2941 7.22904,0.62215 3.10942,-0.52436 10.07891,-0.8127 15.48775,-0.64076 z"
         id="path5223"
         inkscape:connector-curvature="0" />
      <path
         style="fill:#d6ad6f"
         d="m 638.4375,322.88834 c -1.45483,-0.38018 -2.1875,-1.79696 -2.1875,-4.22999 0,-2.41854 -0.63544,-3.65835 -1.875,-3.65835 -1.03125,0 -1.875,0.94009 -1.875,2.08907 0,2.80684 3.65927,6.6957 6.13124,6.51593 1.62015,-0.11787 1.58385,-0.25213 -0.19374,-0.71666 z"
         id="path5221"
         inkscape:connector-curvature="0" />
      <path
         style="fill:#d6ad6f"
         d="m 627.5,318.67622 c 0,-2.04287 -0.89045,-2.42622 -5.63559,-2.42622 -5.27848,0 -5.53894,0.15477 -4.11021,2.44253 1.39339,2.23117 6.53025,3.88789 8.8083,2.84083 0.51563,-0.237 0.9375,-1.52271 0.9375,-2.85714 z"
         id="path5219"
         inkscape:connector-curvature="0" />
      <path
         style="fill:#d6ad6f"
         d="m 531.23086,318.4375 c -0.01,-0.85938 -0.54961,-2.40155 -1.19795,-3.42705 -0.91645,-1.44956 -1.51245,-1.53091 -2.67789,-0.36548 -1.16542,1.16543 -1.14295,1.92818 0.101,3.42705 1.93147,2.32727 3.80108,2.50828 3.77483,0.36548 z"
         id="path5217"
         inkscape:connector-curvature="0" />
      <path
         style="fill:#d6ad6f"
         d="m 609.375,317.70834 c 0,-2.26083 -2.44662,-1.84809 -2.93188,0.4946 -0.26998,1.30338 0.1986,1.87482 1.25,1.52435 0.92503,-0.30834 1.68188,-1.21688 1.68188,-2.01895 z"
         id="path5215"
         inkscape:connector-curvature="0" />
      <path
         style="fill:#d6ad6f"
         d="m 649.5,315.5 c -0.55464,-1.44536 -1.24863,-1.75138 -2.08196,-0.91804 -0.6875,0.6875 -0.87561,2.22561 -0.41804,3.41804 0.55464,1.44536 1.24863,1.75138 2.08196,0.91804 0.6875,-0.6875 0.87561,-2.22561 0.41804,-3.41804 z"
         id="path5213"
         inkscape:connector-curvature="0" />
      <path
         style="fill:#d6ad6f"
         d="m 552.5,317.60224 c 0,-2.78727 -1.69268,-5.10224 -3.73068,-5.10224 -2.70584,0 -5.53311,3.1574 -4.42816,4.94525 0.99323,1.60706 8.15884,1.74495 8.15884,0.15699 z"
         id="path5211"
         inkscape:connector-curvature="0" />
      <path
         style="fill:#d6ad6f"
         d="m 571.25,316.875 c 0,-1.03125 -0.5293,-1.875 -1.17623,-1.875 -1.57622,0 -2.70512,1.95199 -1.70646,2.95065 1.40774,1.40773 2.88269,0.85736 2.88269,-1.07565 z"
         id="path5209"
         inkscape:connector-curvature="0" />
      <path
         style="fill:#d6ad6f"
         d="m 592.1875,317.1875 c -0.28646,-0.85938 -1.83334,-1.5625 -3.4375,-1.5625 -1.60416,0 -3.15104,0.70312 -3.4375,1.5625 -0.34356,1.0307 0.82639,1.5625 3.4375,1.5625 2.61111,0 3.78106,-0.5318 3.4375,-1.5625 z"
         id="path5207"
         inkscape:connector-curvature="0" />
      <path
         style="fill:#d6ad6f"
         d="m 560,314.9055 c 0,-0.59237 -0.84375,-0.75326 -1.875,-0.35754 -1.03125,0.39574 -1.875,1.20418 -1.875,1.79654 0,0.59237 0.84375,0.75326 1.875,0.35754 1.03125,-0.39574 1.875,-1.20418 1.875,-1.79654 z"
         id="path5205"
         inkscape:connector-curvature="0" />
      <path
         style="fill:#d6ad6f"
         d="m 659.375,315 c 0.4249,-0.6875 -0.35246,-1.25 -1.72746,-1.25 -1.375,0 -2.84764,0.5625 -3.27254,1.25 -0.4249,0.6875 0.35246,1.25 1.72746,1.25 1.375,0 2.84764,-0.5625 3.27254,-1.25 z"
         id="path5203"
         inkscape:connector-curvature="0" />
      <path
         style="fill:#d6ad6f"
         d="m 353.75,761.5 c 0,-1.2375 -0.64386,-2.89386 -1.4308,-3.6808 -1.07441,-1.07441 -0.52953,-1.61608 2.1875,-2.17457 1.99006,-0.40908 5.21498,-1.56763 7.16646,-2.57458 1.9515,-1.00694 4.04435,-1.52415 4.6508,-1.14934 0.60644,0.3748 2.7787,-0.18529 4.82725,-1.24462 3.92253,-2.02842 11.34879,-2.63128 11.34879,-0.9213 0,2.54666 -8.9511,9.25511 -15.34999,11.50413 C 358.10947,764.43641 353.75,764.51485 353.75,761.5 Z"
         id="path5201"
         inkscape:connector-curvature="0" />
      <path
         style="fill:#d6ad6f"
         d="M 331.25,742.51123 C 319.89519,741.55884 315,740.38189 315,738.60421 c 0,-0.60731 0.45258,-1.10421 1.00572,-1.10421 0.55315,0 3.19665,-2.0068 5.87444,-4.45956 3.64564,-3.33928 4.45181,-4.71724 3.20914,-5.48525 -0.91277,-0.56413 -1.27308,-1.65106 -0.80067,-2.41544 1.38093,-2.2344 3.21137,-1.60159 3.21137,1.11025 0,3.17988 3.03087,3.21912 6.1701,0.0799 2.06419,-2.06419 2.89991,-2.20207 5.68267,-0.9375 2.8251,1.2838 3.16304,2.02952 2.5202,5.56142 -0.89153,4.8983 1.22283,6.20455 6.86139,4.23894 3.25671,-1.1353 3.76564,-1.01591 3.76564,0.88335 0,6.37554 -4.76309,7.81794 -21.25,6.43511 z"
         id="path5199"
         inkscape:connector-curvature="0" />
      <path
         style="fill:#d6ad6f"
         d="m 346.25,716.25 c 0,-4.1611 0.55084,-4.39595 4.7923,-2.04314 l 2.9173,1.61828 -3.18581,2.08742 C 346.51666,720.70194 346.25,720.60394 346.25,716.25 Z"
         id="path5197"
         inkscape:connector-curvature="0" />
      <path
         style="fill:#d6ad6f"
         d="m 666.875,716.25 c 0.4249,-0.6875 1.0206,-1.25 1.32378,-1.25 0.30317,0 0.55122,0.5625 0.55122,1.25 0,0.6875 -0.5957,1.25 -1.32378,1.25 -0.72807,0 -0.97612,-0.5625 -0.55122,-1.25 z"
         id="path5195"
         inkscape:connector-curvature="0" />
      <path
         style="fill:#d6ad6f"
         d="m 662.5,673.38029 c 0,-2.84593 1.35908,-5.88029 2.63374,-5.88029 1.8232,0 1.26873,4.56735 -0.75874,6.25 -1.52868,1.26869 -1.875,1.2004 -1.875,-0.36971 z"
         id="path5193"
         inkscape:connector-curvature="0" />
      <path
         style="fill:#d6ad6f"
         d="m 716.8236,629.91684 c -0.45316,-0.73324 -0.52379,-1.63331 -0.15694,-2.00018 0.8954,-0.89538 3.33334,0.68229 3.33334,2.15712 0,1.59746 -2.15801,1.49083 -3.1764,-0.15694 z"
         id="path5191"
         inkscape:connector-curvature="0" />
      <path
         style="fill:#d6ad6f"
         d="m 766.875,572.5 c 0.4249,-0.6875 1.0206,-1.25 1.32378,-1.25 0.30317,0 0.55122,0.5625 0.55122,1.25 0,0.6875 -0.5957,1.25 -1.32378,1.25 -0.72807,0 -0.97612,-0.5625 -0.55122,-1.25 z"
         id="path5189"
         inkscape:connector-curvature="0" />
      <path
         style="fill:#d6ad6f"
         d="m 772.1875,569.06749 c -2.47986,-0.56773 -3.02175,-4.07772 -0.625,-4.04835 0.85937,0.01 2.40155,0.54961 3.42705,1.19795 2.33772,1.47796 0.2922,3.55879 -2.80205,2.8504 z"
         id="path5187"
         inkscape:connector-curvature="0" />
      <path
         style="fill:#d6ad6f"
         d="m 743.75,563.125 c 0,-4.18005 0.48424,-5.625 1.8851,-5.625 1.43237,0 1.83399,1.35089 1.67232,5.625 -0.14212,3.75768 -0.76792,5.625 -1.88508,5.625 -1.1487,0 -1.67234,-1.7613 -1.67234,-5.625 z"
         id="path5185"
         inkscape:connector-curvature="0" />
      <path
         style="fill:#d6ad6f"
         d="m 779.6875,563.2785 c -4.08789,-3.26724 -4.34039,-4.5285 -0.90656,-4.5285 1.58497,0 2.99965,1.2328 3.78497,3.29836 1.64856,4.33605 1.23094,4.51453 -2.87841,1.23014 z"
         id="path5183"
         inkscape:connector-curvature="0" />
      <path
         style="fill:#d6ad6f"
         d="m 771.25,551.25 c 0,-0.6875 1.26562,-1.24139 2.8125,-1.23086 2.2743,0.0155 2.4537,0.25102 0.9375,1.23086 -2.42345,1.56615 -3.75,1.56615 -3.75,0 z"
         id="path5141"
         inkscape:connector-curvature="0" />
    </g>
    <g
       id="g6570"
       style="fill:#306925;fill-opacity:1"
       transform="matrix(47.597149,0,0,47.597149,0,-605.73098)">
      <path
         style="display:inline;fill:#306925;fill-opacity:1"
         d="m 10.152968,2.9319827 c 0.03113,-9.72e-5 0.004,-0.065869 -0.0083,-0.095258 C 10.061861,2.639563 9.9160678,2.4580312 9.7275844,2.3492958 9.5993884,2.2753399 9.5012357,2.1358815 9.5012357,2.087718 c 0,-0.043246 0.2331735,-0.2416218 0.2878623,-0.2449026 0.1622383,-0.00973 0.1887473,0.00839 0.338674,0.2315181 0.139081,0.2069882 0.05439,0.2483598 0.189164,0.2375658 0.118761,0.1683754 0.170119,0.3437355 0.239462,0.5222522 0.01061,0.027312 0.01767,0.077346 0.0269,0.083682"
         id="path5850"
         inkscape:connector-curvature="0" />
      <path
         style="display:inline;fill:#306925;fill-opacity:1"
         d="m 9.3902933,2.8873997 c -0.09776,0.00697 -0.1954916,-0.014749 -0.2929486,-0.025125 -0.124287,-0.013233 -0.2521724,-0.047338 -0.3719684,-0.047338 -0.1356302,10e-8 -0.3978125,0.05311 -0.6465038,0.1309621 -0.1734715,0.054305 -0.2048784,0.069893 -0.3863777,0.1917797 -0.07101,0.047687 -0.1452855,0.090396 -0.1650545,0.094906 -0.022177,0.00506 -0.04157,0.020873 -0.05063,0.041282 -0.00808,0.018193 -0.039884,0.05495 -0.070682,0.081681 -0.034854,0.030251 -0.058926,0.063159 -0.063756,0.087156 -0.00713,0.035439 0.00343,0.1147388 0.00396,0.1468815 0.00375,0.226597 0.085935,0.2735708 0.1748897,0.4185562 l 1.5e-6,0 c 0.044477,0.072493 -0.04916,-0.458488 0.9805405,-0.1791458 1.0297082,0.2793472 5.657158,0.5859706 5.657158,0.5859706 0.01923,-0.8440108 -1.053347,-1.4053809 -1.503872,-1.4915159 -0.03811,-0.00729 -0.08824,-0.021317 -0.111397,-0.031187 -0.04361,-0.01858 -0.07375,-0.012728 -0.06353,0.012334 0.0078,0.019055 -0.08077,0.010368 -0.107398,-0.010538 -0.0326,-0.025589 -0.08291,-0.030772 -0.120508,-0.012414 -0.03101,0.015144 -0.02867,0.00136 -0.04284,-4.131e-4 C 12.115557,2.869545 12.02656,2.832384 11.93376,2.8143 11.85619,2.799182 11.712731,2.771771 11.699211,2.779641 c -0.009,0.00523 -0.02239,0.0051 -0.02969,-2.78e-4 -0.0073,-0.00538 -0.0482,-0.013335 -0.09081,-0.017665 -0.04261,-0.00433 -0.138468,-0.015671 -0.213018,-0.025191 -0.152521,-0.01948 -0.300988,-0.01215 -0.613287,0.03028 -0.233291,0.031696 -0.318202,0.048396 -0.342142,0.067289 -0.01939,0.015301 -0.161225,0.027493 -0.174505,0.014999 -0.0039,-0.00364 -0.06469,0.00994 -0.09421,-7.63e-4 L 9.390294,2.8874"
         id="path5269" />
      <path
         sodipodi:nodetypes="csscsccsssssssssssscsssssssscssscsssssssscsssccssssssssssssssssssssssssssssssssssssssaaaaacaaaaasssssssscsaaacsscssscsccsssss"
         inkscape:connector-curvature="0"
         id="path5139"
         d="m 10.257076,10.13501 c -0.01065,-0.0056 -0.04303,-0.01353 -0.07194,-0.01765 C 10.109844,10.106617 9.9732572,10.050968 9.8271295,9.9714955 9.6090519,9.8528918 9.5881447,9.8449453 9.4953262,9.8453798 9.3972719,9.8458366 9.2327298,9.7927044 9.0305297,9.6952865 8.8996883,9.632249 8.7418743,9.5211404 8.7500331,9.497804 9.3205862,8.5555986 8.1635181,8.0893602 8.6788437,7.4505094 c 0.039339,-0.048998 0.08662,-0.094487 0.1050688,-0.1010884 0.051716,-0.018504 0.078779,-0.047291 0.078779,-0.083797 0,-0.03961 0.018486,-0.048019 0.1055528,-0.048019 0.05385,0 0.065841,0.00408 0.07146,0.024301 0.010254,0.036901 0.042516,0.029576 0.1282242,-0.029116 0.092475,-0.063326 0.1539732,-0.1302287 0.173979,-0.1892678 0.00799,-0.02357 0.019629,-0.048049 0.025873,-0.054397 0.00624,-0.00635 0.011351,-0.042194 0.011351,-0.079656 0,-0.053782 -0.00688,-0.076918 -0.032711,-0.1099632 -0.017991,-0.023018 -0.045558,-0.044824 -0.06126,-0.048458 -0.037016,-0.00857 -0.046699,-0.04807 -0.011783,-0.04807 0.031472,0 0.1259208,-0.087513 0.1566912,-0.1451839 0.05892,-0.1104307 0.082796,-0.297039 0.093357,-0.7296611 C 9.5241436,5.778749 9.5015347,5.624279 9.4882497,5.567798 9.4846697,5.552563 9.4668097,5.527958 9.4485687,5.51312 9.4096817,5.481488 9.3791307,5.430316 9.3791307,5.3968153 c 0,-0.014211 -0.018098,-0.033754 -0.04519,-0.048797 -0.026681,-0.014815 -0.053855,-0.043923 -0.066345,-0.071066 -0.011635,-0.025285 -0.027196,-0.058373 -0.034579,-0.073527 -0.00744,-0.015264 -0.031112,-0.031867 -0.053082,-0.037224 -0.061897,-0.015095 -0.054757,-0.060566 0.015214,-0.096892 l 0.054872,-0.028486 0,-0.073057 c 0,-0.060746 -0.00751,-0.085674 -0.04458,-0.1479349 -0.024519,-0.041183 -0.070974,-0.1022168 -0.1032323,-0.1356311 -0.032259,-0.033414 -0.058677,-0.064202 -0.058708,-0.068417 -5.16e-5,-0.00756 -0.1161344,-0.063443 -0.1562813,-0.075236 -0.013554,-0.00398 -0.023394,-0.026293 -0.028608,-0.064865 -0.011764,-0.08702 -0.017035,-0.1054769 -0.046532,-0.1629329 -0.01477,-0.02877 -0.026855,-0.058747 -0.026855,-0.066615 0,-0.025759 -0.05309,-0.078536 -0.1032074,-0.1025979 -0.027017,-0.012971 -0.061234,-0.041525 -0.076037,-0.063452 -0.014803,-0.021927 -0.05856,-0.061738 -0.097238,-0.08847 -0.038678,-0.026731 -0.072179,-0.059538 -0.074447,-0.072904 -0.00287,-0.016898 -0.014667,-0.024671 -0.038734,-0.025516 -0.019036,-6.678e-4 -0.05099,-0.00703 -0.071011,-0.014135 -0.045479,-0.016143 -0.165328,-0.036315 -0.2752543,-0.046328 -0.1246201,-0.011352 -0.2271274,0.017444 -0.328198,0.092194 -0.1023472,0.075695 -0.1328811,0.086929 -0.1823449,0.067092 0.1950432,-1.624603 5.8015615,-0.8961637 6.5871785,0.4364266 0.01841,0.1263804 -0.08821,0.5017595 -0.150395,0.529498 -0.01065,0.00475 -0.0463,0.019909 -0.07922,0.033682 -0.03508,0.014678 -0.07783,0.046412 -0.103287,0.076674 -0.02389,0.028397 -0.06743,0.075312 -0.09676,0.1042557 -0.0456,0.044994 -0.05776,0.051083 -0.08392,0.041995 -0.01683,-0.00585 -0.03265,-0.020949 -0.03515,-0.03356 -0.0059,-0.029694 -0.03842,-0.063757 -0.08031,-0.084146 -0.04262,-0.020739 -0.176615,-0.015641 -0.321826,0.012245 -0.129434,0.024856 -0.187968,0.024614 -0.283901,-0.00117 -0.208267,-0.055986 -0.461366,-0.00391 -0.524263,0.1078608 -0.01034,0.018378 -0.02737,0.033414 -0.03784,0.033414 -0.01047,0 -0.01904,0.010482 -0.01904,0.023294 0,0.012812 -0.01059,0.046985 -0.02353,0.075941 -0.01294,0.028956 -0.03131,0.093656 -0.04081,0.1437771 -0.0095,0.050121 -0.03958,0.1367819 -0.06684,0.1925789 -0.02726,0.055797 -0.04956,0.1053864 -0.04956,0.1101989 0,0.00481 -0.02324,0.038063 -0.05164,0.073892 -0.0284,0.035828 -0.05164,0.071545 -0.05164,0.079371 0,0.00783 -0.01743,0.031394 -0.03873,0.052373 -0.0213,0.020979 -0.03873,0.043796 -0.03873,0.050705 0,0.017677 -0.04801,0.032795 -0.12997,0.040923 -0.132816,0.013172 -0.181275,0.03313 -0.254201,0.1046947 -0.07035,0.069033 -0.119359,0.1637253 -0.119359,0.230601 0,0.041239 -0.01875,0.055377 -0.06713,0.050602 -0.02307,-0.00228 -0.04273,0.00541 -0.05811,0.022719 -0.01278,0.014388 -0.05051,0.039314 -0.08385,0.05539 -0.06665,0.032145 -0.126914,0.1038324 -0.152675,0.1816251 -0.0088,0.026603 -0.02044,0.108514 -0.02584,0.1820253 -0.01283,0.1746692 -0.02754,0.2309498 -0.0717,0.2743267 -0.03593,0.035292 -0.03643,0.037866 -0.0404,0.2082538 -0.0022,0.094886 -0.0098,0.177947 -0.01684,0.1845798 -0.007,0.00663 -0.01281,0.019588 -0.01281,0.02879 0,0.019742 -0.06928,0.087765 -0.08938,0.087765 -0.0076,0 -0.01391,0.017841 -0.01391,0.039646 0,0.029237 0.0075,0.042795 0.02863,0.05164 0.01575,0.0066 0.04732,0.036599 0.07017,0.066672 0.02285,0.030073 0.06225,0.077147 0.08757,0.1046082 0.02531,0.027462 0.04641,0.057535 0.04688,0.066828 0.0014,0.027667 0.06891,0.1226535 0.127919,0.1535925 0.05332,0.027957 0.121824,2.565e-4 0.179899,0.016137 0.02801,0.00766 0.06989,0.00977 0.07866,0.037454 0.0026,0.00815 -0.0087,0.014722 -0.01258,0.022351 -0.01706,0.033737 -0.05172,0.065918 -0.04665,0.1033832 0.0096,0.070682 0.03347,0.058272 0.136692,0.1646289 0.04697,0.066207 0.115333,0.0271 0.174038,0.034004 0.06698,0.00788 0.134818,0.0045 0.20215,0.00833 0.03743,0.00213 0.07496,0.00358 0.112173,0.00813 0.02058,0.00251 0.04194,0.00314 0.0613,0.010569 0.01361,0.00523 0.02452,0.01578 0.037,0.023322 0.06884,0.041613 0.13032,0.065827 0.208824,0.1209506 0.05922,0.04158 0.270324,0.1260833 0.379418,0.1518749 0.07854,0.018567 0.268663,0.038126 0.480426,0.049425 0.121228,0.00647 0.145535,0.00436 0.19707,-0.017094 0.03252,-0.013538 0.06461,-0.03696 0.07182,-0.052421 0.01159,-0.024864 0.01218,-0.023969 0.0053,0.00811 -0.0042,0.019833 -0.02119,0.063575 -0.03767,0.097205 -0.01648,0.03363 -0.03681,0.081574 -0.04518,0.1065413 -0.0084,0.024968 -0.01994,0.048145 -0.02572,0.051506 -0.0058,0.00336 -0.01459,0.02659 -0.01958,0.051621 0,0 -0.004,0.030888 -0.0091,0.045511 -0.02281,0.066037 -0.06369,0.1243811 -0.09452,0.1870761 -0.0154,0.031319 -0.02766,0.064273 -0.04519,0.094451 -0.01085,0.018682 -0.01662,0.03002 -0.03694,0.053262 -0.02032,0.023242 -0.05195,0.070185 -0.0703,0.1043185 -0.03585,0.066697 -0.13998,0.162899 -0.215639,0.1992236 -0.07068,0.033937 -0.498641,0.1336203 -0.573322,0.1335433 -0.09972,-9.74e-5 -0.15029,-0.017793 -0.382178,-0.1336804 -0.239458,-0.11967 -0.308474,-0.1427786 -0.457751,-0.1532709 -0.183534,-0.012899 -0.309449,0.03094 -0.461663,0.1607382 -0.17379,0.1481961 -0.309111,0.2350421 -0.367764,0.2360221 -0.01271,2.14e-4 -0.03439,0.0084 -0.04817,0.01823 -0.02785,0.01982 -0.256313,0.02527 -0.291258,0.0069 z m 3.810157,-5.8006012 c -0.01054,-0.00992 -0.01436,-0.00856 -0.01436,0.00511 0,0.024154 0.01736,0.040493 0.02378,0.022378 0.0027,-0.00769 -0.0015,-0.020056 -0.0094,-0.027491 z"
         style="display:inline;fill:#306925;fill-opacity:1" />
      <path
         id="path5267"
         d="M 9.4271043,9.8356029 C 9.1752611,9.6987431 8.6133479,9.5406052 8.4606478,9.2375619 8.3754572,9.0684951 8.130083,8.6589415 8.0809102,8.5022195 c -0.00839,-0.026731 -0.028067,-0.06774 -0.043733,-0.09113 -0.015666,-0.02339 -0.028506,-0.049179 -0.028532,-0.057308 -2.07e-5,-0.00813 -0.032152,-0.090146 -0.071391,-0.1822594 -0.073984,-0.1736805 -0.087362,-0.2034129 -0.1327513,-0.2950598 -0.01674,-0.033799 -0.024337,-0.067129 -0.019896,-0.087284 0.00615,-0.02791 0.00352,-0.031705 -0.018271,-0.026342 -0.018947,0.00466 -0.027118,-9.806e-4 -0.031958,-0.022071 C 7.7276581,7.6511268 7.6869867,7.5083828 7.6405294,7.4001715 7.6243333,7.3624465 7.6068275,7.3228558 7.5769764,7.2946706 7.5413623,7.2610441 7.5561849,7.2844103 7.4469656,7.2261933 7.2933034,7.1442853 7.2024475,7.0811083 7.1898692,7.0474193 c -0.00681,-0.018247 -0.00843,-0.036903 -0.00359,-0.041457 0.00484,-0.00455 0.048998,-0.017681 0.098132,-0.029172 0.1048762,-0.024527 0.1642556,-0.017853 0.2608734,0.029322 0.035998,0.017576 0.075991,0.031957 0.088872,0.031957 0.015762,0 0.021651,0.00695 0.018007,0.021264 -0.00687,0.026995 3.574e-4,0.0358 0.077682,0.094579 0.034867,0.026505 0.080302,0.063045 0.1009662,0.081201 0.020664,0.018156 0.067666,0.050056 0.1044487,0.07089 0.036782,0.020834 0.093876,0.055767 0.1268743,0.07763 0.032999,0.021863 0.082566,0.043147 0.1101491,0.047298 0.033493,0.00504 0.064476,0.021456 0.093278,0.049421 0.037834,0.036736 0.046893,0.040259 0.073825,0.028711 0.022722,-0.00974 0.043773,-0.0091 0.081009,0.00246 0.043251,0.013433 0.060009,0.012663 0.1194344,-0.00549 0.058503,-0.017869 0.082686,-0.035611 0.1573813,-0.1154635 0.048541,-0.051893 0.1037359,-0.1018494 0.1226546,-0.1110148 0.043185,-0.020921 0.053318,-0.033907 0.053567,-0.068644"
         style="display:inline;fill:#306925;fill-opacity:1"
         inkscape:connector-curvature="0"
         sodipodi:nodetypes="cscscscsccaasccscscsssscccccssc" />
    </g>
    <path
       style="fill:#306925;fill-opacity:1"
       d="M 0,309.36529 0,0 l 522.05405,0 522.05405,0 0,309.36529 0,309.36528 -522.05405,0 -522.05405,0 z m 904.94898,266.80819 c 10.82963,-9.80025 19.69022,-28.21226 19.69022,-40.91498 0,-28.83864 19.32968,-48.93654 47.06582,-48.93654 11.67363,0 30.08538,-8.01869 40.91508,-17.81942 16.6977,-15.11114 11.825,-62.55645 11.825,-158.57751 0,-122.27279 -1.189,-185.38185 -48.24757,-185.38185 -28.83854,0 -48.93658,-19.32968 -48.93658,-47.06597 0,-11.67367 -8.01869,-30.0852 -17.81942,-40.91498 -16.5709,-18.31063 -54.27884,-11.82504 -381.59429,-11.82504 -387.26829,0 -384.46137,-9.91877 -400.89335,59.26512 -4.85631,20.44678 -15.99261,31.57309 -36.439221,36.4061 -16.195053,3.82681 -40.34726,16.85987 -53.671554,28.95858 -21.930334,19.9137 -13.739026,64.61694 -13.739026,158.68747 0,94.07005 -5.569568,137.46247 16.360766,157.37616 13.324295,12.09872 37.476502,25.13035 53.671556,28.95859 20.446609,4.83349 31.582919,15.95932 36.439219,36.4061 16.42571,69.15771 13.82947,55.33264 399.02255,55.33264 310.66782,0 358.8786,5.8573 376.3508,-9.95447 z M 138.3003,353.48927 c -33.99215,-37.56129 -6.77754,-115.08419 53.09392,-108.1531 19.61202,2.27039 42.68474,8.34331 52.55217,27.99855 13.34776,26.58872 12.48247,43.92122 0.73371,73.08875 -11.74877,29.16754 -72.38765,44.62661 -106.3798,7.0658 z m 683.41697,-5.67786 c -34.93988,-50.16645 -1.09949,-109.40633 58.77177,-102.47524 19.61212,2.27039 39.01943,12.50425 46.71246,33.10858 10.3441,27.7044 9.51315,41.78601 -3.09334,64.89681 -24.38145,44.69848 -85.23569,29.10137 -102.39089,4.46937 z"
       id="path5956"
       inkscape:connector-curvature="0"
       sodipodi:nodetypes="cccccccccsssssssssssssssssszsszzsssss"
       transform="translate(0,-605.73098)" />
  </g>
</svg>
