<?xml version="1.0" encoding="UTF-8" standalone="no"?>
<!-- Created with Inkscape (http://www.inkscape.org/) -->
<svg
   xmlns:dc="http://purl.org/dc/elements/1.1/"
   xmlns:cc="http://creativecommons.org/ns#"
   xmlns:rdf="http://www.w3.org/1999/02/22-rdf-syntax-ns#"
   xmlns:svg="http://www.w3.org/2000/svg"
   xmlns="http://www.w3.org/2000/svg"
   xmlns:sodipodi="http://sodipodi.sourceforge.net/DTD/sodipodi-0.dtd"
   xmlns:inkscape="http://www.inkscape.org/namespaces/inkscape"
   width="589.38147"
   height="384.41714"
   id="svg2501"
   sodipodi:version="0.32"
   inkscape:version="0.46"
   sodipodi:docname="pig.svg"
   version="1.0"
   inkscape:output_extension="org.inkscape.output.svg.inkscape">
  <defs
     id="defs2503">
    <inkscape:perspective
       sodipodi:type="inkscape:persp3d"
       inkscape:vp_x="0 : 526.18109 : 1"
       inkscape:vp_y="0 : 1000 : 0"
       inkscape:vp_z="744.09448 : 526.18109 : 1"
       inkscape:persp3d-origin="372.04724 : 350.78739 : 1"
       id="perspective2509" />
  </defs>
  <sodipodi:namedview
     id="base"
     pagecolor="#ffffff"
     bordercolor="#666666"
     borderopacity="1.0"
     gridtolerance="10000"
     guidetolerance="10"
     objecttolerance="10"
     inkscape:pageopacity="0.0"
     inkscape:pageshadow="2"
     inkscape:zoom="0.7"
     inkscape:cx="295.71429"
     inkscape:cy="179.83538"
     inkscape:document-units="px"
     inkscape:current-layer="layer1"
     showgrid="false"
     inkscape:window-width="1366"
     inkscape:window-height="705"
     inkscape:window-x="-8"
     inkscape:window-y="-8"
     inkscape:showpageshadow="false"
     showborder="false" />
  <metadata
     id="metadata2506">
    <rdf:RDF>
      <cc:Work
         rdf:about="">
        <dc:format>image/svg+xml</dc:format>
        <dc:type
           rdf:resource="http://purl.org/dc/dcmitype/StillImage" />
      </cc:Work>
    </rdf:RDF>
  </metadata>
  <g
     inkscape:label="Layer 1"
     inkscape:groupmode="layer"
     id="layer1"
     transform="translate(-0.3092503,-0.153612)">
    <path
       style="fill:#ffc0cb;fill-opacity:1;display:inline"
       d="M 68.462937,382.83766 C 68.097157,381.88446 65.867577,378.34323 63.508307,374.96827 C 48.850074,353.99948 38.656114,322.70261 32.168584,278.75099 L 29.316874,259.43124 L 25.469334,255.25099 C 20.416404,249.76112 16.178574,243.50437 12.310694,235.8235 C 4.3507841,220.01667 1.2853341,206.81951 0.52181409,185.07075 C 0.044734092,171.48148 0.28598409,167.15678 2.1229541,156.36773 C 4.3312641,143.39771 7.8735541,131.48423 12.757644,120.60104 L 15.496114,114.49892 L 13.002594,111.78483 C 1.6500141,99.428081 -2.0231629,74.854081 7.0325271,55.687681 C 13.132367,42.777324 45.72333,20.864404 43.506565,31.877202 C 41.507481,41.808572 11.286891,62.712381 30.32908,83.067421 C 33.358353,86.305551 64.631347,49.570753 65.093627,49.570753 C 65.555907,49.570753 69.479377,47.251413 73.812447,44.416663 C 122.00392,12.889173 186.14127,-2.8039376 252.83041,0.61459238 C 308.58631,3.4726924 358.33471,18.930173 390.74743,43.467243 C 394.4553,46.274173 397.9844,48.560803 398.58988,48.548633 C 399.19536,48.536463 403.48439,45.216093 408.12107,41.170023 C 423.72264,27.555743 440.75799,18.577573 457.69075,15.045223 C 464.17681,13.692163 468.6226,13.503723 481.18336,14.049493 C 489.7043,14.419723 496.90277,14.949443 497.17997,15.226643 C 497.68643,15.733103 495.84088,17.480393 484.21674,27.499653 C 475.03427,35.414343 470.89887,45.445283 468.7154,65.100081 C 467.93304,72.142611 467.62289,71.747931 479.69075,79.066601 C 502.81388,93.089851 525.00928,115.84991 538.97477,139.85882 C 541.46635,144.14225 543.99673,147.95644 544.59784,148.33479 C 545.19894,148.71314 555.21464,149.03351 566.85495,149.04673 C 578.49526,149.05994 588.39526,149.44562 588.85495,149.90381 C 589.31464,150.36199 589.69075,161.83699 589.69075,175.40381 C 589.69075,202.37096 589.04168,206.80999 583.2964,219.13516 C 576.87292,232.91525 546.46768,259.04739 515.38008,277.50663 C 487.66223,293.96497 450.66615,309.79319 419.21051,318.65134 C 413.44638,320.27456 408.04638,322.28649 407.21051,323.12229 C 404.8829,325.44971 404.62307,345.45479 406.68235,363.78721 C 407.61939,372.12909 408.75865,379.93425 409.21405,381.13202 C 409.98329,383.15529 409.67488,383.35389 404.86639,383.93157 C 402.01979,384.27356 382.04408,384.55728 360.47593,384.56206 C 324.14932,384.57011 321.19164,384.44186 320.31775,382.82075 C 319.79889,381.85825 317.04454,377.92075 314.19695,374.07075 C 311.34937,370.22075 305.90725,362.05608 302.10334,355.92705 C 298.29944,349.79801 294.62546,344.58927 293.93895,344.35207 C 248.81371,348.11914 204.1074,341.66904 159.19075,338.11798 L 154.69075,338.07075 L 154.80731,347.64975 C 154.92849,357.60899 156.74714,375.68768 158.19449,381.32075 L 159.02954,384.57075 L 114.07876,384.57075 C 72.358057,384.57075 69.080197,384.44621 68.462937,382.83766 z"
       id="path2476"
       sodipodi:nodetypes="cscccssscccssssssssssssssssssssssssssssssscccccccc" />
  </g>
</svg>
