<?xml version="1.0" encoding="UTF-8" standalone="no"?>
<!-- Created with Inkscape (http://www.inkscape.org/) -->

<svg
   xmlns:dc="http://purl.org/dc/elements/1.1/"
   xmlns:cc="http://creativecommons.org/ns#"
   xmlns:rdf="http://www.w3.org/1999/02/22-rdf-syntax-ns#"
   xmlns:svg="http://www.w3.org/2000/svg"
   xmlns="http://www.w3.org/2000/svg"
   xmlns:sodipodi="http://sodipodi.sourceforge.net/DTD/sodipodi-0.dtd"
   xmlns:inkscape="http://www.inkscape.org/namespaces/inkscape"
   width="589.38147"
   height="384.41714"
   id="svg2501"
   sodipodi:version="0.32"
   inkscape:version="0.91 r13725"
   sodipodi:docname="pig.svg"
   version="1.0"
   inkscape:output_extension="org.inkscape.output.svg.inkscape">
  <defs
     id="defs2503">
    <inkscape:perspective
       sodipodi:type="inkscape:persp3d"
       inkscape:vp_x="0 : 526.18109 : 1"
       inkscape:vp_y="0 : 1000 : 0"
       inkscape:vp_z="744.09448 : 526.18109 : 1"
       inkscape:persp3d-origin="372.04724 : 350.78739 : 1"
       id="perspective2509" />
  </defs>
  <sodipodi:namedview
     id="base"
     pagecolor="#ffffff"
     bordercolor="#666666"
     borderopacity="1.0"
     gridtolerance="10000"
     guidetolerance="10"
     objecttolerance="10"
     inkscape:pageopacity="0.0"
     inkscape:pageshadow="2"
     inkscape:zoom="0.98994949"
     inkscape:cx="25.970635"
     inkscape:cy="205.11973"
     inkscape:document-units="px"
     inkscape:current-layer="layer1"
     showgrid="false"
     inkscape:window-width="1360"
     inkscape:window-height="733"
     inkscape:window-x="0"
     inkscape:window-y="35"
     inkscape:showpageshadow="false"
     showborder="false"
     inkscape:window-maximized="0" />
  <metadata
     id="metadata2506">
    <rdf:RDF>
      <cc:Work
         rdf:about="">
        <dc:format>image/svg+xml</dc:format>
        <dc:type
           rdf:resource="http://purl.org/dc/dcmitype/StillImage" />
      </cc:Work>
    </rdf:RDF>
  </metadata>
  <g
     inkscape:label="Layer 1"
     inkscape:groupmode="layer"
     id="layer1"
     transform="translate(-0.3092503,-0.153612)">
    <path
       style="display:inline;fill:#ee6699;fill-opacity:1;stroke:#000000;stroke-width:2;stroke-miterlimit:4;stroke-dasharray:none;stroke-opacity:1"
       d="M 233.84375,0 C 173.94701,0.12333933 117.17743,15.691884 73.503906,44.263672 c -4.33307,2.83475 -8.25647,5.154297 -8.71875,5.154297 -0.46228,0 -31.736352,36.734223 -34.765625,33.496093 -19.042189,-20.35504 11.178651,-41.260036 13.177735,-51.191406 2.216765,-11.012798 -30.37477,10.90019 -36.4746098,23.810547 -9.05569,19.1664 -5.3818767,43.740907 5.9707028,56.097657 l 2.494141,2.71484 -2.738281,6.10157 c -4.8840902,10.88319 -8.4264559,22.79755 -10.6347659,35.76757 -1.83696998,10.78905 -2.07864247,15.11386 -1.60156248,28.70313 0.76352002,21.74876 3.82915258,34.94512 11.78906238,50.75195 3.86788,7.68087 8.105273,13.93787 13.158203,19.42774 l 3.847656,4.17968 2.851563,19.32032 c 6.48753,43.95162 16.681611,75.248 31.339844,96.21679 2.35927,3.37496 4.589298,6.91594 4.955078,7.86914 0.61726,1.60855 3.894531,1.73438 45.615233,1.73438 l 44.95117,0 -0.83593,-3.25 c -1.44735,-5.63307 -3.26554,-23.71264 -3.38672,-33.67188 l -0.11719,-9.57812 4.5,0.0469 c 44.91665,3.55106 89.62281,10.00145 134.74805,6.23438 0.68651,0.2372 4.36211,5.44518 8.16601,11.57422 3.80391,6.12903 9.24617,14.29453 12.09375,18.14453 2.84759,3.85 5.60028,7.7875 6.11914,8.75 0.87389,1.62111 3.8316,1.74828 40.15821,1.74023 21.56815,-0.005 41.54402,-0.28887 44.39062,-0.63086 4.80849,-0.57768 5.1169,-0.77555 4.34766,-2.79882 -0.4554,-1.19777 -1.59421,-9.00383 -2.53125,-17.34571 -2.05928,-18.33242 -1.80027,-38.33664 0.52734,-40.66406 0.83587,-0.8358 6.23587,-2.84748 12,-4.4707 31.45564,-8.85815 68.45207,-24.68619 96.16992,-41.14453 31.0876,-18.45924 61.49254,-44.59101 67.91602,-58.3711 5.74528,-12.32517 6.39453,-16.76527 6.39453,-43.73242 0,-13.56682 -0.37625,-25.04182 -0.83594,-25.5 -0.45969,-0.45819 -10.35969,-0.84421 -22,-0.85742 -11.64031,-0.0132 -21.65476,-0.33259 -22.25586,-0.71094 -0.60111,-0.37835 -3.13146,-4.19313 -5.62304,-8.47656 -13.96549,-24.00891 -36.16203,-46.769721 -59.28516,-60.792971 -12.06786,-7.31867 -11.75697,-6.922313 -10.97461,-13.964843 2.18347,-19.654798 6.31948,-29.686873 15.50195,-37.601563 11.62414,-10.01926 13.46935,-11.766977 12.96289,-12.273437 -0.2772,-0.2772 -7.47515,-0.805552 -15.99609,-1.175782 -12.56076,-0.54577 -17.00808,-0.356966 -23.49414,0.996094 -16.93276,3.53235 -33.96679,12.508767 -49.56836,26.123047 -4.63668,4.04607 -8.92577,7.366736 -9.53125,7.378906 -0.60548,0.01217 -4.13588,-2.273148 -7.84375,-5.080078 C 358.02478,18.777383 308.27738,3.3190375 252.52148,0.4609375 246.26938,0.14045031 240.03996,-0.01275924 233.84375,0 Z m -7.46596,19.688895 c 2.67595,-0.01831 5.46345,-0.0075 8.36523,0.03711 46.42857,0.71428 55.71485,7.142578 55.71485,7.142578 l -7.14258,11.429687 c 0,0 -17.85798,-4.2857 -48.57227,-5 -30.71428,-0.71429 -54.28515,5.712891 -54.28515,5.712891 l -9.28516,-12.142578 c 0,0 15.06575,-6.905033 55.20508,-7.179688 z"
       transform="translate(0.3092503,0.153612)"
       id="path2476"
       inkscape:connector-curvature="0"
       sodipodi:nodetypes="ssssssccsssscccsssccccccsssssssssssssssssssssssssssssccsccs" />
  </g>
</svg>
