<?xml version="1.0" encoding="UTF-8" standalone="no"?>
<!-- Created with Inkscape (http://www.inkscape.org/) -->

<svg
   xmlns:dc="http://purl.org/dc/elements/1.1/"
   xmlns:cc="http://creativecommons.org/ns#"
   xmlns:rdf="http://www.w3.org/1999/02/22-rdf-syntax-ns#"
   xmlns:svg="http://www.w3.org/2000/svg"
   xmlns="http://www.w3.org/2000/svg"
   xmlns:sodipodi="http://sodipodi.sourceforge.net/DTD/sodipodi-0.dtd"
   xmlns:inkscape="http://www.inkscape.org/namespaces/inkscape"
   width="589.38147"
   height="384.41714"
   id="svg2501"
   sodipodi:version="0.32"
   inkscape:version="0.91 r13725"
   sodipodi:docname="pig_white.svg"
   version="1.0"
   inkscape:output_extension="org.inkscape.output.svg.inkscape">
  <defs
     id="defs2503">
    <inkscape:perspective
       sodipodi:type="inkscape:persp3d"
       inkscape:vp_x="0 : 526.18109 : 1"
       inkscape:vp_y="0 : 1000 : 0"
       inkscape:vp_z="744.09448 : 526.18109 : 1"
       inkscape:persp3d-origin="372.04724 : 350.78739 : 1"
       id="perspective2509" />
  </defs>
  <sodipodi:namedview
     id="base"
     pagecolor="#ffffff"
     bordercolor="#666666"
     borderopacity="1.0"
     gridtolerance="10000"
     guidetolerance="10"
     objecttolerance="10"
     inkscape:pageopacity="0.0"
     inkscape:pageshadow="2"
     inkscape:zoom="0.7"
     inkscape:cx="188.65996"
     inkscape:cy="42.777106"
     inkscape:document-units="px"
     inkscape:current-layer="layer1"
     showgrid="false"
     inkscape:window-width="1440"
     inkscape:window-height="900"
     inkscape:window-x="1360"
     inkscape:window-y="0"
     inkscape:showpageshadow="false"
     showborder="false"
     inkscape:window-maximized="0" />
  <metadata
     id="metadata2506">
    <rdf:RDF>
      <cc:Work
         rdf:about="">
        <dc:format>image/svg+xml</dc:format>
        <dc:type
           rdf:resource="http://purl.org/dc/dcmitype/StillImage" />
      </cc:Work>
    </rdf:RDF>
  </metadata>
  <g
     inkscape:label="Layer 1"
     inkscape:groupmode="layer"
     id="layer1"
     transform="translate(-0.3092503,-0.153612)">
    <path
       style="fill:#ffffff;fill-opacity:1;display:inline;stroke:#000000;stroke-opacity:1;stroke-width:2;stroke-miterlimit:4;stroke-dasharray:none"
       d="M 233.84375 0 C 173.94701 0.12333933 117.17743 15.691884 73.503906 44.263672 C 69.170836 47.098422 65.247436 49.417969 64.785156 49.417969 C 64.322876 49.417969 33.048804 86.152192 30.019531 82.914062 C 10.977342 62.559022 41.198182 41.654026 43.197266 31.722656 C 45.414031 20.709858 12.822496 42.622846 6.7226562 55.533203 C -2.3330338 74.699603 1.3407795 99.27411 12.693359 111.63086 L 15.1875 114.3457 L 12.449219 120.44727 C 7.5651288 131.33046 4.0227631 143.24482 1.8144531 156.21484 C -0.022516885 167.00389 -0.26418937 171.3287 0.21289062 184.91797 C 0.97641064 206.66673 4.0420432 219.86309 12.001953 235.66992 C 15.869833 243.35079 20.107226 249.60779 25.160156 255.09766 L 29.007812 259.27734 L 31.859375 278.59766 C 38.346905 322.54928 48.540986 353.84566 63.199219 374.81445 C 65.558489 378.18941 67.788517 381.73039 68.154297 382.68359 C 68.771557 384.29214 72.048828 384.41797 113.76953 384.41797 L 158.7207 384.41797 L 157.88477 381.16797 C 156.43742 375.5349 154.61923 357.45533 154.49805 347.49609 L 154.38086 337.91797 L 158.88086 337.96484 C 203.79751 341.5159 248.50367 347.96629 293.62891 344.19922 C 294.31542 344.43642 297.99102 349.6444 301.79492 355.77344 C 305.59883 361.90247 311.04109 370.06797 313.88867 373.91797 C 316.73626 377.76797 319.48895 381.70547 320.00781 382.66797 C 320.8817 384.28908 323.83941 384.41625 360.16602 384.4082 C 381.73417 384.40342 401.71004 384.11933 404.55664 383.77734 C 409.36513 383.19966 409.67354 383.00179 408.9043 380.97852 C 408.4489 379.78075 407.31009 371.97469 406.37305 363.63281 C 404.31377 345.30039 404.57278 325.29617 406.90039 322.96875 C 407.73626 322.13295 413.13626 320.12127 418.90039 318.49805 C 450.35603 309.6399 487.35246 293.81186 515.07031 277.35352 C 546.15791 258.89428 576.56285 232.76251 582.98633 218.98242 C 588.73161 206.65725 589.38086 202.21715 589.38086 175.25 C 589.38086 161.68318 589.00461 150.20818 588.54492 149.75 C 588.08523 149.29181 578.18523 148.90579 566.54492 148.89258 C 554.90461 148.87936 544.89016 148.55999 544.28906 148.18164 C 543.68795 147.80329 541.1576 143.98851 538.66602 139.70508 C 524.70053 115.69617 502.50399 92.935359 479.38086 78.912109 C 467.313 71.593439 467.62389 71.989796 468.40625 64.947266 C 470.58972 45.292468 474.72573 35.260393 483.9082 27.345703 C 495.53234 17.326443 497.37755 15.578726 496.87109 15.072266 C 496.59389 14.795066 489.39594 14.266714 480.875 13.896484 C 468.31424 13.350714 463.86692 13.539518 457.38086 14.892578 C 440.4481 18.424928 423.41407 27.401345 407.8125 41.015625 C 403.17582 45.061695 398.88673 48.382361 398.28125 48.394531 C 397.67577 48.406701 394.14537 46.121383 390.4375 43.314453 C 358.02478 18.777383 308.27738 3.3190375 252.52148 0.4609375 C 246.26938 0.14045031 240.03996 -0.012759241 233.84375 0 z M 232.34961 20.09375 C 235.02556 20.07544 237.81306 20.086216 240.71484 20.130859 C 287.14341 20.845139 296.42773 27.273438 296.42773 27.273438 L 289.28516 38.703125 C 289.28516 38.703125 271.42913 34.417425 240.71484 33.703125 C 210.00056 32.988835 186.42773 39.417969 186.42773 39.417969 L 177.14258 27.273438 C 177.14258 27.273438 192.21028 20.368405 232.34961 20.09375 z "
       transform="translate(0.3092503,0.153612)"
       id="path2476" />
  </g>
</svg>
